<svg xmlns="http://www.w3.org/2000/svg" xml:space="preserve" id="Layer_1" x="0" y="0" style="enable-background:new 0 0 200 80" version="1.1" viewBox="0 0 200 80"><style>.st0{display:none}.st1{fill-rule:evenodd;clip-rule:evenodd;fill:#e1251b}.st1,.st2,.st4{display:inline}.st2{fill:#273896;stroke:#273896;stroke-width:.0938;stroke-miterlimit:10}.st4{fill:#231f20}.st16,.st6,.st7{display:inline;fill:#005ea5}.st16,.st7{fill:#009bdd}.st16{fill-rule:evenodd;clip-rule:evenodd;fill:#004679}.st17{fill:#fd8d46}</style><g id="Group_1569" transform="translate(-48.863 -246.705)"><path id="Exclusion_3" d="M209.068 313.111c-8.057 0-129.385-14.994-130.511-15.148h-.059a17.409 17.409 0 0 1-9.857-4.964 9.417 9.417 0 0 1-2.583-6.007v-20.266a6.408 6.408 0 0 1 1.931-4.479 6.44 6.44 0 0 1 4.514-1.949H224.63a6.979 6.979 0 0 1 7.038 6.901v23.773c-.292 12.285-10.313 22.101-22.6 22.139zM70.424 282.585v4.419a5.862 5.862 0 0 0 1.108 3.039 10.223 10.223 0 0 0 7.737 3.797c1.185.142 122.122 14.401 130.28 14.401 9.815 0 17.772-7.957 17.772-17.772v-7.885H70.424zm150.125-18.104a7.24 7.24 0 0 0-4.798 1.357 8.252 8.252 0 0 0-2.227 4.644l-.592 2.962a6.132 6.132 0 0 0 .296 4.627 5.135 5.135 0 0 0 4.271 1.398h1.925a7.214 7.214 0 0 0 4.81-1.368 8.211 8.211 0 0 0 2.245-4.65l.592-2.962a6.05 6.05 0 0 0-.332-4.644 5.142 5.142 0 0 0-4.253-1.357l-1.937-.007zm-42.528 0a7.23 7.23 0 0 0-4.792 1.357 8.284 8.284 0 0 0-2.227 4.644l-.592 2.962a6.137 6.137 0 0 0 .296 4.627 5.095 5.095 0 0 0 4.265 1.398h1.866a7.214 7.214 0 0 0 4.81-1.368 8.205 8.205 0 0 0 2.245-4.65l.592-2.962a6.059 6.059 0 0 0-.332-4.644 5.142 5.142 0 0 0-4.253-1.357l-1.878-.007zm-84.914.184-1.777 8.797a15.155 15.155 0 0 0-.35 2.37 3.51 3.51 0 0 0 .592 2.109c.658.983 2.103 1.487 4.301 1.487h1.931c.972.033 1.944-.075 2.885-.32a5.057 5.057 0 0 0 3.424-3.134c.303-.823.533-1.672.687-2.535l1.777-8.797h-4.307l-1.777 8.489a4.747 4.747 0 0 1-.669 1.979 2.37 2.37 0 0 1-1.878.628h-.723c-.889 0-1.445-.207-1.647-.628a4.213 4.213 0 0 1 .101-1.955l1.736-8.489h-4.306zm52.664 0-7.328 14.632h4.627l1.185-2.494h4.283l.16 2.494h4.65l-1.214-14.632h-6.363zm57.646 10.444h1.979c.39-.053.785.059 1.09.308.207.332.249.741.113 1.108l-.592 2.755h4.402l.646-3.14a2.258 2.258 0 0 0-1.516-2.998 3.887 3.887 0 0 0 2.796-3.24l.243-1.185c.361-1.736 0-2.915-1.185-3.507a10.135 10.135 0 0 0-4.105-.592h-6.042l-3.009 14.632h4.33l.853-4.147v.006zm-13.933 0h1.979c.39-.053.785.058 1.09.308.184.195.219.557.113 1.108l-.592 2.755h4.413l.646-3.14a2.258 2.258 0 0 0-1.516-2.998 3.887 3.887 0 0 0 2.796-3.24l.243-1.185c.361-1.736 0-2.915-1.185-3.507a10.118 10.118 0 0 0-4.105-.592h-6.06l-2.998 14.632h4.33l.853-4.147-.007.006zm-29.828-1.386h4.739l-1.149 5.574h4.33l3.003-14.632h-4.33l-1.09 5.332h-4.71l1.084-5.332h-4.33l-2.998 14.632h4.33l1.149-5.569-.028-.005zm-29.519-9.058-2.998 14.632h4.366l2.998-14.632h-4.366zm-10.556 3.554-2.269 11.078h4.366l2.269-11.072h3.72l.729-3.554h-11.848l-.729 3.554 3.762-.006zm-11.534-3.554-2.998 14.632h10.912l.758-3.708h-6.546l2.245-10.924h-4.371zm-21.652 5.486-1.884 9.147h4.23l3.003-14.632h-6.137l-4.81 9.751-.853-9.751h-6.078l-2.998 14.632h4.218l1.913-9.307.687 9.307h4.253l4.449-9.147h.007zm133.17 5.55h-.723c-.871 0-1.386-.178-1.582-.539a4.106 4.106 0 0 1 .113-2.02l.48-2.37c.1-.688.325-1.353.663-1.961a2.297 2.297 0 0 1 1.86-.592h.723c.889 0 1.422.184 1.599.545a4.142 4.142 0 0 1-.113 2.032l-.48 2.37a4.783 4.783 0 0 1-.675 1.937c-.499.47-1.184.69-1.865.598zm-42.539 0h-.723c-.877 0-1.41-.178-1.582-.539a4.142 4.142 0 0 1 .113-2.02l.48-2.37c.092-.69.317-1.356.663-1.961a2.32 2.32 0 0 1 1.86-.592h.723c.877 0 1.416.184 1.599.545a4.142 4.142 0 0 1-.113 2.032l-.492 2.37a4.611 4.611 0 0 1-.675 1.937 2.244 2.244 0 0 1-1.853.598zm-28.584-2.197h-2.672l2.458-5.509.214 5.509zm57.7-1.949h-1.979l.675-3.306h1.979a1.55 1.55 0 0 1 1.102.278c.184.19.213.557.095 1.108l-.113.545a1.699 1.699 0 0 1-.545 1.084 2.038 2.038 0 0 1-1.214.291zm-13.904 0h-2.014l.675-3.306h1.99c.389-.044.781.055 1.102.278.178.184.207.563.095 1.108l-.113.545c-.041.419-.24.806-.557 1.084-.352.219-.764.32-1.178.291z" class="st17"/><path id="Path_4016" d="m175.953 297.525 1.884-9.194h2.464l-.705 3.436h3.211l.705-3.436h2.464l-1.884 9.194h-2.464l.735-3.59h-3.211l-.735 3.59h-2.464z" class="st17"/><path id="Path_4017" d="M186.765 291.974a5.186 5.186 0 0 1 1.38-2.921 4.327 4.327 0 0 1 2.903-.829h1.185a3.085 3.085 0 0 1 2.571.835c.449.91.517 1.961.189 2.921l-.391 1.907a5.175 5.175 0 0 1-1.386 2.921 4.35 4.35 0 0 1-2.915.835h-1.185a3.077 3.077 0 0 1-2.565-.829 3.83 3.83 0 0 1-.184-2.926l.398-1.914zm2.476.202-.308 1.511a2.425 2.425 0 0 0-.035 1.481c.136.201.486.302 1.049.302h.456c.419.041.839-.068 1.185-.308.325-.43.53-.939.592-1.475l.308-1.511c.169-.479.182-1 .035-1.487-.138-.205-.488-.308-1.049-.308h-.456a1.714 1.714 0 0 0-1.185.308 3.036 3.036 0 0 0-.592 1.487" class="st17"/><path id="Path_4018" d="M204.673 291.198h-2.464a.594.594 0 0 0-.189-.628 1.692 1.692 0 0 0-.954-.195h-.592a1.742 1.742 0 0 0-1.185.308 3.013 3.013 0 0 0-.592 1.487l-.308 1.511a2.369 2.369 0 0 0-.03 1.475c.138.205.49.308 1.054.308h.681c.364.025.727-.047 1.054-.207.238-.163.395-.419.432-.705l.071-.361h-1.41l.35-1.718h3.809l-.32 1.57a4.734 4.734 0 0 1-1.374 2.719 4.1 4.1 0 0 1-2.761.853h-1.67a2.316 2.316 0 0 1-2.156-.983 4.052 4.052 0 0 1-.207-2.903l.284-1.398a5.836 5.836 0 0 1 1.487-3.14 4.015 4.015 0 0 1 2.879-.989h1.339a3.235 3.235 0 0 1 2.281.735c.53.458.758 1.174.592 1.854l-.101.407z" class="st17"/><path id="Path_4019" d="m204.003 297.525 4.526-9.194h3.791l.699 9.194h-2.642l-.083-1.605h-2.897l-.752 1.605h-2.642zm4.224-3.477h2.014l-.136-3.809h-.16l-1.718 3.809z" class="st17"/><path id="Path_4020" d="m214.163 297.525 1.884-9.194h3.702a4.736 4.736 0 0 1 2.802.557c.491.527.643 1.286.391 1.961l-.154.74a2.694 2.694 0 0 1-.752 1.463 2.511 2.511 0 0 1-1.463.64c.472.03.914.242 1.232.592.235.399.291.879.154 1.321l-.391 1.896h-2.518l.338-1.653a1.003 1.003 0 0 0-.059-.806 1.03 1.03 0 0 0-.794-.219h-1.362l-.551 2.678-2.459.024zm3.436-4.739h1.375c.31.028.62-.047.883-.213.213-.214.349-.494.385-.794l.071-.349a.995.995 0 0 0-.059-.806 1.026 1.026 0 0 0-.794-.219h-1.375l-.486 2.381z" class="st17"/></g></svg>