<svg xmlns="http://www.w3.org/2000/svg" xml:space="preserve" id="Layer_1" x="0" y="0" style="enable-background:new 0 0 200 80" version="1.1" viewBox="0 0 200 80"><style>.st20{fill-rule:evenodd;clip-rule:evenodd;fill:#004679}</style><path d="M103 22.6H99.8c-.3 0-.5.3-.5.5 0 .1.1.3.1.4l2.1 3.9c5.8 10.9 11.7 21.9 17.5 32.8l.6 1.2c.2.4.6.5 1 .3.2-.1.3-.3.4-.4 1.1-2 2.1-4 3.2-5.9 5.1-9.5 10.1-19 15.2-28.4.6-1.2 1.2-2.3 1.9-3.5.3-.5-.1-.9-.5-.9h-6.2c-.3 0-.5.1-.7.4-.1.1-.1.2-.2.4l-12.6 24c-.1.1-.1.2-.2.3-.3.4-.9.4-1.2 0-.1-.1-.1-.2-.2-.3-.7-1.3-1.4-2.6-2-3.9-3.6-6.8-7.2-13.6-10.7-20.4-.2-.4-.4-.5-.8-.5h-3zM171.4 56.1H174.6c.4 0 .6-.4.5-.7 0-.1-.1-.2-.1-.3-2.6-4.9-5.3-9.8-7.9-14.7-4.1-7.6-8.2-15.3-12.2-22.9 0-.1-.1-.2-.1-.3-.3-.4-.9-.4-1.2 0-.1.1-.1.2-.2.3-2.8 5.2-5.5 10.4-8.3 15.5-3.9 7.4-7.9 14.7-11.8 22.1 0 .1-.1.2-.1.3-.2.4.1.7.5.8H139.9c.4 0 .8-.2.9-.6 3.4-6.5 6.8-13 10.3-19.5.8-1.6 1.7-3.2 2.5-4.8.1-.3.4-.5.7-.5.4 0 .6.2.7.5.1.2.2.5.4.7 4.1 7.9 8.3 15.7 12.4 23.6.2.4.5.6.9.6.7-.1 1.7-.1 2.7-.1zM52.2 40.7c.1 0 .1.1.2.1 2.7 1 4.4 3 5.3 5.7.5 1.5.6 3 .5 4.5-.1 1.1-.2 2.2-.6 3.3-.9 2.8-2.6 4.8-5.3 6-1.3.6-2.6 1-4 1.2-1.5.3-2.9.3-4.4.3H25.4c-.4 0-.7-.3-.7-.7V23.5c0-.6.3-1 1-1h19.2c2 0 4 .4 5.8 1.3 2.5 1.2 4.3 3.2 5.1 5.9.7 2.2.6 4.4-.1 6.6-.7 1.8-1.8 3.3-3.5 4.2.1.1.1.1 0 .2zM38.6 56.1h5.3c.9 0 1.8 0 2.7-.2s1.8-.4 2.6-.8c1.3-.7 2.2-1.8 2.5-3.3.3-1.3.2-2.6-.1-3.9-.4-1.3-1.2-2.3-2.4-2.9-.4-.2-.9-.3-1.3-.5-1.3-.3-2.7-.4-4-.4H32.3c-.5 0-.8.3-.8.8V55.6c.1.3.3.6.7.6h.3c2-.1 4-.1 6.1-.1zm-.1-27.9h-6c-.7 0-1 .3-1 1V37.8c0 .4.3.6.7.7H43.6c1.1 0 2.2-.1 3.2-.5 1.3-.5 2.3-1.3 2.8-2.5.6-1.3.7-2.8.3-4.2-.2-1-.8-1.7-1.7-2.2-.3-.2-.5-.3-.8-.4-1-.4-2.1-.5-3.2-.5h-5.7zM92.8 40.7c.1 0 .1.1.2.1 2.8 1.1 4.5 3.1 5.4 5.9.4 1.3.5 2.7.5 4-.1 1.2-.2 2.4-.6 3.6-.8 2.7-2.6 4.7-5.1 5.9-1.3.6-2.7 1-4.1 1.3s-2.9.3-4.3.3H66.2c-.3 0-.6-.3-.6-.6V23.2c0-.4.3-.6.7-.7h19.5c1.9 0 3.8.3 5.6 1.1 2.3 1.1 4.1 2.8 5.1 5.2.6 1.3.8 2.8.8 4.2 0 1.3-.3 2.5-.8 3.7-.7 1.6-1.8 2.9-3.3 3.7-.2.2-.3.2-.4.3zM79.2 56.1h5c.9 0 1.7 0 2.6-.1 1-.1 1.9-.3 2.8-.8 1.4-.7 2.4-1.7 2.7-3.3.3-1.4.3-2.8-.1-4.1-.4-1.2-1.1-2.1-2.2-2.6-.5-.2-1-.4-1.5-.5-1.3-.3-2.6-.4-4-.4H73c-.5 0-1 .3-1 1v10.4c.1.3.3.6.7.6h.3c2.1-.2 4.1-.2 6.2-.2zm-.1-27.9h-6.3c-.4 0-.7.3-.7.7V37.8c0 .4.3.7.7.7H83.4c.6 0 1.2 0 1.8-.1.8 0 1.5-.2 2.2-.5 1.4-.5 2.4-1.4 2.9-2.9.4-1.2.5-2.3.3-3.5-.2-.9-.6-1.7-1.3-2.2-.4-.3-.8-.5-1.2-.6-1-.4-2.1-.5-3.2-.5h-5.8z" class="st20"/><path d="M103 22.6h3c.4 0 .7.2.8.5 3.6 6.8 7.2 13.6 10.7 20.4.7 1.3 1.4 2.6 2 3.9.1.1.1.2.2.3.3.4.9.4 1.2 0 .1-.1.1-.2.2-.3l12.6-24c.1-.1.1-.2.2-.4.1-.3.4-.4.7-.4h6.2c.4 0 .8.4.5.9-.6 1.2-1.3 2.3-1.9 3.5-5.1 9.5-10.1 19-15.2 28.4-1.1 2-2.1 4-3.2 5.9-.1.2-.2.3-.4.4-.4.2-.8.1-1-.3l-.6-1.2c-5.8-11-11.7-21.9-17.5-32.8l-2.1-3.9c-.1-.1-.1-.3-.1-.4 0-.3.2-.5.5-.5H103zM171.4 56.1h-2.9c-.4 0-.7-.2-.9-.6-4.1-7.9-8.3-15.8-12.4-23.6-.1-.2-.2-.4-.4-.7-.1-.3-.4-.5-.7-.5-.3 0-.6.2-.7.5-.8 1.6-1.7 3.2-2.5 4.8-3.4 6.5-6.8 13-10.3 19.5-.2.4-.5.6-.9.6h-6.2c-.4 0-.6-.4-.5-.8 0-.1.1-.2.1-.3 3.9-7.4 7.9-14.7 11.8-22.1 2.8-5.2 5.5-10.4 8.3-15.5.1-.1.1-.2.2-.3.3-.4.9-.4 1.2 0 .1.1.1.2.1.3 4.1 7.6 8.2 15.3 12.2 22.9 2.6 4.9 5.3 9.8 7.9 14.7.1.1.1.2.1.3.1.3-.1.7-.5.7h-.3c-.8.1-1.8.1-2.7.1z" class="st20"/></svg>