<svg xmlns="http://www.w3.org/2000/svg" xml:space="preserve" id="Layer_1" x="0" y="0" style="enable-background:new 0 0 200 80" version="1.1" viewBox="0 0 200 80"><style>.st0{display:none}.st1{fill-rule:evenodd;clip-rule:evenodd;fill:#e1251b}.st1,.st2,.st4{display:inline}.st2{fill:#273896;stroke:#273896;stroke-width:.0938;stroke-miterlimit:10}.st4{fill:#231f20}.st16,.st6,.st7{display:inline}.st6,.st7{fill:#005ea5}.st7{fill:#009bdd}.st16{fill-rule:evenodd;clip-rule:evenodd;fill:#004679}</style><path d="M25.653 39.542c.824 0 1.486-.662 1.486-1.486V22.418c0-.627-.755-1.08-1.312-.778l-15.592 8.463a2.476 2.476 0 0 0-1.312 2.194v7.291c0 .662.72.07 1.289-.255l7.72-4.969a.864.864 0 0 1 1.173.313c.07.128.116.279.116.43v2.949c0 .824.662 1.486 1.486 1.486h4.946z" style="fill-rule:evenodd;clip-rule:evenodd;fill:#47c486"/><path d="M10.421 40.541c-.824 0-1.486.662-1.486 1.486v15.626c0 .627.755 1.08 1.312.778l15.592-8.463a2.537 2.537 0 0 0 1.312-2.194v-5.375c-.012-1.892-.813-1.625-1.393-1.289l-7.616 4.609a.864.864 0 0 1-1.173-.313.912.912 0 0 1-.116-.43v-2.949c0-.824-.662-1.486-1.486-1.486h-4.946z" style="fill-rule:evenodd;clip-rule:evenodd;fill:#2196f3"/><path d="M49.746 43.13a.42.42 0 0 0-.607.014l-.029.029a5.036 5.036 0 0 1-2.92 1.72h-.029a6.52 6.52 0 0 1-1.07.087h-.087c-.116 0-.246 0-.361-.014-1.619-.072-2.934-.679-3.975-1.821a1.765 1.765 0 0 1-.159-.188c-.969-1.156-1.46-2.544-1.489-4.207v-.405a6.313 6.313 0 0 1 1.46-3.585c.058-.058.101-.13.159-.188 1.026-1.142 2.356-1.749 3.975-1.821.116 0 .246-.014.361-.014h.087c.361 0 .708.029 1.07.087h.029a5.036 5.036 0 0 1 2.92 1.72l.087.116a.436.436 0 0 0 .607.058l.014-.014.173-.173.448-.434 1.85-1.778.014-.014a.432.432 0 0 0 .014-.607l-.058-.058a9.448 9.448 0 0 0-.665-.65l-.014-.014a9.575 9.575 0 0 0-1.055-.795l-.087-.058a10.095 10.095 0 0 0-3.426-1.431 13.761 13.761 0 0 0-2.313-.202 11.369 11.369 0 0 0-3.787.867 11.198 11.198 0 0 0-3.108 2.009c-2.11 1.937-3.166 4.452-3.166 7.531 0 3.079 1.012 5.58 3.036 7.488.419.39.867.752 1.33 1.084a9.972 9.972 0 0 0 3.397 1.503h.014a11.23 11.23 0 0 0 2.501.275c.202 0 .405 0 .593-.014.072 0 .13 0 .202-.014l.13-.014.116-.014.202-.014.13-.014h.043l.087-.014.13-.014.116-.014.145-.015h.101l.058-.014h.087a10.343 10.343 0 0 0 3.426-1.431l.087-.058a11.24 11.24 0 0 0 1.055-.795l.014-.015c.231-.202.448-.419.665-.65.13-.145.13-.376-.014-.506l-.014-.014-2.5-2.493zm12.504-5.031v10.712a.426.426 0 0 1-.434.434h-3.469a.426.426 0 0 1-.434-.434V21.895c0-.246.188-.434.434-.434h3.469c.246 0 .434.188.434.434v9.266c2.053-2.4 4.12-2.689 5.536-2.689 2.327 0 4.423.477 6.071 1.894 1.532 1.315 3.021 3.585 3.021 6.274v12.186a.426.426 0 0 1-.434.434h-3.469a.426.426 0 0 1-.434-.434v-10.87c0-3.787-1.995-5.218-5.146-5.218-1.503 0-2.645.39-3.715 1.417-1.011.966-1.43 2.036-1.43 3.944m55.899-5.811a.426.426 0 0 1-.434.434c-2.038.043-3.585.737-4.64 2.082-1.084 1.402-1.619 3.267-1.619 5.609v8.384a.426.426 0 0 1-.434.434h-3.469a.426.426 0 0 1-.434-.434V28.905c0-.246.188-.434.434-.434h3.469c.246 0 .434.188.434.434v2.255c1.633-2.269 4.655-2.616 6.216-2.674a.418.418 0 0 1 .448.419v.014c.014.81.029 2.545.029 3.369m32.192 16.956h-3.469a.426.426 0 0 1-.434-.434V28.906c0-.246.188-.434.419-.448h3.484c.246 0 .434.188.434.434v19.905a.438.438 0 0 1-.434.447c.015 0 .015 0 0 0m40.302-20.772c.246 0 .434.188.434.434v18.777c-.014.39-.029.781-.058 1.156-.015.087-.015.159-.029.246-.043.39-.087.766-.159 1.142a.704.704 0 0 0-.029.173c-.015.087-.029.188-.058.275l-.014.072a1.565 1.565 0 0 1-.058.246 10.211 10.211 0 0 1-1.749 3.845c-.058.072-.101.13-.159.203-.101.13-.202.26-.318.376l-.029.029c-.058.058-.116.115-.159.173-.043.058-.116.116-.173.173-.058.058-.13.116-.188.173-.058.058-.13.116-.188.173-.058.058-.13.116-.188.159-.058.043-.13.116-.188.159-.13.101-.26.202-.405.304l-.203.145-.145.101a9.358 9.358 0 0 1-1.46.766l-.173.072c-.174.072-.347.13-.521.188l-.217.072-.087.029-.087.029-.159.044c-.101.029-.188.043-.289.072l-.072.014c-.101.014-.188.043-.275.058-.087.014-.188.029-.289.058l-.13.014-.246.029c-.087.015-.173.015-.26.029l-.145.014-.173.014c-.116.014-.246.014-.361.029h-.694c-2.284 0-4.293-.564-6.028-1.677-.087-.058-.188-.116-.275-.188a.775.775 0 0 1-.13-.101c-.043-.043-.072-.058-.115-.087-.043-.029-.072-.058-.116-.087l-.015-.014c-.087-.058-.173-.13-.246-.202s-.159-.13-.231-.202c-.043-.043-.087-.072-.13-.116-.043-.043-.116-.101-.173-.159l-.26-.26a2.225 2.225 0 0 1-.246-.275c-.072-.101-.145-.173-.217-.26a9.132 9.132 0 0 1-.246-.318c-.087-.116-.145-.202-.217-.304-.072-.101-.145-.202-.203-.304-.058-.101-.13-.217-.188-.318a3.584 3.584 0 0 0-.188-.332 2.188 2.188 0 0 1-.159-.318c0-.014 0-.014-.014-.014a3.818 3.818 0 0 1-.159-.347 3.673 3.673 0 0 0-.159-.361.232.232 0 0 1 .029-.217c0-.014.014-.014.014-.029l.029-.029c.015-.014.043-.029.058-.043l3.397-1.489c.072-.029.145-.029.202.014l.029.029c.015.014.029.029.029.043.014.014.014.029.029.043.029.087.072.159.101.246.029.087.072.159.101.231.029.072.058.13.101.202l.029.058c.029.072.072.13.101.202.087.145.159.289.246.419.043.058.072.115.116.173.087.13.188.275.304.39.043.058.101.116.145.173a.798.798 0 0 0 .159.159c.101.116.217.217.332.304l.173.145.173.13.173.13c.058.043.145.101.231.145.043.029.101.058.159.087.058.029.13.072.202.101.072.029.13.072.202.101.072.029.116.058.173.072l.101.043c.202.087.419.145.636.202l.173.043c.318.072.65.13.983.159.087 0 .173.014.26.014s.173.014.26.014h.26c3.744 0 5.667-2.385 5.768-7.155v-.911c-2.197 3.715-7.604 2.588-8.052 2.53a10.267 10.267 0 0 1-8.023-8.962c0-.043-.014-.101-.014-.145a12.927 12.927 0 0 1-.043-1.07v-9.974c0-.246.188-.434.434-.434h3.469c.246 0 .434.188.434.434v8.933c-.014.173-.014.679 0 1.156.014.347.029.665.058.838a6.686 6.686 0 0 0 1.489 3.281c1.055 1.258 2.472 1.894 4.25 1.894.13 0 .246 0 .361-.014 1.619-.072 2.935-.679 3.975-1.821.058-.058.116-.13.159-.188.969-1.142 1.46-2.544 1.489-4.207V28.87c0-.246.188-.434.434-.434l3.518.036zm-29.576.029v2.645h4.987c.246 0 .434.188.434.434v2.616a.426.426 0 0 1-.434.434h-4.987v14.181a.426.426 0 0 1-.434.434h-3.469a.426.426 0 0 1-.434-.434V28.616c0-2.212.694-3.946 2.067-5.204 1.373-1.243 2.963-1.908 5.103-1.951h3.513a.435.435 0 0 1 .376.651l-1.865 3.238a.432.432 0 0 1-.376.217h-1.272c-2.139-.001-3.209.982-3.209 2.934m-30.906 16.537c-.361 0-.708-.029-1.055-.087h-.029a5.036 5.036 0 0 1-2.92-1.72c-1.055-1.229-1.576-2.689-1.576-4.38a6.577 6.577 0 0 1 1.532-4.293 5.206 5.206 0 0 1 3.021-1.749 5.205 5.205 0 0 1 1.07-.072h.448a5.6 5.6 0 0 1 3.975 1.894c.058.058.116.13.159.188a6.313 6.313 0 0 1 1.46 3.585v.419c-.029 1.662-.535 3.065-1.489 4.207-.058.058-.101.13-.159.188-1.026 1.142-2.356 1.749-3.975 1.821h-.462zm6.072-16.133v2.255c-2.226-3.643-7.575-2.53-8.008-2.472-1.214.26-2.371.737-3.426 1.417l-.087.058a11.24 11.24 0 0 0-1.055.795l-.029.014a9.723 9.723 0 0 0-3.122 5.652 12.526 12.526 0 0 0-.217 2.327c0 2.833.882 5.218 2.631 7.127.217.231.434.448.665.65l.029.014c.332.289.679.549 1.055.795l.087.058a10.126 10.126 0 0 0 3.426 1.446c.448.058 5.84 1.185 8.052-2.53v.911a11.903 11.903 0 0 1-.506 3.339l-.087.26v.014c-.838 2.356-2.558 3.527-5.189 3.527h-.26c-.087 0-.173 0-.26-.014-.087-.014-.173-.014-.26-.014a7.405 7.405 0 0 1-.983-.159l-.173-.044a8.302 8.302 0 0 1-.636-.202l-.101-.043c-.058-.029-.116-.044-.173-.072-.058-.029-.13-.058-.203-.101a1.36 1.36 0 0 0-.202-.101c-.072-.029-.101-.058-.159-.087-.072-.044-.145-.087-.231-.145-.087-.058-.116-.087-.173-.13l-.174-.13a1.4 1.4 0 0 1-.173-.145c-.116-.101-.217-.202-.333-.304-.043-.058-.101-.101-.145-.159-.058-.058-.101-.116-.145-.174l-.303-.39c-.043-.058-.072-.116-.116-.173a4.11 4.11 0 0 1-.246-.419c-.029-.072-.072-.13-.101-.203l-.029-.058c-.029-.072-.072-.13-.101-.202-.029-.072-.072-.159-.101-.231-.029-.072-.072-.159-.101-.246 0-.015-.014-.029-.029-.044-.014-.014-.014-.029-.029-.043l-.029-.029c-.072-.043-.145-.058-.217-.014l-3.325 1.446-.029.014-.058.029c-.029.015-.043.029-.058.043-.014 0-.014.014-.029.029-.015.015-.015.015-.015.029-.043.058-.043.145-.029.217.044.13.101.246.159.361.058.116.101.231.159.347l.015.014c.058.116.116.217.159.318s.116.217.188.332c.058.116.13.217.188.318.058.101.13.217.203.304.072.087.145.202.217.304.072.101.159.217.246.318s.145.173.217.26c.072.087.159.188.246.275l.26.26c.058.058.116.116.173.159.058.043.087.087.13.116.072.072.159.13.231.203.072.072.159.13.246.202l.015.015a.777.777 0 0 0 .116.087.777.777 0 0 0 .116.087c.043.029.087.072.145.101.087.058.174.13.275.188 1.735 1.113 3.744 1.677 6.028 1.677h.694c.116 0 .246-.014.361-.029l.173-.014.145-.015c.087-.014.173-.014.26-.029l.246-.029.145-.015.289-.058c.101-.015.188-.044.289-.058l.072-.014c.101-.029.188-.044.289-.072l.159-.044.072-.029.087-.029.217-.072c.173-.058.347-.115.521-.188l.173-.072a9.444 9.444 0 0 0 1.46-.766l.145-.101c.072-.044.145-.087.202-.145.13-.101.275-.203.405-.304.072-.058.13-.101.188-.159.058-.058.13-.116.188-.159l.188-.173c.058-.058.13-.116.188-.174l.173-.173c.058-.058.116-.116.159-.173 0-.014.014-.014.029-.029.116-.116.217-.246.318-.376.058-.072.101-.13.159-.202a9.985 9.985 0 0 0 1.749-3.845c.014-.087.043-.159.058-.246 0-.029.014-.043.014-.072v-.029c.014-.087.029-.159.043-.246a.704.704 0 0 0 .029-.173c.029-.116.043-.246.058-.361.043-.26.072-.506.101-.781.015-.087.015-.159.029-.246.029-.376.058-.752.072-1.156V28.905a.426.426 0 0 0-.434-.434h-3.513c-.22.001-.408.203-.422.434zm10.639-7.444h3.469c.246 0 .434.188.434.434v3.469a.426.426 0 0 1-.434.434h-3.469a.426.426 0 0 1-.434-.434v-3.469c0-.232.202-.434.434-.434m-49.684 17.13v.159c-.029 1.662-.535 3.05-1.489 4.207-.058.058-.101.13-.159.188-1.026 1.142-2.298 1.807-3.903 1.879h-.564a5.876 5.876 0 0 1-1.012-.145h-.043a5.036 5.036 0 0 1-2.92-1.72c-1.041-1.229-1.561-2.689-1.561-4.394 0-1.561.564-3.065 1.605-4.221a5.036 5.036 0 0 1 2.92-1.72h.029a6.473 6.473 0 0 1 1.055-.087h.087c.116 0 .246 0 .361.014 1.619.072 2.934.679 3.975 1.821.058.058.116.13.159.188a6.31 6.31 0 0 1 1.46 3.585v.246zm4.38-9.642a.484.484 0 0 0-.434-.477h-3.513a.426.426 0 0 0-.434.434v2.255c-2.226-3.643-7.575-2.53-8.008-2.472-1.214.26-2.371.737-3.426 1.417l-.087.058a11.24 11.24 0 0 0-1.055.795l-.029.014a9.73 9.73 0 0 0-3.122 5.652 12.526 12.526 0 0 0-.217 2.327c0 2.833.882 5.218 2.631 7.127.217.231.434.448.665.65l.029.014c.332.289.679.549 1.055.795l.087.058a10.57 10.57 0 0 0 3.426 1.446c.448.058 5.84 1.185 8.052-2.53l-.014 2.313c0 .246.188.434.434.434h3.513a.426.426 0 0 0 .434-.434v-9.801l.013-10.075z" style="fill-rule:evenodd;clip-rule:evenodd;fill:#262626"/></svg>