<svg xmlns="http://www.w3.org/2000/svg" xml:space="preserve" id="Layer_1" x="0" y="0" style="enable-background:new 0 0 200 80" version="1.1" viewBox="0 0 200 80"><style>.st0{display:none}.st1{fill-rule:evenodd;clip-rule:evenodd;fill:#e1251b}.st1,.st2,.st4{display:inline}.st2{fill:#273896;stroke:#273896;stroke-width:.0938;stroke-miterlimit:10}.st4{fill:#231f20}.st16,.st6,.st7{display:inline;fill:#005ea5}.st16,.st7{fill:#009bdd}.st16{fill-rule:evenodd;clip-rule:evenodd;fill:#004679}.st18{fill:#1c2e3d}</style><path d="M12.378 22.881c2.823-.019 5.142 1.101 7.075 3.114.772.803.802.807 1.568.003 1.54-1.615 3.373-2.697 5.591-3.032 5.03-.759 9.261 2.207 10.563 6.417 1.158 3.744.289 7.047-2.489 9.832-1.016 1.019-.999 1.003.018 2.01 2.803 2.778 3.654 6.115 2.445 9.831-1.154 3.545-3.721 5.699-7.395 6.35-3.346.592-6.216-.487-8.614-2.87-.905-.9-.916-.897-1.792-.011-2.057 2.082-4.538 3.151-7.472 3.019-4.655-.209-8.279-3.671-8.918-7.967-.492-3.311.496-6.144 2.93-8.466.924-.881.923-.901-.002-1.797-2.042-1.978-3.078-4.362-3.052-7.223.04-4.384 3.301-8.24 7.715-9.082.607-.114 1.214-.121 1.829-.128zm.414 33.431c1.706-.019 3.644-.728 5.224-2.264 1.989-1.933 3.926-3.92 5.905-5.863.321-.315.277-.479-.017-.768-1.72-1.689-3.415-3.402-5.131-5.094-.403-.398-.758-1.119-1.247-1.085-.51.036-.846.759-1.292 1.145-.251.217-.222.39.003.613a384.948 384.948 0 0 1 4.275 4.298c.168.173.53.415.269.703-.189.208-.336.448-.541.648a129.48 129.48 0 0 0-3.313 3.316c-1.449 1.52-3.193 2.267-5.289 2.05-2.413-.25-4.095-1.575-4.941-3.807-.892-2.353-.417-4.543 1.342-6.351 2.535-2.604 5.134-5.147 7.704-7.717 1.179-1.179 1.172-1.173-.053-2.32-.274-.257-.449-.309-.745-.012-2.844 2.863-5.746 5.671-8.542 8.581-1.767 1.839-2.516 4.119-2.213 6.68.497 4.192 3.918 7.232 8.602 7.247zm-6.51-24.059c.045-.352.06-.816.167-1.258.994-4.107 5.595-5.945 9.172-3.676.962.61 1.703 1.466 2.489 2.267 2.197 2.237 4.53 4.339 6.658 6.647.62.673.649.645 1.306-.011.176-.176.343-.364.539-.516.35-.271.353-.471.018-.801a1196.092 1196.092 0 0 1-8.216-8.184c-1.89-1.902-4.135-2.787-6.828-2.589-3.727.274-7.311 3.367-7.466 7.799-.095 2.703 1 4.931 2.918 6.793.639.621.628.632 1.24.004.965-.99.979-1.006-.046-1.981-1.261-1.199-1.864-2.673-1.951-4.494zm21.679-8.109c-.517-.028-1.136.079-1.757.198-2.055.396-3.481 1.746-4.863 3.169-.143.147-.121.26.011.387.44.423.821 1.065 1.337 1.201.397.105.75-.657 1.155-.998.073-.062.138-.132.208-.197 1.401-1.283 3.078-1.801 4.923-1.523 2.359.354 4.066 1.669 4.83 3.961.761 2.283.259 4.38-1.349 6.165-.869.965-1.828 1.849-2.748 2.768-1.895 1.892-3.784 3.789-5.692 5.668-.317.313-.358.531 0 .824.28.23.539.491.773.767.284.336.492.288.788-.007 2.733-2.73 5.506-5.42 8.212-8.176 2.085-2.123 2.988-4.703 2.408-7.654-.777-3.952-4.074-6.561-8.236-6.553zM7.533 48.243c.076 1.719.887 3.169 2.553 4.034 1.723.894 3.452.76 5.03-.37 1.499-1.074 2.645-2.538 3.986-3.789.272-.254.119-.421-.075-.612a738.65 738.65 0 0 1-2.809-2.789c-1.17-1.168-1.157-1.157-2.322-.007-.327.323-.321.519.007.825.643.599 1.252 1.236 1.871 1.861.239.241.37.499.073.792-.625.619-1.216 1.279-1.884 1.847-.808.686-1.751.835-2.73.364-.952-.458-1.411-1.228-1.41-2.296.001-.92.459-1.587 1.077-2.194 2.687-2.636 5.371-5.275 8.052-7.916.304-.299.447-.599-.005-.931a4.147 4.147 0 0 1-.771-.767c-.297-.373-.5-.3-.808.009-2.806 2.819-5.632 5.619-8.443 8.434-.919.92-1.367 2.051-1.392 3.505zm20.653-20.654c-1.612 0-3.627 1.079-4.458 2.367-.12.186-.041.275.071.387.365.365.736.725 1.092 1.098.202.211.37.223.574.002.285-.309.581-.609.887-.897 1.064-.998 2.685-.972 3.665.034.76.78 1.034 2.524-.099 3.602-2.59 2.464-5.085 5.027-7.61 7.559-.373.374-1.036.698-1.014 1.165.022.455.692.758 1.034 1.165.293.348.494.336.821.008 2.789-2.808 5.597-5.597 8.399-8.393 1.336-1.333 1.751-3.414 1.028-5.142-.762-1.82-2.447-2.955-4.39-2.955zM9.83 32.332c.012-.266.009-.529.092-.792.599-1.908 2.895-2.373 4.392-.879 2.531 2.525 5.059 5.054 7.586 7.584 1.068 1.07 1.066 1.072 2.116.032.041-.04.079-.085.124-.119.354-.267.391-.52.01-.812-.241-.185-.441-.423-.657-.639-2.596-2.595-5.174-5.21-7.796-7.779-1.32-1.293-2.945-1.673-4.715-1.154-1.731.507-2.861 1.682-3.265 3.441-.435 1.892.198 3.489 1.564 4.827.843.825.854.844 1.657.017.801-.824.97-.614-.001-1.551-.624-.604-1.114-1.259-1.107-2.176zm26.561 15.744c.052-2.852-1.351-4.98-3.379-6.8-.183-.164-.292-.092-.429.048-.348.355-.693.715-1.062 1.049-.237.214-.191.361.019.555.323.298.63.615.936.931 2.063 2.129 2.306 5.42.551 7.778-1.241 1.667-2.951 2.481-5.004 2.429-1.863-.047-3.413-.871-4.684-2.238-.621-.668-.641-.649-1.277-.01-.922.927-.925.93.014 1.854 2.089 2.053 4.604 2.909 7.489 2.483 3.948-.585 6.829-4.046 6.826-8.079zm-8.246 4.783c.303-.039.607-.065.908-.117 2.325-.403 4.045-2.599 3.811-5.022-.161-1.666-1.151-2.826-2.282-3.915-.139-.134-.276-.218-.437-.043-.412.448-1.087.776-1.196 1.339-.079.411.605.712.92 1.088.073.088.172.155.242.245.463.597.722 1.26.586 2.025-.175.98-.704 1.695-1.672 1.999-1.013.318-1.927.078-2.713-.628a12.94 12.94 0 0 1-.812-.811c-.205-.22-.382-.281-.616-.031-.353.377-.727.734-1.094 1.097-.119.118-.198.224-.051.386 1.187 1.312 2.523 2.348 4.406 2.388zm1.332-4.789c-.016-.077-.029-.172-.055-.263-.227-.785-.903-1.209-1.43-1.749-.166-.17-.271.047-.365.143-.442.448-.873.908-1.312 1.359-.132.136-.231.265-.054.434.415.394.806.817 1.251 1.174.392.314.851.3 1.291.048.434-.249.635-.639.674-1.146zm-.003-15.797c-.074-.392-.198-.78-.602-1.021-.644-.385-1.233-.252-1.927.452-.877.89-.877.89.008 1.774.943.941.937.935 1.888.006.339-.332.598-.69.633-1.211zm-17.175-1.268c-.146.037-.297.06-.436.115-.681.27-.995.962-.71 1.633.285.671.818 1.231 1.418 1.508.353.163.718-.558 1.066-.888.807-.764.795-.777.002-1.581-.373-.378-.706-.826-1.34-.787zm.047 18.397c.058-.012.172-.025.28-.059.737-.232 1.136-.874 1.652-1.374a.182.182 0 0 0 .005-.262c-.539-.539-1.009-1.23-1.66-1.541-.331-.158-.744.645-1.145.986a1.337 1.337 0 0 0-.286.353c-.468.83.144 1.881 1.154 1.897zm7.875-10.917c-.047.031-.119.063-.171.114-.463.452-.922.909-1.384 1.362-.22.216-.079.366.081.523.42.415.852.819 1.248 1.255.24.264.388.19.593-.028a21.92 21.92 0 0 1 1.172-1.17c.242-.223.31-.382.027-.635-.425-.38-.813-.801-1.218-1.204-.094-.093-.176-.206-.348-.217z" style="fill:#6ec4d2"/><path d="M43.344 38.862c.213-.656.404-1.32.643-1.967 2.036-5.507 9.759-7.078 13.467-2.743.092.108.181.218.265.332 1.133 1.526.946 2.019-.89 2.466-.328.08-.395-.084-.487-.294-1.058-2.411-3.514-3.118-5.92-2.704-2.284.394-4.088 2.319-4.512 4.732-.318 1.808-.163 3.552.735 5.186 2.013 3.663 7.37 3.845 9.565.299.323-.522.563-.423.991-.243 1.562.655 1.592.66.552 2.01-2.02 2.622-4.777 3.355-7.88 2.742-3.229-.638-5.273-2.679-6.181-5.85-.103-.361-.017-.788-.349-1.075l.001-2.891zM144.931 40.587c1.275 0 2.552.028 3.826-.013.59-.019.773.151.769.756-.037 4.681-3.448 7.857-8.136 7.54-4.302-.291-7.335-3.365-7.774-7.881-.414-4.249 2.096-7.95 6.112-9.014 3.601-.954 7.345.491 8.917 3.404.322.596.36.97-.405 1.118a.483.483 0 0 0-.155.067c-.777.451-1.222.397-1.776-.519-1.783-2.951-6.65-2.964-8.965-.124-2.073 2.543-1.786 7.087.59 9.338 2.16 2.046 6.017 1.989 8.012-.118a4.3 4.3 0 0 0 .9-1.422c.375-.971.343-1.021-.716-1.021-1.644 0-3.288-.019-4.931.011-.524.009-.741-.085-.729-.683.028-1.437-.008-1.438 1.402-1.438l3.059-.001zM186.11 38.802c1.128-1.356 2.498-1.828 4.073-1.717 3.377.236 4.886 3.038 4.746 6.276a7.492 7.492 0 0 1-.332 1.832c-1.257 4.125-6.139 4.602-8.496 2.026v4.33c0 1.365-.002 1.329-1.409 1.37-.635.018-.801-.15-.797-.794.03-4.674.029-9.348 0-14.021-.004-.629.136-.816.783-.791 1.308.049 1.309.008 1.432 1.489zm6.482 4.11c0-.254.022-.511-.004-.763-.168-1.632-1.296-2.874-2.791-3.086-1.48-.21-2.887.662-3.43 2.187-.444 1.248-.405 2.515.147 3.721.918 2.005 3.534 2.506 5.039.971.817-.833 1.113-1.878 1.039-3.03zM73.876 43.545c-1.19-.001-2.381.012-3.571-.008-.419-.007-.628.058-.541.559.227 1.308 1.21 2.399 2.503 2.712 1.383.334 2.746-.143 3.494-1.304.257-.399.447-.437.867-.267 1.507.612 1.569.714.443 1.926-1.565 1.684-3.531 2.066-5.678 1.452-2.241-.641-3.494-2.242-3.864-4.49-.49-2.973.74-5.529 3.099-6.647 3.269-1.549 6.911.384 7.443 3.951.316 2.117.316 2.117-1.814 2.117l-2.381-.001zm-1.039-1.792c.819 0 1.64-.03 2.458.011.547.027.603-.181.489-.642-.332-1.343-1.43-2.16-2.956-2.164-1.396-.004-2.655.967-2.937 2.229-.101.455.017.596.488.575.819-.035 1.639-.01 2.458-.009zM123.151 43.547c-1.191 0-2.382.02-3.572-.01-.507-.013-.632.142-.545.639a3.333 3.333 0 0 0 2.473 2.632c1.365.326 2.692-.149 3.472-1.223.142-.195.151-.624.576-.445.513.216 1.111.3 1.5.712.169.179-.125.462-.259.665-1.153 1.758-2.851 2.475-4.878 2.334-2.167-.151-3.823-1.197-4.711-3.237-.732-1.68-.763-3.418-.108-5.129.946-2.472 3.322-3.846 5.881-3.457 2.595.395 4.256 2.316 4.428 5.128.016.254-.016.512.013.764.054.475-.123.647-.613.635-1.218-.027-2.438-.008-3.657-.008zm-1.169-1.796c.819 0 1.642-.047 2.456.015.671.051.681-.249.556-.742-.328-1.3-1.534-2.129-3.022-2.065-1.402.06-2.653 1.083-2.877 2.323-.07.388.055.487.429.476.819-.023 1.639-.007 2.458-.007zM88.115 47.104c-1.511 1.843-3.34 2.088-5.299 1.366-2.179-.804-3.122-2.605-3.376-4.797-.188-1.622.117-3.16 1.089-4.519 1.797-2.512 4.976-2.813 7.57-.665 0-.207.023-.372-.004-.527-.094-.541.142-.649.652-.645 1.568.01 1.552-.013 1.571 1.517.038 3.087-.108 6.176.088 9.262.017.262.002.444-.33.436a21.785 21.785 0 0 0-1.446.004c-.314.013-.379-.157-.399-.411-.022-.28-.062-.559-.116-1.021zm.013-4.357c-.008-.159-.009-.414-.037-.667-.166-1.481-1.053-2.63-2.288-2.973a3.137 3.137 0 0 0-3.34 1.104c-1.133 1.485-1.053 4.229.195 5.626.803.9 1.83 1.208 3 .912 1.544-.392 2.467-1.877 2.47-4.002zM170.301 42.895c.009 3.447-2.388 5.962-5.696 5.976-3.364.014-5.793-2.485-5.799-5.969-.006-3.427 2.407-5.91 5.746-5.912 3.348-.002 5.74 2.455 5.749 5.905zm-9.19-.029c-.007 3.084 2.656 4.976 5.083 3.588 1.309-.749 1.786-1.979 1.803-3.435.017-1.474-.396-2.738-1.707-3.572a2.85 2.85 0 0 0-.536-.251c-2.406-.9-4.637.865-4.643 3.67zM179.376 47.442c-1.425 1.425-3.018 1.761-4.762 1.163-1.842-.632-2.626-2.104-2.686-3.938-.074-2.265-.012-4.534-.027-6.802-.002-.389.095-.53.518-.548 1.717-.077 1.717-.094 1.717 1.642 0 1.701-.032 3.402.01 5.102.045 1.853.909 2.802 2.47 2.819 1.662.018 2.648-1.006 2.667-2.827.021-2.012.024-4.025-.009-6.037-.009-.55.134-.71.697-.702 1.539.023 1.532-.005 1.539 1.563.014 3.06.026 6.121.071 9.181.006.4-.102.505-.459.475a2.288 2.288 0 0 0-.51.001c-.762.111-1.351.005-1.236-1.092zM105.13 37.363c2.457-.12 2.457-.12 3.272 2.068.719 1.93 1.439 3.86 2.154 5.792.059.159.081.332.296.445.937-2.509 1.895-5.004 2.788-7.522.226-.635.507-.925 1.199-.829.471.066.959.013 1.536.013-.587 1.47-1.148 2.878-1.712 4.284-.84 2.095-1.699 4.184-2.509 6.29-.179.464-.374.651-.896.643-1.618-.025-1.614 0-2.214-1.482-1.186-2.93-2.378-5.857-3.566-8.786-.115-.285-.218-.574-.348-.916zM94.138 42.841c-.001-.963-.025-1.926.009-2.887.017-.484-.142-.679-.62-.609-.083.012-.17.002-.255.002-1.298-.004-1.263-.005-1.303-1.281-.019-.586.128-.756.73-.756 1.001.001 1.541-.589 1.606-1.594.018-.282.042-.572-.003-.848-.142-.884.197-1.151 1.09-1.116.736.029 1.124.151.977.968-.035.192-.01.396-.005.594.018.645-.191 1.463.125 1.887.302.404 1.167.118 1.783.12.401.001.521.119.537.528.059 1.498.075 1.546-1.441 1.478-.801-.036-1.071.15-1.027.998.079 1.525.014 3.056.024 4.585.009 1.338.413 1.715 1.742 1.686.294-.006.802-.228.672.376-.116.539.537 1.388-.546 1.582-2.606.469-4.092-.778-4.094-3.42l-.001-2.293zM154.035 38.881c.823-1.187 1.889-1.789 3.307-1.734.467.018.698.138.63.629-.008.056-.002.113-.001.17.015 1.47.015 1.47-1.393 1.591-1.627.14-2.586 1.246-2.61 3.073a146.35 146.35 0 0 0 .01 5.175c.013.576-.118.776-.734.763-1.524-.032-1.525.001-1.525-1.496 0-2.998.016-5.995-.016-8.993-.006-.593.144-.762.742-.745 1.353.037 1.354.003 1.59 1.567zM62.912 39.007c.888-1.368 2.015-1.917 3.459-1.854.386.017.594.121.551.537-.009.084-.002.17-.001.255.019 1.478.019 1.478-1.393 1.591-1.587.127-2.579 1.24-2.605 2.99-.026 1.754-.03 3.51.007 5.264.012.579-.124.774-.737.761-1.521-.032-1.521.001-1.521-1.501 0-3 .019-6-.016-9-.007-.612.173-.75.756-.734 1.331.036 1.332.004 1.5 1.691zM103.448 42.94c0 1.612-.022 3.224.013 4.835.012.565-.104.785-.73.772-1.5-.032-1.501.003-1.501-1.527 0-2.969.02-5.939-.015-8.908-.007-.626.136-.82.786-.8 1.444.044 1.446.006 1.446 1.47l.001 4.158zM102.322 33.392c.748-.01 1.303.51 1.332 1.249.031.77-.53 1.337-1.318 1.332-.734-.005-1.302-.562-1.302-1.277a1.3 1.3 0 0 1 1.288-1.304zM197.474 36.891c-.375.077-.5.037-.606-.071-.712-.729-.712-.728-1.109.324-.294-.847-.304-1.605-.097-2.226.108-.324.863-.201 1.309-.015.369.154.546.541.294.82-.409.452-.227.78.209 1.168zm-.553-1.424c-.054-.24-.233-.315-.481-.317-.233-.001-.443-.017-.447.319-.003.252.089.35.337.332.242-.018.513.036.591-.334zM194.629 34.946c-.208.739-.296 1.469.216 2.153-.726-.623-.781-1.429-.198-2.138l-.018-.015zM194.648 34.961c-.052-.536.442-.594.633-.918l.168.147-.819.756.018.015zM196.565 37.865l1.08-.407c-.348.442-.682.506-1.08.407zM196.522 33.82c.435-.037.755.074 1.149.462-.479-.151-.827-.184-1.149-.462zM198.06 36.965l.334-.902c.171.489-.098.689-.334.902zM198.021 34.792c.336.263.336.263.42.84-.254-.274-.312-.571-.401-.853l-.019.013zM198.013 37.292c-.081.058-.159.14-.252.168-.044.013-.129-.081-.039-.157.074-.062.157-.112.237-.167l.054.156z" class="st18"/><path d="M198.041 34.779c-.103-.08-.214-.153-.305-.244-.043-.044-.049-.125-.109-.293.27.176.511.232.394.551l.02-.014z" class="st18"/></svg>