<svg xmlns="http://www.w3.org/2000/svg" xml:space="preserve" id="Layer_1" x="0" y="0" style="enable-background:new 0 0 200 80" version="1.1" viewBox="0 0 200 80"><style>.st0{display:none}.st1{fill-rule:evenodd;clip-rule:evenodd;fill:#e1251b}.st1,.st2,.st4{display:inline}.st2{fill:#273896;stroke:#273896;stroke-width:.0938;stroke-miterlimit:10}.st4{fill:#231f20}.st16,.st6,.st7{display:inline;fill:#005ea5}.st16,.st7{fill:#009bdd}.st16{fill-rule:evenodd;clip-rule:evenodd;fill:#004679}.st17{fill:#3315af}</style><g id="Group_1568" transform="translate(-200.09 -300.82)"><path id="Path_3997" d="M356.033 353.26c0 6.278 4.114 9.588 11.623 9.588 7.357 0 11.274-3.372 11.274-10.206v-2.681a10.296 10.296 0 0 0-5.109-9.802l-7.475-5.182a4.59 4.59 0 0 1-2.433-4.266c0-2.079.708-3.743 3.44-3.743 2.962 0 3.44 1.765 3.44 3.771v2.288a.68.68 0 0 0 .674.68h6.351a.68.68 0 0 0 .68-.68v-3.344c0-7.351-5.199-9.762-10.791-9.762-8.256 0-11.679 3.811-11.679 10.476a10.46 10.46 0 0 0 5.277 10.116l7.306 4.94a5.059 5.059 0 0 1 2.614 4.637v1.933c0 2.984-1.478 3.968-3.799 3.968-2.473 0-3.732-1.287-3.732-4.26v-4.53a.674.674 0 0 0-.669-.68h-6.305a.68.68 0 0 0-.674.68l-.013 6.059z" class="st17"/><path id="Path_3998" d="M316.771 351.687a3.501 3.501 0 0 1-3.973 3.872h-3.619v-12.095h3.619c2.81 0 3.973.961 3.973 3.872v4.351zm-7.593-24.431h3.086c2.81 0 3.973.961 3.973 3.872v1.585a3.501 3.501 0 0 1-3.973 3.872h-3.086v-9.329zm10.369 12.741v-.399a6.183 6.183 0 0 0 4.333-6.885v-3.754c0-6.154-3.102-8.571-10.015-8.571h-11.718a.674.674 0 0 0-.674.674v40.679a.674.674 0 0 0 .669.68H314.095c6.846 0 10.262-3.411 10.262-8.992v-5.957c0-4.895-1.585-6.272-4.811-7.48" class="st17"/><path id="Path_3999" d="m337.341 348.691 2.529-16.338h.393l2.293 16.338h-5.215zm14.775 12.814-7.087-40.466c-.107-.455-.399-.674-.972-.674h-8.054c-.562 0-.871.214-.972.674l-7.362 40.466c-.118.629.259.916.635.916h6.182a.758.758 0 0 0 .815-.68l1.023-6.182h7.12l.905 6.182a.759.759 0 0 0 .821.68h6.306c.371 0 .747-.292.635-.916" class="st17"/><path id="Path_4000" d="m249.121 354.991 3.26-3.26 3.26 3.26-3.26 3.265-3.26-3.265zm-3.682-10.206 3.26 3.26-3.26 3.26-3.26-3.26 3.26-3.26zm6.947-6.947 3.26 3.26-3.26 3.26-3.26-3.26 3.26-3.26zm10.206 10.207-3.26 3.26-3.26-3.26 3.265-3.26 3.255 3.26zm20.795-14.371-2.726-2.726a.68.68 0 0 0-.961 0l-13.41 13.41-3.26-3.26 13.415-13.415a.681.681 0 0 0 0-.956l-2.726-2.726a.674.674 0 0 0-.954-.007l-.007.007-13.41 13.41-3.26-3.26 13.415-13.415a.681.681 0 0 0 0-.956l-2.731-2.726a.674.674 0 0 0-.954-.007l-.007.007-13.41 13.41-13.415-13.415a.68.68 0 0 0-.955 0l-2.726 2.726a.674.674 0 0 0-.007.954l.007.007 13.41 13.41-3.26 3.26-13.415-13.415a.674.674 0 0 0-.954-.002l-.002.002-2.726 2.726a.674.674 0 0 0-.007.954l.007.007 13.41 13.41-3.26 3.26-13.415-13.415a.68.68 0 0 0-.955 0l-2.726 2.726a.674.674 0 0 0-.007.954l.007.007 29.596 29.59a1.962 1.962 0 0 0 2.774.008l.008-.008 29.596-29.59a.68.68 0 0 0 0-.961" class="st17"/></g></svg>