<svg xmlns="http://www.w3.org/2000/svg" xml:space="preserve" id="Layer_1" x="0" y="0" style="enable-background:new 0 0 200 80" version="1.1" viewBox="0 0 200 80"><style>.st32{fill:#273896;stroke:#273896;stroke-width:9.380000e-02;stroke-miterlimit:10}</style><path d="m173.3 8.7 3.9-8.1c.4 2.8.7 5.5 1.1 8.2 2.6-.9 5.2-1.9 7.9-2.7-1.9 2.3-3.7 4.7-5.5 7 2 1.6 4 3.1 5.9 4.6-2.6.3-5.3.4-7.9.6-.1 2.8-.3 5.6-.4 8.5-1.5-2-2.9-4.1-4.4-6.2-2.2 2-4.4 4-6.6 6.1.8-2.9 1.7-5.8 2.5-8.6-2.6-.3-5.1-.7-7.7-1 2.5-1.4 5-2.8 7.5-4.3-1-2.5-2.1-4.9-3.1-7.3 2.2 1.1 4.5 2.1 6.8 3.2z" class="st32"/><path d="M148.6 45.7c6.7-5.8 12.8-12.3 18.5-19-2.6 8.9-7.6 17.1-14.4 23.4-1.6 1.3-3.1 2.8-4.9 3.9-5.9 4-12.8 6.5-19.8 6.6l.2-.1c5.6-3.3 11-6.9 16-11 1.5-1.2 3.1-2.4 4.4-3.8z" style="fill:#ec1c25;stroke:#ec1c25;stroke-width:9.380000e-02;stroke-miterlimit:10"/><path d="M15.9 36.7c2.9-.8 6-1.1 9-1.1 3.4 0 6.7.2 10 .8-.5 1.3-1 2.5-1.4 3.8-4.8-.3-9.7-.7-14.4.4-1.4.4-3.3 1-3.7 2.7-.1 1.3 1.1 2 2.2 2.3 3.4.9 7 .8 10.2 2.3 1.5.7 2.8 2 3 3.6.4 2.6-.3 5.4-2.1 7.4-2.1 2.2-5.1 3.2-8.1 3.8-6 1-12.3.4-18.1-1 .3-1.3.7-2.7 1-4 5.2.5 10.4 1.3 15.5.3 1.9-.4 4.1-1.4 4.4-3.6.4-1.4-.9-2.5-2.1-2.9-3.2-1-6.7-.8-9.8-2-1.4-.5-2.7-1.4-3.2-2.8-1-2.5-.1-5.4 1.9-7.1 1.6-1.4 3.6-2.3 5.7-2.9zM134.4 35.6h6.3c2.6 3.5 5.3 6.8 8.2 9.9l-.2.2c-1.4 1.4-2.9 2.6-4.4 3.8-3.6-4.4-6.9-9.1-9.9-13.9zM98.2 24.7c-.7 3.5-1.4 7-2 10.5-5.6-.2-11.4-.6-16.5 1.8-4.3 1.8-7.8 5.6-9 10.1-1.2 3.7-1 8.1 1.4 11.3 2.4 3 6.3 4.3 10 4.4 4.2.2 8.7-.4 12.1-3 3.2-2.4 5-6.3 5.8-10.1 1.6-8.5 3.2-16.9 4.8-25.4-2.2 0-4.4.2-6.6.4zM93 49.9c-.4 2.1-1.2 4.3-2.8 5.8-2 1.9-5 2.3-7.7 2-1.8-.2-3.8-1-4.7-2.8-1.1-2-.7-4.4-.2-6.5.7-3 2.6-5.8 5.4-7.2 3.7-1.9 8-1.9 12.1-1.4-.8 3.3-1.4 6.7-2.1 10.1zM131.1 37.7c-2.2-1.9-5.3-2.3-8.1-2.4-5.3-.1-10.9 1.4-14.8 5.2-3.1 2.8-4.9 6.9-5.1 11-.2 2.6.4 5.3 2.1 7.3 2 2.7 5.3 4.1 8.5 4.6 4.9.8 10.2 0 14.4-2.8l.2-.1c-4.8.5-10 .6-14.4-1.7-2.8-1.5-4.1-4.8-3.8-7.9 5.5 1 11.4 1.2 16.7-.8 2.2-.9 4.4-2.3 5.6-4.5 1.2-2.6.9-6-1.3-7.9zm-7.8 8.8c-4 1.3-8.2 1-12.3.3 1.2-2.7 3.2-5 5.8-6.2 2.3-1 4.9-1.4 7.4-.8 1.2.3 2.2 1.3 2.3 2.5.3 2-1.5 3.6-3.2 4.2zM67.1 44.1c-.4-2.8-2.2-5.4-4.6-6.8-3.3-2-7.4-2.2-11.1-1.8-5 .5-10 2.8-13.3 6.8-2.6 3.2-4.1 7.5-3.6 11.6.3 2.9 2.1 5.6 4.6 7.1 3.3 2 7.2 2.2 10.9 2 5.6-.5 11.2-3.2 14.4-7.9 2-3.2 3.2-7.2 2.7-11zm-7.3 3.3c-.3 2.4-1.2 4.7-2.7 6.6-2.1 2.7-5.5 4.3-8.9 4.2-1.8 0-3.8-.5-5.1-1.8-.9-1-1.4-2.3-1.4-3.6-.2-5.5 3.4-11.3 9-12.5 2.4-.6 5.2-.3 7.2 1.3 1.6 1.4 2.2 3.7 1.9 5.8zM197.2 43.8c-.5-3.1-2.8-5.8-5.6-7.1-3.6-1.7-7.7-1.8-11.5-1.3-5.6.8-11 4.1-13.9 9-1.8 3.2-2.7 6.9-2 10.5.6 2.9 2.7 5.4 5.4 6.7 3.5 1.7 7.5 1.8 11.3 1.3 5.4-.8 10.7-3.7 13.6-8.3 2.2-3 3.3-7 2.7-10.8zm-14.5 13.8c-2.5 1-5.5 1.2-8 .2-1.8-.7-3-2.4-3.2-4.3-.5-5.8 3.3-12 9.2-13.2 2.3-.5 4.9-.4 6.9 1 1.5 1.1 2.3 3 2.3 4.9.1 4.7-2.7 9.5-7.2 11.4zM147.9 54c1.8-1.1 3.3-2.6 4.9-3.9 3.9 4.3 7.9 8.6 11.9 12.8-2.8-.1-5.6 0-8.4 0-.7-.4-1.2-1.1-1.8-1.7-2.3-2.3-4.5-4.7-6.6-7.2z" class="st32"/></svg>