<svg xmlns="http://www.w3.org/2000/svg" xml:space="preserve" id="Layer_1" x="0" y="0" style="enable-background:new 0 0 200 80" version="1.1" viewBox="0 0 200 80"><style>.st0{display:none}.st1,.st2{display:inline}.st1{fill-rule:evenodd;clip-rule:evenodd;fill:#e1251b}.st2{fill:#273896;stroke:#273896;stroke-width:.0938;stroke-miterlimit:10}.st4,.st6,.st7{display:inline;fill:#231f20}.st6,.st7{fill:#005ea5}.st7{fill:#009bdd}.st16,.st17{fill-rule:evenodd;clip-rule:evenodd}.st16{display:inline;fill:#004679}.st17{fill:#fd4646}</style><g id="Group_1518" transform="translate(-187.659 -262.101)"><path id="Path_4021" d="M340.759 316.188H223.082l-4.856 11.806h113.937a5.395 5.395 0 0 0 4.856-2.698l3.74-9.108z" class="st17"/><path id="Path_4022" d="m301.057 295.123-4.112 10.031-9.95-.032 4.101-9.998h9.961z" class="st17"/><path id="Path_4023" d="M245.032 287.995h-10.419l3.777-8.952a5.093 5.093 0 0 1 4.29-2.806l53.084-.032-4.856 11.79H257.4l-9.081 22.16a5.721 5.721 0 0 1-5.013 2.817h-8.547l10.273-24.977z" class="st17"/><path id="Path_4024" d="M296.19 312.967h8.693a5.152 5.152 0 0 0 4.856-2.817l9.081-22.16h33.454l4.818-11.757h-55.037a5.11 5.11 0 0 0-4.317 2.817l-3.777 8.941h12.41l-10.181 24.976z" class="st17"/><path id="Path_4025" d="M289.877 290.596h-11.984l-.664 1.619c-.07.14-.378.593-1.241.237a14.51 14.51 0 0 0-7.014-1.856c-3.901 0-9.275 1.263-12.95 10.414-3.675 9.151 3.34 12.081 5.299 12.41a13.063 13.063 0 0 0 7.705-1.203l-.308.755h11.984l9.173-22.371v-.005zm-17.267 5.396h1.462a1.08 1.08 0 0 1 1.025 1.651l-3.092 7.43a2.8 2.8 0 0 1-2.385 1.619h-1.462a1.08 1.08 0 0 1-1.025-1.651l3.092-7.43a2.802 2.802 0 0 1 2.379-1.603l.006-.016z" class="st17"/><path id="Path_4026" d="M351.248 290.596h-11.984l-.664 1.619c-.07.14-.378.588-1.241.237a14.51 14.51 0 0 0-7.014-1.856c-3.901 0-9.275 1.263-12.95 10.414s3.34 12.081 5.299 12.41a13.048 13.048 0 0 0 7.705-1.203l-.308.755h11.984l9.173-22.371v-.005zm-17.267 5.396h1.462a1.08 1.08 0 0 1 1.025 1.651l-3.092 7.43a2.807 2.807 0 0 1-2.385 1.619h-1.462a1.08 1.08 0 0 1-1.025-1.651l3.092-7.43a2.797 2.797 0 0 1 2.38-1.603l.005-.016z" class="st17"/></g></svg>