<svg xmlns="http://www.w3.org/2000/svg" xml:space="preserve" id="Layer_1" x="0" y="0" style="enable-background:new 0 0 200 80" version="1.1" viewBox="0 0 200 80"><style>.st0{fill:#e61b29}.st2{fill:#231f20}.st3{display:none}.st4{fill-rule:evenodd;clip-rule:evenodd;fill:#e1251b}.st4,.st5,.st7{display:inline}.st5{fill:#273896;stroke:#273896;stroke-width:9.380000e-02;stroke-miterlimit:10}.st7{fill:#231f20}.st10,.st19,.st9{display:inline;fill:#005ea5}.st10,.st19{fill:#009bdd}.st19{fill-rule:evenodd;clip-rule:evenodd;fill:#004679}</style><g id="XMLID_64_"><path id="XMLID_80_" d="M66.2 33.2h7.4l-3.7-6.8-3.7 6.8zm-.1-11h7.5l10.3 18.1h-6.4l-1.8-3.2H64l-1.7 3.2h-6.4"/><path id="XMLID_79_" d="M87.5 22.2h5.7v13.5h14.1v4.6H87.5"/><path id="XMLID_78_" d="M111.6 22.2h5.7v13.5h14.1v4.6h-19.8"/><path id="XMLID_77_" d="M135.7 22.2h5.8v18.1h-5.8z"/><path id="XMLID_76_" d="M147.8 22.2h21.4v4.2h-15.7v2.9h14v3.8h-14V36h16v4.3h-21.7"/><path id="XMLID_75_" d="M55.9 43.8h5.6L65.4 57h.1l4.7-13.2h5.3L80.2 57h.1l3.9-13.2h5.6l-6 18h-6.6l-4.3-11.9h-.1l-4.3 11.9h-6.6" class="st0"/><path id="XMLID_74_" d="M98.4 53.8c0 2.6.6 3.6 3.3 3.6h7.3c2.7 0 3.3-1 3.3-3.6v-1.9c0-2.2-.6-3.6-3.6-3.6H102c-3 0-3.6 1.4-3.6 3.6v1.9zm-5.9-3.7c0-5.3 3.1-6.5 8.2-6.5h9.1c5.1 0 8.2 1.2 8.2 6.5v5.3c0 5.3-3.1 6.5-8.2 6.5h-9.1c-5.1 0-8.2-1.2-8.2-6.5" class="st0"/><path id="XMLID_73_" d="M128.7 52.7h9.4c1.5 0 2.1-.6 2.1-1.9v-.6c0-1.6-.8-1.9-2.6-1.9h-8.9v4.4zm-5.7-8.9h17.2c4.4 0 5.6 2.1 5.6 5.3v1.1c0 2.4-.6 3.8-3.2 4.4 1.7.3 3.1 1 3.1 4v3H140v-2.2c0-1.9-.6-2.5-2.3-2.5h-9v4.7H123" class="st0"/><path id="XMLID_72_" d="M150.9 43.8h5.7v13.4h12.8v4.6h-18.5" class="st0"/><path id="XMLID_71_" d="M178.8 57.2h10.1c2.4 0 3.4-.7 3.4-3.2v-2.4c0-2.5-.9-3.2-3.4-3.2h-10.1v8.8zm-5.7-13.4h17.2c5.7 0 7.7 1.8 7.7 6.2v5.4c0 4.4-2 6.2-7.7 6.2h-17.2" class="st0"/><path id="XMLID_70_" d="M178.8 35.5h10.1c2.4 0 3.4-.7 3.4-3.2v-2.4c0-2.5-.9-3.2-3.4-3.2h-10.1v8.8zm-5.7-13.3h17.2c5.7 0 7.7 1.8 7.7 6.2v5.4c0 4.4-2 6.2-7.7 6.2h-17.2"/><path id="XMLID_69_" d="M51.1 57c0 3.5-2.8 6.4-6.4 6.4H8.3c-3.5 0-6.4-3-6.4-6.5V27c0-3.5 2.9-6.4 6.4-6.4h36.4c3.5 0 6.4 3 6.4 6.5" style="fill:#fff"/><path id="XMLID_68_" d="M9 61.8h35.3c2.9 0 5.2-2.8 5.3-5.5v-6.7L45 59.4h-7.7l.5-16.7h-.1l-6.8 16.7h-7.5L19.6 37c-6.5 2.9-15.7 9.9-16.1 18 0 0-.6 6.2 5.5 6.8" class="st0"/><path id="XMLID_67_" d="M49.6 38.6C44.8 35.7 39.2 34 33.1 34c-3 0-5.9.4-8.6 1.1l3.2 19 6.6-15.6h8.2L42 53.8" class="st0"/><path id="XMLID_66_" d="M49.6 38.2V27.1c0-2.7-2.4-4.9-5.3-4.9H8.9c-3 0-5.4 2.2-5.4 4.9v15.7l11.6-18.2h7.6L24 32c1.7-.3 3.4-.4 5.2-.4 7.6 0 14.7 2.4 20.4 6.6" class="st2"/><path id="XMLID_65_" d="m18.1 28.6-4 6.4c1.5-.7 3.1-1.3 4.7-1.8" class="st2"/></g></svg>