<svg xmlns="http://www.w3.org/2000/svg" xml:space="preserve" id="Layer_1" x="0" y="0" style="enable-background:new 0 0 200 80" version="1.1" viewBox="0 0 200 80"><style>.st0{fill:#f32300}</style><path d="M78.054 33.796h6.276c1.009 0 1.833.146 2.471.438.638.293 1.129.658 1.475 1.096.345.438.581.916.707 1.434a6.1 6.1 0 0 1 .189 1.435c0 .438-.063.913-.189 1.424a3.731 3.731 0 0 1-.707 1.425c-.346.438-.837.8-1.475 1.086-.637.286-1.461.428-2.471.428h-3.786v5.459h-2.491V33.796zm2.49 6.735h3.646c.279 0 .564-.04.857-.12.292-.08.561-.209.807-.389.246-.179.445-.418.598-.717.153-.299.229-.674.229-1.126 0-.465-.067-.85-.199-1.155a1.847 1.847 0 0 0-.538-.727 1.916 1.916 0 0 0-.777-.369 4.237 4.237 0 0 0-.936-.1h-3.686v4.703zM100.19 33.458c1.063 0 2.015.199 2.859.598a6.412 6.412 0 0 1 2.142 1.614 7.161 7.161 0 0 1 1.345 2.371c.312.903.468 1.86.468 2.869a8.785 8.785 0 0 1-.468 2.889 7.151 7.151 0 0 1-1.345 2.371 6.298 6.298 0 0 1-2.142 1.604c-.844.392-1.797.588-2.859.588-1.063 0-2.016-.196-2.859-.588a6.288 6.288 0 0 1-2.142-1.604 7.151 7.151 0 0 1-1.345-2.371 8.785 8.785 0 0 1-.468-2.889c0-1.01.156-1.966.468-2.869a7.161 7.161 0 0 1 1.345-2.371 6.392 6.392 0 0 1 2.142-1.614c.843-.399 1.796-.598 2.859-.598zm0 2.032c-.757 0-1.412.153-1.963.458-.551.306-1 .714-1.345 1.225a5.538 5.538 0 0 0-.767 1.743 8.032 8.032 0 0 0-.249 1.993c0 .677.083 1.342.249 1.992.166.651.422 1.232.767 1.744.345.511.794.92 1.345 1.225.551.306 1.205.458 1.963.458.757 0 1.411-.153 1.963-.458a3.854 3.854 0 0 0 1.345-1.225 5.533 5.533 0 0 0 .767-1.744 8.03 8.03 0 0 0 .249-1.992c0-.677-.083-1.342-.249-1.993a5.527 5.527 0 0 0-.767-1.743 3.845 3.845 0 0 0-1.345-1.225c-.552-.305-1.206-.458-1.963-.458zM113.699 43.281c0 .545.093 1.01.279 1.395.186.385.445.701.777.946a3.31 3.31 0 0 0 1.146.538c.431.113.9.17 1.405.17.545 0 1.009-.063 1.395-.189.385-.126.697-.289.937-.488.239-.199.411-.428.518-.688a2.06 2.06 0 0 0 .159-.787c0-.545-.123-.947-.369-1.205a2.107 2.107 0 0 0-.807-.548 16.925 16.925 0 0 0-1.763-.528c-.671-.166-1.498-.382-2.481-.648-.611-.159-1.119-.369-1.524-.628a3.632 3.632 0 0 1-.966-.867 3.031 3.031 0 0 1-.508-1.016c-.1-.359-.15-.724-.15-1.096 0-.717.15-1.338.448-1.863.299-.525.694-.96 1.186-1.305a5.21 5.21 0 0 1 1.674-.767 7.333 7.333 0 0 1 1.893-.249c.744 0 1.445.096 2.102.289a5.197 5.197 0 0 1 1.733.867c.498.386.893.86 1.186 1.425.292.565.438 1.219.438 1.962h-2.491c-.067-.916-.379-1.564-.937-1.943-.558-.378-1.269-.568-2.132-.568-.292 0-.591.03-.897.09-.306.06-.585.159-.837.299-.253.14-.462.329-.628.568-.166.239-.249.538-.249.896 0 .505.156.9.468 1.186.312.286.72.502 1.225.648.053.013.262.07.628.169a214.869 214.869 0 0 0 2.55.677c.431.113.74.196.927.249.465.147.87.346 1.215.598.345.253.634.541.867.867.232.326.405.674.518 1.046.113.372.169.744.169 1.116 0 .797-.163 1.478-.488 2.042a4.152 4.152 0 0 1-1.285 1.385 5.578 5.578 0 0 1-1.813.787 8.67 8.67 0 0 1-2.072.249c-.81 0-1.574-.1-2.291-.299a5.356 5.356 0 0 1-1.873-.917 4.476 4.476 0 0 1-1.275-1.584c-.319-.644-.485-1.405-.498-2.281h2.491zM61.894 24.109a5.16 5.16 0 0 1 .579-.925 2.33 2.33 0 0 1 .683-.599c.247-.138.518-.205.812-.202.295.003.616.092.964.265.376.188.647.43.813.725.166.296.245.651.239 1.065.362-.394.764-.621 1.208-.683.444-.061.899.024 1.366.257.376.188.666.423.868.707.202.283.329.593.379.927.051.334.039.681-.035 1.039a4.283 4.283 0 0 1-.362 1.04l-1.803 3.616-7.462-3.721 1.751-3.511zm2.916 1.716c.146-.293.196-.568.15-.825-.046-.257-.225-.465-.538-.621a.97.97 0 0 0-.475-.12.78.78 0 0 0-.387.12 1.185 1.185 0 0 0-.31.296 2.67 2.67 0 0 0-.248.405l-.766 1.536 1.745.871.829-1.662zm3.213 1.485c.08-.161.141-.322.182-.484.042-.162.053-.317.036-.465a.87.87 0 0 0-.165-.415 1.147 1.147 0 0 0-.431-.339c-.383-.191-.71-.219-.982-.085-.271.135-.496.379-.673.735l-.891 1.787 2.048 1.022.876-1.756zM127.541 56.705l.917-1.84 3.817-.275-2.082-3.204.912-1.829 3.217 5.063 2.864 1.428-.818 1.641-2.905-1.449-5.922.465zM139.857 28.362l-1.413.616-1.76-4.035-1.638.714 1.615 3.704-1.306.57-1.615-3.704-1.873.817 1.797 4.121-1.413.616-2.53-5.802 7.643-3.333 2.493 5.716zM64.249 54.026a1.322 1.322 0 0 0-.272.558c-.044.202-.047.418-.01.648s.104.456.2.677c.065.15.147.305.247.466.1.16.218.299.355.418.137.119.289.201.458.247a.807.807 0 0 0 .541-.058.732.732 0 0 0 .417-.418c.071-.188.103-.408.095-.659a5.837 5.837 0 0 0-.092-.826 22.05 22.05 0 0 1-.146-.918 8.044 8.044 0 0 1-.102-.949 3.117 3.117 0 0 1 .084-.903c.071-.286.2-.549.389-.788.189-.24.458-.436.807-.588.393-.171.77-.236 1.133-.195.362.042.699.156 1.009.343.311.187.588.431.83.734.242.302.438.625.587.967.174.4.297.803.368 1.209.071.406.069.796-.006 1.168-.075.373-.232.71-.469 1.014-.237.303-.577.551-1.019.744l-.71-1.627a1.48 1.48 0 0 0 .504-.392c.114-.148.184-.308.211-.48a1.53 1.53 0 0 0-.021-.545 3.185 3.185 0 0 0-.196-.596 2.135 2.135 0 0 0-.22-.388 1.197 1.197 0 0 0-.311-.304.994.994 0 0 0-.387-.156.784.784 0 0 0-.453.07.746.746 0 0 0-.327.245c-.068.097-.104.247-.11.449-.005.202.017.468.068.798.051.33.12.761.207 1.292.034.155.068.376.104.662.036.286.026.59-.029.911a2.512 2.512 0 0 1-.376.935c-.196.302-.507.546-.935.733-.35.153-.705.227-1.063.222a2.318 2.318 0 0 1-1.04-.266c-.335-.173-.649-.431-.943-.774s-.555-.775-.782-1.296a5.24 5.24 0 0 1-.379-1.293 3.365 3.365 0 0 1 .03-1.261c.089-.4.266-.764.53-1.092.265-.328.634-.591 1.109-.789l.709 1.627a1.524 1.524 0 0 0-.594.424zM72.074 10.564c.274-.253.563-.437.865-.552a2.32 2.32 0 0 1 .903-.157c.3.009.585.077.855.204s.514.307.73.542c.332.36.544.742.636 1.145.091.403.029.832-.188 1.286l.016.017a1.42 1.42 0 0 1 .606-.17c.196-.006.387.024.575.089.187.065.368.161.542.286.174.125.338.26.492.404.096.092.207.201.334.328.127.126.261.251.402.376.141.124.284.233.429.327.145.094.288.155.43.182l-1.348 1.243a3.247 3.247 0 0 1-.779-.568 13.68 13.68 0 0 0-.79-.701c-.341-.278-.655-.423-.941-.435-.286-.011-.598.139-.935.45l-1.348 1.243 2.209 2.395-1.348 1.243-5.654-6.128 3.307-3.049zm2.077 3.216c.309-.285.477-.568.505-.848.028-.279-.1-.574-.386-.883-.274-.297-.551-.442-.83-.434-.278.008-.572.155-.881.44l-1.476 1.362 1.592 1.725 1.476-1.362zM120.561 66.277l-1.046-1.133 5.021-4.633 1.046 1.133-1.837 1.695 4.609 4.995-1.348 1.243-4.609-4.995-1.836 1.695zM114.888 68.065l.53 1.448-4.134 1.513.614 1.678 3.795-1.389.489 1.338-3.794 1.389.702 1.919 4.222-1.545.53 1.447-5.944 2.175-2.866-7.83 5.856-2.143zM129.338 12.325a4.3 4.3 0 0 1 .828 1.277c.188.456.272.926.249 1.407a3.56 3.56 0 0 1-.405 1.455c-.248.488-.627.968-1.137 1.438a5.77 5.77 0 0 1-1.394.969 3.705 3.705 0 0 1-1.458.384 3.309 3.309 0 0 1-1.448-.269c-.477-.201-.931-.536-1.364-1.005l-2.439-2.644 6.128-5.654 2.44 2.642zm-5.083 4.515c.18.195.385.354.617.479.231.125.487.192.764.2.278.008.574-.052.888-.183.313-.13.639-.352.977-.663.309-.285.56-.573.754-.862.193-.29.315-.585.366-.886a1.784 1.784 0 0 0-.095-.921c-.114-.313-.324-.635-.631-.967l-.887-.962-3.862 3.564 1.109 1.201zM74.381 62.408a4.151 4.151 0 0 1 1.572-.354 3.68 3.68 0 0 1 1.562.315c.511.221.984.567 1.417 1.036.438.475.746.975.923 1.5a3.69 3.69 0 0 1 .184 1.578 4.172 4.172 0 0 1-.479 1.539 5.212 5.212 0 0 1-1.085 1.382 5.04 5.04 0 0 1-1.439.946 4.049 4.049 0 0 1-1.555.338 3.701 3.701 0 0 1-1.545-.322c-.507-.222-.979-.57-1.417-1.045-.433-.469-.741-.966-.924-1.491a3.693 3.693 0 0 1-.201-1.57 4.082 4.082 0 0 1 .462-1.523 5.01 5.01 0 0 1 1.059-1.358 5.19 5.19 0 0 1 1.466-.971zm-.89 3.1a2.777 2.777 0 0 0-.392.894c-.073.311-.071.627.007.947s.257.631.537.935c.28.303.576.507.889.61.312.104.627.131.943.083.316-.048.623-.154.922-.319.298-.164.577-.365.834-.602.269-.248.501-.519.698-.811.196-.293.332-.596.408-.909a1.987 1.987 0 0 0-.003-.951c-.078-.32-.257-.632-.537-.935-.28-.303-.576-.507-.888-.61a1.973 1.973 0 0 0-.947-.079c-.319.05-.632.162-.939.334a4.526 4.526 0 0 0-1.532 1.413zM90.787 72.226a1.856 1.856 0 0 0-.752-.979 1.915 1.915 0 0 0-.603-.262c-.401-.098-.76-.104-1.078-.018a1.995 1.995 0 0 0-.834.457 2.814 2.814 0 0 0-.599.797 4.56 4.56 0 0 0-.373 1.003c-.083.34-.125.681-.124 1.021 0 .341.056.661.167.961.111.3.287.561.529.785.241.224.563.385.964.483.544.134 1.01.072 1.398-.186.388-.257.683-.65.884-1.178l1.724.423c-.17.495-.399.924-.688 1.286a3.26 3.26 0 0 1-2.255 1.249 4.099 4.099 0 0 1-1.428-.11c-.62-.152-1.151-.397-1.593-.734a3.698 3.698 0 0 1-1.035-1.198 4.042 4.042 0 0 1-.455-1.525 5.035 5.035 0 0 1 .133-1.717 5.222 5.222 0 0 1 .686-1.618c.308-.474.68-.861 1.115-1.163a3.692 3.692 0 0 1 1.476-.6c.549-.098 1.134-.071 1.754.082.446.11.852.278 1.217.503.365.227.675.501.928.823.253.323.438.691.553 1.104.115.413.141.861.079 1.342l-1.724-.423a1.482 1.482 0 0 0-.066-.608zM115.468 3.235l.302 8.91-1.747-.594-.022-1.969-2.952-1.004-1.195 1.555-1.802-.612 5.636-6.891 1.78.605zm-1.481 4.899-.044-3.246-.022-.007-1.98 2.558 2.046.695zM99.714 8.758a3.079 3.079 0 0 1-1.203.251c-.639 0-1.213-.111-1.722-.333a3.692 3.692 0 0 1-1.291-.917 4.068 4.068 0 0 1-.806-1.372 5.034 5.034 0 0 1-.28-1.699c0-.623.093-1.201.28-1.734.187-.533.455-.998.806-1.396a3.695 3.695 0 0 1 1.291-.934c.51-.226 1.084-.339 1.722-.339.428 0 .843.064 1.244.192.401.129.763.318 1.086.567.323.249.59.557.8.922.21.366.339.787.385 1.261h-1.752c-.109-.467-.319-.817-.631-1.051-.312-.234-.689-.351-1.133-.351-.413 0-.763.08-1.051.239-.288.16-.522.374-.701.642a2.8 2.8 0 0 0-.391.917 4.554 4.554 0 0 0-.123 1.063c0 .35.041.691.123 1.022.082.331.212.629.391.894.179.265.412.477.701.636.288.16.638.239 1.051.239.607 0 1.076-.154 1.407-.461.331-.307.524-.753.578-1.337H98.65V4.315h3.503v4.508h-1.168l-.185-.946c-.327.42-.689.714-1.086.881zM103.101 72.923v-1.548h-4.115v1.548h1.14l.001 5.243h-1.141v1.548h4.115v-1.548h-1.141v-5.243zM86.153 4.534l-.605-1.424-3.787 1.607.605 1.425 1.049-.445 2.05 4.826-1.05.446.605 1.424 3.787-1.607-.605-1.425-1.049.445-2.05-4.826z"/><path d="M66.244 39.014h-.927l-.927 1.332-.927-1.332h-.927l1.197 2.124-1.197 2.125h.927l.927-1.333.927 1.333h.927l-1.197-2.125zM138.197 39.014h-.927l-.927 1.332-.927-1.332h-.927l1.197 2.124-1.197 2.125h.927l.927-1.333.927 1.333h.927L137 41.138zM97.348 20.151h5.346v1.043h-5.346zM97.348 60.366h5.346v1.043h-5.346z" class="st0"/></svg>