<svg xmlns="http://www.w3.org/2000/svg" xml:space="preserve" id="Layer_1" x="0" y="0" style="enable-background:new 0 0 200 80" version="1.1" viewBox="0 0 200 80"><style>.st0{display:none}.st1{fill-rule:evenodd;clip-rule:evenodd;fill:#e1251b}.st1,.st2,.st4{display:inline}.st2{fill:#273896;stroke:#273896;stroke-width:.0938;stroke-miterlimit:10}.st4{fill:#231f20}.st16,.st6,.st7{display:inline;fill:#005ea5}.st16,.st7{fill:#009bdd}.st16{fill-rule:evenodd;clip-rule:evenodd;fill:#004679}.st17{fill:#282828}</style><g id="sj5frW.tif"><path d="M27.92 36.682c.159-.566.101-1.151.155-1.726.455-4.829 2.021-9.262 4.69-13.311.048-.073.1-.145.154-.213.015-.019.045-.024.104-.054-.012.933.044 1.846.218 2.746.449 2.324 1.568 4.296 3.185 6.004 1.847 1.953 4.077 3.373 6.438 4.607 3.03 1.585 6.235 2.763 9.395 4.047 1.574.639 3.151 1.275 4.594 2.189.459.291.896.612 1.263 1.017.775.856.871 1.739.282 2.733-.42.71-.781 1.439-.892 2.27-.157 1.177.266 2.183.924 3.118.736 1.046 1.646 1.945 2.463 2.921 1.181 1.41 2.133 2.934 2.465 4.781.317 1.759.071 3.467-.442 5.153-.272.897-.647 1.755-1.009 2.618-.152.363-.382.503-.745.548-1.062.13-2.124.266-3.196.283-.098.002-.209-.029-.283.073H56.01c-.075-.1-.185-.071-.283-.073a23.413 23.413 0 0 1-2.932-.262c-6.695-.99-12.384-3.933-17.013-8.85-4.566-4.85-7.099-10.633-7.714-17.261-.052-.563.017-1.136-.15-1.688.002-.556.002-1.113.002-1.67zM172.08 40.375c-.082.619-.142 1.241-.249 1.856-1.202 6.861-5.165 11.404-11.674 13.773-2.195.799-4.485 1.12-6.822 1.119-4.519-.001-9.039-.006-13.558.009-.407.001-.543-.079-.542-.52.014-11.469.013-22.94.003-34.409 0-.386.077-.521.498-.519 4.665.016 9.333-.045 13.997.026 4.967.075 9.425 1.606 13.092 5.059 2.761 2.599 4.379 5.822 4.987 9.554.11.674.178 1.354.266 2.032.002.671.002 1.345.002 2.02zm-24.144-.978v8.788c0 1.026 0 1.042 1.028 1.023 2.022-.037 4.055.163 6.064-.138 3.087-.462 5.485-1.978 6.937-4.802 1.032-2.008 1.237-4.161.971-6.37-.576-4.792-4.16-8.097-8.98-8.255-1.846-.06-3.696-.017-5.543-.047-.389-.006-.488.1-.486.487.016 3.104.009 6.209.009 9.314zM119.049 38.518c.231.115.396.201.564.281 3.65 1.775 5.356 4.693 5.194 8.738-.164 4.075-2.318 7-6.306 8.479-2.1.779-4.288 1.092-6.515 1.1-5.664.021-11.329.001-16.992.018-.441.001-.52-.132-.52-.541.011-11.456.011-22.913 0-34.368 0-.407.077-.544.519-.542 5.473.017 10.947-.01 16.421.02 2.632.014 5.173.499 7.422 1.962 2.891 1.881 4.192 4.578 4.049 8.013-.125 2.899-1.392 5.146-3.836 6.84zm-11.155 10.897c1.188 0 2.376.013 3.565-.004.925-.014 1.843-.093 2.725-.413 1.287-.467 1.971-1.371 1.992-2.65.024-1.496-.563-2.39-1.914-2.922a6.805 6.805 0 0 0-2.451-.452c-2.846-.026-5.691-.02-8.536-.043-.355-.003-.324.186-.324.412.002 1.89.01 3.778-.007 5.668-.003.334.093.416.419.412 1.508-.016 3.02-.008 4.531-.008zm-.753-20.016c-1.401 0-2.574.01-3.748-.006-.322-.004-.458.048-.453.422.022 1.786.018 3.574.003 5.36-.003.314.093.388.395.386 2.186-.012 4.371.001 6.557-.01 1.02-.005 2.02-.156 2.936-.638 1.025-.539 1.468-1.416 1.439-2.562-.028-1.118-.524-1.926-1.534-2.411-.574-.275-1.189-.407-1.82-.471-1.332-.136-2.668-.035-3.775-.07z" class="st17"/><path d="M64.813 65.305c.717-1.32 1.508-2.461 2.338-3.577 2.766-3.717 5.787-7.228 8.771-10.768.783-.93 1.618-1.818 2.273-2.849.443-.695.814-1.419.985-2.236.261-1.253-.149-2.282-1.066-3.124-1.093-1.003-2.437-1.552-3.815-2.027-2.721-.938-5.542-1.488-8.343-2.11-3.275-.727-6.56-1.419-9.698-2.641-1.771-.69-3.465-1.52-4.848-2.863-1.199-1.165-1.979-2.54-1.984-4.257-.003-1.137.425-2.143 1.064-3.063 1.073-1.542 2.517-2.688 4.059-3.722 2.97-1.99 6.195-3.495 9.465-4.907 2.822-1.22 5.665-2.392 8.494-3.596.223-.095.375-.053.558.074 5.901 4.068 9.961 9.499 11.72 16.448 2.624 10.37.223 19.575-7.031 27.441-3.426 3.714-7.671 6.214-12.519 7.677-.107.033-.219.053-.423.1zM61.06 32.124c.454 0 .911.014 1.34-.178.459-.206.591-.537.399-.997a2.031 2.031 0 0 0-.391-.579c-.552-.609-1.236-1.031-1.981-1.354-1.574-.685-3.179-.907-4.819-.232-.687.282-.781.652-.336 1.252.451.609 1.089.973 1.764 1.27 1.28.56 2.635.773 4.024.818zm6.004 1.478c.136-.019.253-.028.366-.052.273-.06.564-.117.658-.431.102-.339-.124-.565-.355-.74-.85-.641-1.831-.963-2.882-1.038-.514-.036-.7.276-.421.686.633.931 1.511 1.477 2.634 1.575zm4.215 2.113c.212-.006.457.038.536-.157.091-.227-.138-.36-.296-.474-.547-.396-1.145-.637-1.84-.525-.204.032-.446.055-.482.296-.036.243.199.336.377.427.541.273 1.136.352 1.705.433zM127.168 39.374c0-5.757.004-11.514-.01-17.271-.001-.391.097-.488.483-.48 1.261.026 2.523.007 3.785.01 2.544.007 4.415 1.879 4.415 4.419v30.542c0 .557-.001.557-.574.557h-7.484c-.617 0-.617 0-.617-.595.002-5.727.002-11.454.002-17.182z" class="st17"/></g></svg>