<svg xmlns="http://www.w3.org/2000/svg" xml:space="preserve" id="Layer_1" x="0" y="0" style="enable-background:new 0 0 200 80" version="1.1" viewBox="0 0 200 80"><style>.st0{display:none}.st1{fill-rule:evenodd;clip-rule:evenodd;fill:#e1251b}.st1,.st2,.st4{display:inline}.st2{fill:#273896;stroke:#273896;stroke-width:.0938;stroke-miterlimit:10}.st4{fill:#231f20}.st16,.st6,.st7{display:inline;fill:#005ea5}.st16,.st7{fill:#009bdd}.st16{fill-rule:evenodd;clip-rule:evenodd;fill:#004679}.st17{fill:#282828}</style><g id="D03PII.tif"><path d="M42.564 19.039c.095-.65.168-1.304.287-1.95.802-4.348 3.315-7.425 7.158-9.461C53.69 5.677 57.679 5.036 61.796 5c.297-.003.394.091.392.39-.011 1.806-.015 3.612.003 5.417.004.375-.198.379-.461.391-1.312.058-2.617.168-3.885.54-2.747.805-4.571 2.476-5.083 5.388-.146.83-.15.83.673.83 2.092.001 4.184.011 6.276-.009.425-.004.543.117.541.546-.016 4.372-.017 8.744.001 13.115.002.456-.13.564-.572.563-5.705-.014-11.411-.009-17.116-.009l-.001-13.123zM42.564 58.064c.91 0 1.821.002 2.731 0 .214 0 .416-.027.413.302-.003.305-.169.33-.403.327-.493-.007-.988.021-1.48-.008-.388-.024-.468.134-.47.491-.008 1.419-.019 1.419 1.403 1.419.171 0 .342.008.512 0 .249-.011.261.144.264.333.003.194-.075.274-.267.273-.474-.003-.95.019-1.423-.004-.356-.017-.518.077-.489.47.033.453.008.91.008 1.365 0 .783 0 .783-.799.739v-5.707zM137.788 26.256v.612c0 7.359-.006 14.718.012 22.077.001.501-.12.642-.624.63a119.79 119.79 0 0 0-4.281-.006c-.365.004-.481-.096-.481-.478.011-9.983.01-19.966.002-29.949 0-.341.077-.456.439-.453 2.093.018 4.186.017 6.279 0 .33-.003.464.149.598.404 3.483 6.621 6.971 13.24 10.459 19.858.59 1.12 1.181 2.24 1.889 3.347v-.642c0-7.435.005-14.87-.01-22.305-.001-.501.099-.683.644-.667 1.407.042 2.816.023 4.224.008.34-.004.499.043.498.451-.012 9.983-.012 19.966-.001 29.949 0 .384-.119.48-.482.477a289.114 289.114 0 0 0-6.107.006c-.453.006-.666-.154-.868-.538-3.233-6.131-6.481-12.254-9.726-18.378-.782-1.475-1.566-2.949-2.35-4.423l-.114.02zM109.022 25.207c-.497 1.485-.995 2.969-1.49 4.454-2.16 6.481-4.324 12.962-6.467 19.449-.14.422-.322.549-.755.54a87.244 87.244 0 0 0-4.28.004c-.482.014-.642-.169-.781-.587-3.051-9.146-6.116-18.286-9.178-27.428-.283-.845-.553-1.696-.856-2.534-.122-.337-.05-.434.303-.432 1.522.011 3.044.021 4.566-.006.399-.007.46.217.551.497 1.097 3.375 2.2 6.748 3.301 10.121l4.101 12.554c.047.143.104.282.198.535.408-1.266.787-2.429 1.158-3.594 2.07-6.511 4.142-13.021 6.196-19.537.137-.434.317-.583.785-.578 2.511.027 5.022.024 7.534.003.435-.004.539.127.539.546-.011 9.963-.011 19.926 0 29.889 0 .415-.098.557-.537.548a89.015 89.015 0 0 0-4.166.002c-.5.013-.628-.116-.626-.623.018-7.719.013-15.438.013-23.158v-.626l-.109-.039z" class="st17"/><path d="M57.241 37.525c.761 0 1.523.018 2.283-.007.396-.013.58.066.68.516.516 2.317 1.547 4.345 3.402 5.913 3.317 2.803 10.77 2.96 13.575-2.815 2.282-4.698 2.198-9.505-.159-14.159-1.436-2.836-3.946-4.229-7.112-4.402-.406-.022-.511-.139-.504-.527.022-1.16.046-2.322-.008-3.479-.027-.587.182-.675.703-.655 6.273.238 11.271 3.797 13.282 9.737 1.823 5.384 1.639 10.727-1.214 15.759-2.352 4.147-6.08 6.325-10.764 6.888-3.38.406-6.652-.02-9.68-1.663-3.931-2.133-6.133-5.559-7.169-9.816-.313-1.284-.298-1.288 1.028-1.288.553-.002 1.105-.002 1.657-.002zM120.776 34.137c0-4.944.009-9.889-.013-14.833-.002-.51.129-.632.626-.619 1.369.037 2.74.035 4.11.001.49-.012.64.1.637.618-.024 4.012-.013 8.025-.013 12.037 0 5.895-.007 11.79.012 17.685.002.514-.143.636-.637.624a93.366 93.366 0 0 0-4.167-.001c-.449.009-.567-.116-.566-.566.017-4.981.011-9.964.011-14.946zM152.233 71.072c0-.76.013-1.52-.006-2.28-.008-.319.062-.479.419-.509.722-.06 1.441-.119 2.158.007 1.498.264 2.289 1.163 2.334 2.633.046 1.511-.748 2.613-2.143 2.963-.784.197-1.582.17-2.381.124-.286-.017-.39-.142-.385-.43.013-.836.004-1.672.004-2.508zm1.065.07c0 .568.002 1.136-.001 1.704-.001.205.014.372.292.377.826.013 1.631-.08 2.095-.861.486-.818.532-1.708.025-2.535-.467-.762-1.264-.813-2.065-.786-.264.009-.356.139-.35.398.012.567.003 1.135.004 1.703zM75.619 72.878l1.192-3.338c.122-.339.254-.675.368-1.017.07-.209.195-.271.417-.294.474-.049.671.089.69.603.059 1.556.172 3.11.259 4.665.013.231.105.493-.321.495-.368.002-.381-.183-.395-.455-.069-1.412-.15-2.824-.235-4.382-.549 1.524-1.045 2.908-1.549 4.29-.078.213-.065.492-.43.506-.399.015-.404-.288-.481-.52-.447-1.344-.951-2.669-1.345-4.166-.168.508-.122.903-.147 1.286-.065.986-.112 1.972-.159 2.959-.014.302-.077.501-.458.477-.408-.026-.263-.299-.251-.491.102-1.592.214-3.184.332-4.775.015-.208-.045-.501.32-.479.297.017.627-.124.78.342.462 1.402 1.006 2.776 1.413 4.294zM69.483 62.67c.534-1.48 1.052-2.818 1.493-4.182.175-.543.538-.429.891-.415.416.018.242.374.257.574.113 1.553.203 3.109.291 4.664.011.194.15.467-.258.485-.343.015-.463-.089-.476-.44-.05-1.383-.13-2.764-.2-4.191-.212.12-.209.3-.26.443a573.632 573.632 0 0 0-1.358 3.805c-.074.211-.138.366-.418.365-.292-.001-.33-.186-.397-.387-.475-1.415-.992-2.816-1.466-4.251l-.242 4.167c-.014.241.034.504-.365.49-.271-.009-.364-.079-.343-.36.125-1.686.236-3.373.349-5.059.013-.189.046-.35.289-.311.285.045.639-.165.792.317.413 1.301.868 2.589 1.305 3.883.03.088.052.179.116.403zM147.939 70.898c.902.505 1.176.946 1.067 1.668-.111.739-.633 1.199-1.535 1.373-.66.128-1.322.102-1.986.07-.303-.015-.417-.141-.414-.46.015-1.613.01-3.226.004-4.839-.001-.24.041-.376.327-.406.682-.073 1.36-.138 2.041-.01.655.123 1.205.396 1.356 1.115.147.706-.245 1.144-.86 1.489zm-1.852 1.412c.206.315-.352.993.54.956.838-.035 1.302-.347 1.301-.954 0-.597-.476-.925-1.303-.96-.889-.038-.331.642-.538.958zm.036-2.515c0 .825 0 .825.496.821.729-.005 1.143-.3 1.155-.82.012-.534-.378-.769-1.143-.807-.775-.038-.422.522-.508.806zM124.6 72.31v.285c0 1.246.001 1.25-1.232 1.408a5.174 5.174 0 0 1-.797.032c-1.736-.048-2.789-1.057-2.875-2.745-.082-1.617 1.012-2.875 2.672-3.057a4.837 4.837 0 0 1 1.643.093c.336.079.416.223.312.552-.089.284-.165.43-.503.287-.221-.094-.484-.115-.728-.12-.795-.016-1.54.148-1.978.887-.449.758-.439 1.565-.026 2.34.395.741 1.494 1.13 2.291.867.186-.061.231-.168.23-.333-.001-.19-.022-.383.005-.57.068-.465-.097-.677-.581-.596-.335.056-.468-.06-.463-.428.005-.356.161-.405.452-.393.38.016.762.026 1.141-.002.368-.028.461.134.441.465-.02.343-.004.686-.004 1.028zM134.571 73.641c0 .594-.018 1.125.005 1.654.02.451-.288.355-.537.357-.253.002-.538.085-.537-.359.004-1.709-.015-3.419-.03-5.128-.002-.188.069-.308.258-.282.234.033.549-.172.677.205.029.086.042.178.065.278 1.123-.735 1.987-.745 2.626-.046.699.764.731 2.233.066 3.067-.602.757-1.518.869-2.593.254zm.016-1.678h-.012c0 .133-.005.265.001.398.022.483.293.776.747.873.45.097.846-.049 1.065-.465a1.703 1.703 0 0 0 .015-1.636c-.202-.395-.556-.578-.991-.503-.449.077-.748.356-.821.823-.026.166-.004.34-.004.51zM86.756 70.421c1.004-.881 1.73-.831 2.455.127.291-.319.588-.631 1.035-.719.822-.161 1.499.305 1.637 1.178.14.886.037 1.783.063 2.674.009.327-.213.289-.424.302-.255.015-.324-.103-.32-.34.01-.684.01-1.368.001-2.052-.01-.756-.328-1.191-.858-1.201-.575-.01-.963.482-.967 1.232-.003.646-.007 1.292.002 1.938.004.256-.01.429-.351.431-.354.002-.403-.163-.398-.455a51.03 51.03 0 0 0 0-1.995c-.014-.726-.331-1.148-.836-1.151-.54-.003-.969.498-.985 1.182-.015.646-.008 1.292-.002 1.938.002.264.011.477-.37.481-.375.004-.379-.19-.376-.464.008-1.026-.007-2.052.012-3.078.004-.198-.207-.516.228-.575.398-.054.414.231.454.547zM131.502 73.378c-.345.29-.561.498-.859.599-.879.296-1.683-.105-1.891-1.008-.215-.935-.075-1.892-.088-2.84-.006-.422.361-.221.565-.246.209-.025.481-.08.473.298-.011.513-.002 1.026-.001 1.539 0 .19-.01.381.006.57.053.61.34.939.794.928.482-.011.819-.387.832-.965a34.92 34.92 0 0 0-.001-1.995c-.018-.484.311-.368.577-.384.287-.017.511-.008.501.402-.025 1.045-.001 2.09-.013 3.135-.003.22.193.564-.292.573-.364.007-.716.045-.603-.606zM58.527 63.145c-.544.634-1.129.87-1.847.662-.741-.215-1.097-.765-1.242-1.487-.276-1.372.423-2.563 1.586-2.695.454-.052.735.029 1.43.427 0-.633.012-1.234-.005-1.834-.009-.303.063-.451.405-.446.325.005.364.161.364.428-.003 1.748.004 3.496.01 5.245.001.177.027.353-.24.343-.207-.008-.44.041-.434-.287.002-.092-.013-.184-.027-.356zm-.076-1.41c0-.17.013-.342-.002-.51-.047-.528-.319-.888-.842-1.007-.542-.123-.965.072-1.245.556a1.81 1.81 0 0 0-.229.867c-.032.974.431 1.632 1.168 1.65.739.018 1.153-.541 1.15-1.556zM110.748 60.063c0-.678.013-1.285-.006-1.892-.009-.301.101-.396.394-.398.313-.003.377.136.376.415-.007 1.729-.002 3.459.003 5.188.001.21.063.414-.28.419-.304.004-.413-.113-.394-.397.004-.055-.012-.112-.027-.232-.41.48-.89.752-1.496.711a1.626 1.626 0 0 1-1.065-.489c-.725-.729-.778-2.284-.109-3.116.62-.768 1.533-.859 2.604-.209zm-.009 1.659c0-.189.021-.381-.004-.567-.069-.499-.348-.832-.848-.942-.494-.109-.898.054-1.182.474-.195.289-.271.618-.28.966-.026.974.443 1.629 1.182 1.638.738.008 1.141-.546 1.132-1.569zM93.924 70.457c.453-.473.883-.67 1.403-.661.649.011 1.152.284 1.437.859.435.877.421 1.776-.099 2.611-.613.985-1.778 1.049-2.818.171-.015.106-.032.193-.039.281-.023.275-.221.259-.417.261-.263.003-.24-.171-.239-.35.007-1.73.011-3.46.011-5.19 0-.264-.013-.472.369-.478.418-.007.398.228.395.51-.008.607-.003 1.215-.003 1.986zm.003 1.412c0 .189-.008.341.001.492.036.564.388.982.912 1.091a1.138 1.138 0 0 0 1.274-.638c.283-.597.296-1.214-.004-1.81-.334-.665-1.11-.846-1.686-.416-.447.335-.539.801-.497 1.281zM110.016 73.352c-.34.364-.673.628-1.129.688-1.051.139-1.83-.548-1.998-1.775-.196-1.438.755-2.581 2.037-2.457.366.035.671.205 1.023.511 0-.719.013-1.32-.005-1.921-.009-.311.079-.437.413-.434.338.003.355.177.355.433-.001 1.745.004 3.49.011 5.234.001.179.021.351-.239.349-.214-.001-.436.026-.434-.293-.001-.089-.018-.178-.034-.335zm-.067-1.473c0-1.073-.461-1.612-1.282-1.5-.617.084-1.021.661-1.041 1.486-.022.947.431 1.578 1.152 1.603.757.026 1.169-.513 1.17-1.532l.001-.057zM140.355 69.802c1.227-.007 2.073.827 2.095 2.065.023 1.266-.852 2.171-2.114 2.188-1.256.016-2.109-.833-2.108-2.099 0-1.301.835-2.147 2.127-2.154zm.993 2.064c-.007-.072-.005-.246-.045-.41-.121-.494-.369-.883-.933-.925-.476-.035-.856.319-1.001.909-.04.164-.072.335-.073.503-.007.784.464 1.398 1.052 1.387.573-.011.989-.579 1-1.464zM140.967 61.761c.004-1.297.838-2.171 2.055-2.154 1.139.016 1.926.863 1.939 2.087.014 1.265-.847 2.186-2.044 2.188-1.16.003-1.954-.861-1.95-2.121zm3.233-.021a1.817 1.817 0 0 0-.212-.93c-.216-.403-.552-.618-1.006-.629-.455-.011-.815.185-1.031.585-.36.666-.373 1.35.032 1.997.468.746 1.453.737 1.94.001.206-.309.289-.655.277-1.024zM60.129 61.721c.018-1.267.84-2.12 2.038-2.114 1.16.006 1.969.886 1.956 2.128-.013 1.27-.884 2.168-2.084 2.148-1.153-.019-1.927-.896-1.91-2.162zm3.233.035a1.83 1.83 0 0 0-.204-.932c-.212-.404-.542-.627-.997-.643-.454-.016-.818.172-1.039.57-.369.663-.383 1.347.014 1.998.458.752 1.446.756 1.94.029.209-.307.295-.652.286-1.022zM50.118 61.766c-.018 1.253-.86 2.124-2.043 2.117-1.143-.007-1.968-.911-1.951-2.138.018-1.279.884-2.167 2.086-2.138 1.17.029 1.927.886 1.908 2.159zm-3.234-.02c.007.227.016.451.099.669.198.523.536.87 1.121.894.518.022.986-.347 1.175-.906a1.962 1.962 0 0 0-.117-1.597c-.426-.806-1.508-.85-2.008-.088a1.71 1.71 0 0 0-.27 1.028zM100.434 71.921c.015-1.302.841-2.146 2.077-2.122 1.139.021 1.92.878 1.917 2.101-.003 1.274-.858 2.167-2.066 2.157-1.166-.009-1.943-.87-1.928-2.136zm3.232.035a1.797 1.797 0 0 0-.222-.984c-.431-.756-1.427-.831-1.947-.146-.446.588-.449 1.601-.006 2.19.48.639 1.364.643 1.848.004a1.66 1.66 0 0 0 .327-1.064zM83.667 72.079c-.304 0-.607-.001-.911.001-.598.003-.655.093-.415.653.283.662.997.907 2.022.691.127-.027.265-.133.376-.036.072.062.096.199.107.305.015.139-.106.175-.213.22-.893.374-2.163.128-2.689-.525-.573-.712-.598-1.965-.056-2.784a1.86 1.86 0 0 1 2.105-.732c.698.228 1.181 1.032 1.144 1.856-.012.281-.136.359-.389.351-.36-.008-.72 0-1.081 0zm-.326-.55c.208 0 .419-.022.623.005.436.057.482-.161.374-.495-.127-.392-.382-.644-.808-.693-.48-.055-.853.113-1.094.539-.101.18-.247.388-.14.578.084.149.313.055.478.064.188.011.378.002.567.002zM113.792 72.081c-.379 0-.759.007-1.138-.002-.264-.007-.314.095-.264.346.117.58.514.983 1.116 1.046.377.04.757.041 1.126-.086.154-.053.292-.068.337.158.034.17.023.278-.154.364-.902.441-2.34.106-2.838-.671-.582-.908-.388-2.359.404-3.027.52-.439 1.39-.546 1.983-.244.552.281.96 1.098.915 1.784-.016.243-.112.337-.349.332-.379-.008-.759-.002-1.138-.002v.002zm-.308-.552c.208 0 .419-.022.623.005.436.057.482-.161.374-.495-.127-.392-.382-.644-.808-.693-.48-.055-.853.113-1.094.539-.101.18-.247.388-.14.578.084.149.313.055.478.064.188.01.378.002.567.002zM51.721 60.243c.219-.164.398-.337.609-.448.905-.479 1.907-.023 2.117.976.189.9.046 1.817.086 2.726.012.281-.164.288-.37.294-.239.007-.399-.031-.393-.332.014-.664.008-1.329.002-1.993-.007-.834-.313-1.245-.918-1.249-.644-.004-1.055.486-1.06 1.275-.004.645-.01 1.291.003 1.936.006.27-.091.366-.362.368-.282.002-.41-.069-.407-.381.011-1.139-.001-2.278-.006-3.417-.001-.157-.015-.324.214-.309.17.011.405-.094.442.208.012.107.027.216.043.346zM114.534 61.889c-.38 0-.761.005-1.141-.002-.265-.005-.315.125-.284.361.073.556.544.996 1.179 1.056.342.032.684.016 1.016-.092.168-.054.31-.099.387.154.072.235-.031.299-.21.367-.906.347-2.073.148-2.616-.452-.573-.633-.68-1.766-.248-2.63.411-.822 1.256-1.21 2.149-.986.734.184 1.243.98 1.22 1.858-.007.274-.103.372-.367.363-.361-.011-.723-.003-1.084-.003l-.001.006zm-.351-.536c.247 0 .494-.012.739.003.345.021.367-.142.293-.422-.113-.43-.364-.706-.803-.778-.428-.07-.791.067-1.042.429-.138.199-.331.431-.215.669.104.213.377.072.573.096.15.019.304.004.455.003zM95.169 63.883c-1.389-.007-2.234-.943-2.111-2.26.128-1.373 1.049-2.182 2.256-1.981.867.145 1.543 1.154 1.372 2.012-.059.297-.265.225-.435.228-.685.01-1.37.021-2.054-.001-.405-.013-.44.18-.359.494.171.665.783 1.01 1.682.93.188-.017.379-.052.557-.113.202-.069.259.019.32.188.07.194.004.285-.172.335-.368.104-.739.182-1.056.168zm-.304-2.529c.228 0 .456-.015.682.003.363.029.479-.089.365-.457-.125-.402-.362-.662-.774-.74-.404-.076-.757.04-1.017.362-.166.205-.37.457-.268.712.097.243.402.087.614.117.131.018.266.003.398.003zM146.655 60.303c.039-.088.056-.202.122-.261.48-.43 1.039-.545 1.638-.318.605.229.854.747.885 1.345.04.795.005 1.593.025 2.389.008.3-.137.331-.38.335-.267.004-.37-.088-.37-.36a43.13 43.13 0 0 0-.036-2.331c-.023-.45-.244-.807-.742-.873-.542-.073-.906.178-1.131.665-.084.181-.087.366-.087.556 0 .645-.01 1.29.004 1.935.006.27-.036.417-.363.412-.307-.005-.386-.121-.386-.405.003-1.138-.006-2.275-.024-3.413-.004-.232.091-.278.297-.304.451-.055.338.292.548.628zM121.379 60.254c.379-.415.775-.617 1.254-.638.711-.03 1.305.406 1.434 1.125.166.921.053 1.857.073 2.787.006.297-.214.247-.4.261-.232.018-.347-.051-.341-.312.013-.646.006-1.292.003-1.938-.004-.883-.298-1.31-.908-1.324-.68-.016-1.085.491-1.09 1.37-.003.589-.011 1.178.003 1.767.007.297-.055.447-.404.446-.35 0-.345-.185-.344-.431.006-1.026-.01-2.052.013-3.077.004-.199-.216-.512.188-.606.44-.103.427.247.519.57zM103.164 62.297c0 .379.003.758-.001 1.136-.002.136.085.339-.16.342-.167.002-.433.128-.476-.144-.065-.411-.216-.163-.353-.075-.571.363-1.163.483-1.757.082-.422-.285-.529-.716-.438-1.205.131-.709.667-.972 1.274-1.138.254-.07.524-.11.787-.114.43-.006.398-.231.291-.519-.094-.251-.274-.394-.528-.473-.308-.095-.599.008-.898.029-.191.013-.444.416-.587-.027-.154-.475.304-.412.518-.473 1.465-.417 2.286.209 2.302 1.724.003.284 0 .569 0 .853.006.002.016.002.026.002zm-.751-.092c-.068-.157.156-.48-.232-.501-.401-.022-.8.029-1.142.259-.339.228-.446.564-.307.943.141.384.462.466.835.409.547-.084.841-.462.846-1.11zM152.348 61.887c-.342 0-.685.017-1.026-.004-.445-.028-.464.195-.355.528.181.551.579.831 1.135.892.341.037.683.018 1.015-.088.169-.054.326-.092.399.153.068.227-.044.299-.225.368-.907.345-2.059.145-2.609-.462-.567-.625-.67-1.765-.239-2.626.411-.82 1.257-1.207 2.146-.981.739.188 1.237.973 1.207 1.857-.009.269-.099.374-.367.364-.36-.013-.722-.003-1.083-.003l.002.002zm-.359-.533c.132 0 .269.022.395-.005.232-.05.602.168.671-.167.068-.331-.119-.661-.423-.87-.465-.319-1.12-.193-1.45.286-.137.199-.326.437-.216.667.096.201.375.064.57.087.15.016.302.002.453.002zM130.861 63.882c-1.321-.008-2.133-.916-2.023-2.262.111-1.364 1.037-2.181 2.244-1.98.87.145 1.534 1.144 1.361 2.01-.058.292-.257.231-.431.233-.684.007-1.368.019-2.052-.002-.395-.012-.451.161-.361.487.186.676.776 1.014 1.676.937.188-.016.377-.055.557-.109.188-.056.28 0 .335.183.056.186-.004.287-.184.339-.367.105-.738.177-1.122.164zm-.209-2.528c.226 0 .454-.016.679.004.381.034.459-.117.349-.463-.134-.421-.395-.688-.831-.744-.451-.058-.818.111-1.056.505-.114.19-.292.409-.175.621.094.171.344.059.524.074.169.014.34.003.51.003zM88.92 63.37c-.285.16-.487.307-.712.394-.738.286-1.489.015-1.741-.608-.272-.672.064-1.388.798-1.718.389-.175.804-.234 1.218-.255.388-.019.389-.227.298-.489-.157-.451-.53-.579-.956-.544-.26.021-.516.113-.768.189-.146.044-.262.064-.303-.123-.028-.127-.059-.232.085-.345.918-.724 2.548-.151 2.685 1.003.105.88.057 1.779.081 2.669.004.163-.05.232-.223.247-.299.027-.487-.053-.462-.42zm-.056-1.151c-.054-.154.11-.404-.169-.51-.357-.136-1.241.152-1.444.477-.162.258-.189.535-.04.808.156.285.416.358.723.329.577-.054.915-.443.93-1.104zM76.247 63.266c-.301.224-.516.437-.816.535-.843.274-1.61-.098-1.817-.955-.234-.971-.07-1.966-.101-2.95-.009-.271.218-.199.375-.213.224-.02.363.045.359.307-.008.513-.004 1.025.002 1.538.003.265.001.533.035.795.085.663.384.955.924.929a1.057 1.057 0 0 0 1.013-1.035c.024-.607-.021-1.217.019-1.822.017-.253-.264-.707.334-.714.635-.007.353.477.363.742.034.929.027 1.861.002 2.79-.005.189.237.502-.207.58-.405.072-.388-.243-.485-.527zM151.032 71.187c0 .797-.022 1.596.009 2.392.016.41-.203.42-.492.403-.266-.016-.576.097-.571-.386.02-1.651.021-3.303-.001-4.955-.006-.466.273-.389.555-.405.332-.02.525.028.509.447-.032.833-.009 1.669-.009 2.504zM126.552 70.486c.234-.213.388-.38.568-.508.223-.158.511-.268.748-.135.219.123.066.416.099.632.034.22-.064.262-.282.286-.734.082-.98.375-.991 1.117-.008.587-.016 1.175.002 1.761.013.405-.262.352-.497.337-.23-.014-.571.141-.572-.319a275.68 275.68 0 0 0-.026-3.522c-.003-.222.122-.278.28-.25.211.037.516-.183.616.193.03.104.031.216.055.408zM126.644 62.999l1.016-2.945c.069-.2.122-.375.409-.381.378-.008.508.049.336.46a101.557 101.557 0 0 0-1.294 3.282c-.102.27-.232.388-.534.384-.289-.004-.386-.138-.475-.379-.394-1.068-.814-2.127-1.204-3.196-.057-.157-.32-.408 0-.515.273-.092.582-.099.712.329.259.852.575 1.688.868 2.53l.166.431zM90.862 61.645c0-.304-.01-.609.003-.913.012-.292.004-.539-.403-.488-.173.022-.226-.099-.224-.254.003-.163.022-.328.237-.303.349.04.429-.138.387-.433-.063-.442.308-.452.554-.474.308-.027.195.281.177.426-.064.517.261.496.599.473.301-.02.566.015.459.415-.07.262-.325.166-.487.147-.469-.055-.591.149-.568.583.031.588.002 1.179.014 1.768.009.419.188.699.662.659.193-.016.314-.004.333.246.02.263-.108.325-.319.367-.736.146-1.301-.222-1.39-.968-.049-.412-.009-.835-.009-1.253-.009.002-.017.002-.025.002zM80.262 61.587c0-.304-.007-.608.002-.911.008-.254-.016-.463-.354-.427-.201.021-.261-.092-.258-.276.003-.177.052-.309.255-.287.331.036.388-.152.354-.414-.057-.431.291-.465.547-.489.358-.033.21.293.203.451-.016.342.086.502.446.45.111-.016.228.005.341-.002.244-.014.268.133.272.327.004.22-.127.227-.292.245-.757.081-.757.085-.756.874 0 .475.003.949 0 1.424-.003.455.173.74.672.699.215-.018.303.046.331.266.03.238-.099.293-.28.34-.71.183-1.313-.18-1.422-.907-.067-.447-.057-.907-.082-1.361.007-.002.014-.002.021-.002zM137.041 63.877a2.548 2.548 0 0 1-1.079-.178c-.234-.088-.175-.243-.126-.416.061-.216.179-.19.345-.124.302.12.618.206.946.138.272-.056.509-.175.557-.491.046-.301-.083-.521-.346-.655-.286-.147-.59-.263-.871-.419-.436-.241-.693-.606-.6-1.123.089-.498.422-.802.899-.929.392-.104.79-.088 1.179.041.198.066.342.135.241.403-.089.236-.203.217-.386.132a1.275 1.275 0 0 0-.386-.098c-.369-.043-.711.034-.829.428-.11.366.159.552.45.689.189.089.386.16.574.252.634.313.867.71.78 1.306-.092.628-.535.881-1.086 1.015-.128.031-.264.029-.262.029zM155.545 63.882c-.309.009-.6-.07-.888-.172-.216-.076-.226-.222-.167-.407.07-.222.193-.224.388-.138.298.132.619.195.946.127.278-.058.501-.208.544-.51.039-.271-.088-.485-.328-.61-.269-.139-.556-.243-.821-.389-.465-.255-.781-.612-.669-1.192.107-.556.485-.83 1.014-.937a2.13 2.13 0 0 1 1.013.052c.189.053.355.12.284.39-.076.292-.23.218-.425.148a1.486 1.486 0 0 0-.5-.098c-.299.003-.579.097-.673.419-.096.33.089.542.373.68.136.066.277.123.417.183.813.348 1.136.808 1.013 1.441-.123.63-.701 1.016-1.521 1.013zM85.494 60.803c0 .872-.006 1.745.004 2.617.003.252-.048.38-.34.375-.28-.004-.411-.068-.409-.38.011-1.764.01-3.528.001-5.292-.001-.289.132-.345.383-.349.261-.004.372.072.367.354-.015.892-.006 1.784-.006 2.675zM104.278 60.801c0-.872.007-1.745-.005-2.617-.004-.281.07-.409.381-.413.32-.004.371.136.369.412-.009 1.745-.008 3.49-.001 5.235.001.248-.042.384-.337.378-.276-.005-.417-.062-.412-.377.016-.872.006-1.745.005-2.618zM116.95 70.956c0 .872-.007 1.745.004 2.617.004.278-.064.413-.377.416-.316.003-.374-.13-.372-.409.01-1.745.008-3.49.002-5.235-.001-.244.035-.388.334-.381.273.006.42.055.415.374-.017.873-.007 1.746-.006 2.618zM118.607 60.929c0-.817.005-1.634-.003-2.451-.002-.25-.002-.436.347-.423.286.01.404.074.402.383-.012 1.653-.01 3.306-.001 4.96.002.29-.088.394-.39.401-.336.008-.36-.159-.358-.418.009-.818.003-1.635.003-2.452zM98.624 70.633c.334-.45.582-.767 1.017-.818.161-.019.378-.076.365.201-.009.192.132.44-.262.499-.681.1-.977.468-1 1.158a36.715 36.715 0 0 0-.001 1.935c.005.255-.053.382-.342.38-.282-.002-.41-.074-.408-.384.006-1.138-.005-2.277-.025-3.415-.004-.226.074-.312.287-.312.196 0 .398-.021.37.278-.009.111-.001.224-.001.478zM78.169 60.746c0-.836.005-1.671-.003-2.507-.003-.272.003-.474.378-.468.341.006.352.184.351.437-.005 1.728-.007 3.456.002 5.185.002.282-.066.404-.379.405-.342.002-.353-.179-.351-.431.006-.874.002-1.748.002-2.621zM98.222 60.374c.318-.36.552-.69.98-.742.204-.025.4-.054.389.241-.007.189.076.399-.256.463-.744.143-1.005.478-1.028 1.246-.017.568-.006 1.136-.003 1.704.001.268.05.523-.381.513-.404-.009-.341-.255-.342-.493-.003-1.061-.003-2.121-.007-3.182-.001-.197-.107-.424.244-.448.317-.022.403.119.375.399-.009.066.01.134.029.299zM133.959 60.374c.318-.358.552-.689.979-.741.202-.025.401-.058.39.238-.007.188.079.4-.254.465-.747.146-1.006.477-1.03 1.244-.017.549.002 1.098-.007 1.647-.004.259.117.582-.376.571-.458-.01-.339-.311-.341-.548-.01-1.041-.006-2.083-.01-3.125-.001-.196-.11-.425.242-.449.315-.022.405.115.376.397-.007.066.013.134.031.301zM80.565 71.872c0 .57-.012 1.14.005 1.71.009.292-.085.405-.386.406-.305 0-.387-.12-.384-.408.013-1.102.013-2.204 0-3.306-.003-.291.085-.405.386-.406.305 0 .393.119.383.408-.016.532-.004 1.064-.004 1.596zM140.071 61.76c0 .57-.009 1.14.004 1.709.006.251-.091.334-.332.323-.22-.01-.416.007-.413-.311a236.78 236.78 0 0 0 0-3.475c-.002-.302.167-.318.402-.329.292-.014.349.122.344.375-.013.568-.005 1.138-.005 1.708zM82.85 61.682c0-.548.009-1.097-.004-1.645-.006-.268.093-.363.363-.362.267.001.368.089.366.359-.009 1.134-.01 2.269.001 3.404.003.274-.098.357-.364.357-.263 0-.374-.077-.367-.354.016-.586.005-1.173.005-1.759zM83.668 58.513c-.04.295-.194.463-.484.457-.27-.006-.419-.182-.416-.437.004-.284.18-.46.469-.448.259.009.398.181.431.428zM139.69 58.073c.265.028.445.164.458.421.013.282-.15.462-.442.474-.269.011-.427-.142-.442-.406-.016-.292.154-.445.426-.489zM80.624 68.765c-.011.218-.154.38-.452.381-.277.002-.418-.157-.425-.416-.008-.292.175-.471.449-.466.238.004.422.151.428.501z" class="st17"/></g></svg>