<svg xmlns="http://www.w3.org/2000/svg" xml:space="preserve" id="Layer_1" x="0" y="0" style="enable-background:new 0 0 200 200" version="1.1" viewBox="0 0 200 200"><style>.st1{fill:#58595b}.st2{fill:#6d6e71}.st3{fill:#808285}.st6{fill:#fff}.st7{fill:#f79433}</style><path d="M190.59 61.73c-4.95-11.71-12.04-22.22-21.07-31.25s-19.54-16.12-31.25-21.07c-12.12-5.13-25-7.73-38.27-7.73s-26.15 2.6-38.27 7.73c-11.71 4.95-22.22 12.04-31.25 21.07-9.03 9.03-16.12 19.54-21.07 31.25-5.13 12.12-7.73 25-7.73 38.27 0 13.27 2.6 26.15 7.73 38.27 4.95 11.71 12.04 22.22 21.07 31.25 9.03 9.03 19.54 16.12 31.25 21.07 12.12 5.13 25 7.73 38.27 7.73s26.15-2.6 38.27-7.73c11.71-4.95 22.22-12.04 31.25-21.07s16.12-19.54 21.07-31.25c5.13-12.12 7.73-25 7.73-38.27 0-13.27-2.6-26.15-7.73-38.27z" style="fill:#414042"/><path d="M162.27 99.93c0 34.33-27.82 62.15-62.15 62.15s-62.15-27.83-62.15-62.15c0-34.33 27.82-62.15 62.15-62.15s62.15 27.82 62.15 62.15z" class="st1"/><path d="M138.08 68.23c-.87 11.64-17.29 23.34-37.71 23.34S56.12 74.18 63.52 65.16c2.82-3.44 16.43-15.84 36.85-15.84 20.42-.01 38.08 14 37.71 18.91z" class="st2"/><path d="M52.41 72.27s14.28-15.3 39.64-23.75c11.79-3.93 29.48 3.93 29.48 3.93s-54.04 11.79-72.55 41.6l3.43-21.78zM128.41 152.43s-20.26 5.24-46.19-1.24c-12.06-3.01-22.76-19.13-22.76-19.13s51.93 19.05 83.54 3.84l-14.59 16.53z" class="st3"/><path d="M147.62 75.4c-37.83 50.77-99.33 12.12-99.33 12.12l-.24 27.35c48.89 23.26 108.58-21.7 108.58-21.7s-8.31-18.71-9.01-17.77z" class="st2"/><path d="M153.19 94.64c2.13 18.34-71.63 49.85-99.25 36.36l13.39 13.01s34.88 5.65 81.32-16.58c2.61-1.25 4.19-35.74 4.54-32.79z" class="st2"/><path d="M65.26 133.88c-1.76-.18-3.44-.45-5.04-.82 1.53 2.13 5.26 6.99 10.1 11.2 5.58.47 18.65.9 36.46-2.71-17.04-.85-33.21-5.13-41.52-7.67z" style="fill:#939598"/><path d="M100.12 37.78c34.33 0 62.15 27.83 62.15 62.15 0 34.33-27.82 62.15-62.15 62.15s-62.15-27.83-62.15-62.15c0-34.33 27.83-62.15 62.15-62.15m0 11.79c-13.45 0-26.1 5.24-35.61 14.75C55 73.83 49.76 86.48 49.76 99.93s5.24 26.1 14.75 35.61c9.51 9.51 22.16 14.75 35.61 14.75s26.1-5.24 35.61-14.75c9.52-9.51 14.75-22.16 14.75-35.61s-5.24-26.1-14.75-35.61c-9.51-9.51-22.16-14.75-35.61-14.75z" class="st1"/><path d="m95.92 79.06 11.19 28.24 5.94-20.72c.79-2.73 1.38-4.59 1.77-5.59.38-1 1.1-1.95 2.16-2.85 1.06-.9 2.51-1.36 4.34-1.36 1.87 0 3.33.45 4.39 1.36 1.06.9 1.8 1.88 2.23 2.94.43 1.06 1.03 2.89 1.79 5.49l7.45 26.07 8.27-28.05c.55-2.02 1-3.49 1.33-4.39.34-.9.9-1.7 1.7-2.39.79-.69 1.94-1.03 3.45-1.03 1.5 0 2.81.52 3.91 1.56s1.65 2.27 1.65 3.68c0 1.29-.48 3.23-1.43 5.84l-10.25 30.07c-.89 2.55-1.58 4.38-2.07 5.52-.49 1.13-1.26 2.15-2.32 3.04-1.06.89-2.51 1.33-4.35 1.33-1.9 0-3.4-.48-4.48-1.43a8.539 8.539 0 0 1-2.41-3.49c-.52-1.38-1.09-3.17-1.7-5.38l-7.17-24.46-6.94 24.46c-.92 3.4-1.92 5.97-2.99 7.7-1.07 1.73-2.96 2.6-5.66 2.6-1.38 0-2.55-.27-3.52-.8-.97-.54-1.77-1.3-2.42-2.3-.39-.6-.74-1.27-1.07-2-.48 1.26-1.09 2.47-1.83 3.63-2.08 3.22-5.12 5.73-9.13 7.55-4 1.82-8.75 2.73-14.24 2.73-6.58 0-12.02-1.25-16.29-3.73-3.04-1.79-5.5-4.18-7.4-7.17-1.9-2.99-2.85-5.89-2.85-8.72 0-1.64.57-3.04 1.71-4.21 1.14-1.17 2.59-1.75 4.35-1.75 1.42 0 2.63.46 3.62 1.37.98.91 1.83 2.26 2.52 4.05.85 2.12 1.77 3.9 2.75 5.33.99 1.43 2.37 2.6 4.17 3.53 1.79.93 4.14 1.39 7.05 1.39 4.01 0 7.26-.93 9.76-2.8 2.5-1.87 3.75-4.19 3.75-6.99 0-2.21-.68-4.01-2.02-5.39-1.35-1.38-3.1-2.43-5.23-3.16-2.14-.73-5-1.5-8.58-2.32-4.79-1.12-8.81-2.43-12.04-3.94-3.23-1.5-5.8-3.55-7.69-6.14-1.9-2.59-2.84-5.82-2.84-9.67 0-3.67 1-6.93 3-9.78 2-2.85 4.9-5.05 8.69-6.58 3.79-1.53 8.36-2.61 13.49-2.61 4.1 0 7.82.5 10.75 1.69 9.25 3.1 11.74 10.03 11.74 10.03zm-12.3 3.74c-.9-1.38-1.89-2.53-2.99-3.44-1.7-1.41-4.43-2.12-8.19-2.12-3.49 0-6.3.77-8.44 2.3-2.14 1.53-3.21 3.38-3.21 5.53 0 1.34.36 2.49 1.09 3.46.73.97 1.73 1.81 3 2.5 1.27.7 2.56 1.25 3.87 1.64 1.3.39 3.46.97 6.46 1.73 3.76.88 7.17 1.85 10.22 2.91 1.71.6 3.27 1.27 4.7 2.01-2.71-7.43-4.89-13.29-4.89-13.29l-1.62-3.23z" class="st1"/><path d="M79.56 79.1c-1.7-1.41-4.43-2.12-8.19-2.12-3.49 0-6.3.77-8.44 2.3-2.14 1.53-3.21 3.38-3.21 5.53 0 1.34.36 2.49 1.09 3.46.73.97 1.73 1.8 3 2.5s2.56 1.25 3.87 1.64c1.3.39 3.46.97 6.46 1.73 3.76.88 7.17 1.85 10.22 2.91 1.71.6 3.27 1.27 4.7 2.01l-5.13-14.07c-1.22-2.52-2.67-4.48-4.37-5.89z" style="fill:none"/><path d="m94.85 78.79 11.19 28.24 5.93-20.72c.79-2.73 1.39-4.59 1.77-5.59.38-1 1.1-1.95 2.16-2.85 1.06-.91 2.51-1.36 4.35-1.36 1.87 0 3.33.45 4.39 1.36 1.06.9 1.8 1.88 2.23 2.94.43 1.06 1.03 2.89 1.79 5.49l7.45 26.07 8.27-28.05c.55-2.02 1-3.49 1.34-4.39.34-.9.9-1.7 1.7-2.39.8-.69 1.95-1.03 3.45-1.03 1.5 0 2.8.52 3.91 1.56 1.1 1.04 1.65 2.27 1.65 3.68 0 1.29-.48 3.23-1.43 5.84l-10.25 30.07c-.89 2.54-1.58 4.38-2.07 5.52-.49 1.13-1.27 2.15-2.32 3.03-1.06.89-2.51 1.33-4.35 1.33-1.9 0-3.39-.48-4.48-1.43a8.539 8.539 0 0 1-2.41-3.49c-.52-1.38-1.09-3.17-1.7-5.38l-7.17-24.46-6.94 24.46c-.92 3.4-1.91 5.97-2.99 7.7-1.07 1.73-2.96 2.6-5.65 2.6-1.38 0-2.55-.27-3.52-.8-.97-.54-1.77-1.3-2.41-2.3-.39-.6-.74-1.27-1.07-2-.48 1.26-1.09 2.47-1.83 3.63-2.08 3.22-5.12 5.73-9.13 7.55-4 1.82-8.75 2.73-14.25 2.73-6.58 0-12.01-1.24-16.29-3.73-3.03-1.79-5.5-4.18-7.39-7.17-1.9-2.99-2.84-5.89-2.84-8.72 0-1.64.57-3.04 1.71-4.21 1.14-1.17 2.59-1.75 4.35-1.75 1.43 0 2.63.46 3.62 1.37.99.91 1.83 2.26 2.53 4.05.85 2.12 1.77 3.9 2.75 5.32.99 1.43 2.37 2.6 4.16 3.53 1.79.93 4.14 1.39 7.05 1.39 4.01 0 7.26-.93 9.76-2.8 2.5-1.87 3.75-4.19 3.75-6.99 0-2.22-.68-4.01-2.03-5.39-1.35-1.38-3.1-2.43-5.23-3.16-2.14-.73-5-1.5-8.58-2.32-4.79-1.12-8.81-2.43-12.04-3.94-3.23-1.5-5.8-3.55-7.69-6.14-1.9-2.59-2.85-5.82-2.85-9.67 0-3.67 1-6.93 3-9.79 2-2.85 4.9-5.04 8.69-6.58 3.79-1.53 8.36-2.61 13.49-2.61 4.1 0 7.82.5 10.75 1.69 9.24 3.14 11.72 10.06 11.72 10.06zm-12.3 3.75c-.9-1.38-1.9-2.53-2.99-3.44-1.7-1.41-4.43-2.12-8.19-2.12-3.49 0-6.3.77-8.44 2.3-2.14 1.53-3.21 3.38-3.21 5.53 0 1.34.36 2.49 1.09 3.46.73.97 1.73 1.8 3 2.5s2.56 1.25 3.87 1.64c1.3.39 3.46.97 6.46 1.73 3.76.88 7.17 1.85 10.22 2.91 1.71.6 3.27 1.27 4.7 2.01-2.71-7.43-4.89-13.3-4.89-13.3l-1.62-3.22zM21.29 85.36l6.54 4.61-.27 1.72-7.63 2.38 8.16 1.27-.45 2.89-12.96-2.02.61-3.91 7.64-2.23-6.59-4.47.61-3.89 12.96 2.02-.45 2.89-8.17-1.26zM33.94 73.39l-3.08.13-1.95 5.14 2.22 2.15-1.11 2.91-10.25-9.95 1.01-2.65 14.27-.64-1.11 2.91zm-10.02.43 2.98 2.9 1.17-3.07-4.15.17zM23.92 63.86l1.48-2.53 4.65 2.72-2.14-7 1.83-3.12 2.36 7.43c.77-.07 2.19-.2 4.28-.38 2.09-.18 3.64-.32 4.67-.42l-1.73 2.95-6.41.7.6 1.87 3.21 1.88-1.48 2.53-11.32-6.63zM37.25 44.68l2.02 1.65-4.14 5.05 2.09 1.71 3.72-4.54 1.93 1.58-3.72 4.54 2.1 1.72 4.27-5.21 2 1.64-6.12 7.48L31.26 52l5.99-7.32zM48.76 37.59l6.73 8.17-2.26 1.86-6.73-8.17-2.87 2.36-1.61-1.95 7.99-6.59 1.61 1.95-2.86 2.37zM59.27 27.51l2.52-1.49 6.68 11.29-2.52 1.49-2.63-4.44-4.49 2.66 2.63 4.44-2.52 1.49-6.68-11.29 2.52-1.49 2.79 4.71 4.49-2.66-2.79-4.71zM74.15 20.93l.95 2.43-6.08 2.38.98 2.51 5.47-2.14.91 2.32-5.47 2.14.99 2.53 6.27-2.46.95 2.41-9 3.53-4.79-12.21 8.82-3.44zM85.23 20.89c-.24.28-.32.6-.26.98.07.38.29.65.67.81.38.16 1.21.29 2.49.37 1.28.09 2.31.37 3.09.86.78.48 1.28 1.31 1.48 2.46.2 1.16-.07 2.17-.81 3.05-.74.87-1.82 1.43-3.24 1.68-2.05.36-4.02-.07-5.93-1.3l1.35-2.41c1.61.98 3 1.36 4.18 1.15.53-.09.93-.28 1.19-.56.26-.28.36-.61.29-1a1.09 1.09 0 0 0-.64-.84c-.36-.17-1.04-.29-2.03-.36-1.57-.09-2.75-.37-3.54-.82-.8-.45-1.3-1.29-1.52-2.51-.22-1.23.06-2.25.82-3.07.76-.82 1.81-1.35 3.12-1.58a8.24 8.24 0 0 1 2.67-.01c.91.14 1.74.43 2.48.86L90 21.01c-1.27-.65-2.5-.87-3.7-.67-.47.1-.83.28-1.07.55zM98.52 24.28l2.47-7.5 3.06.06 2.17 7.59 2.75-7.49 3.17.06-4.82 13.03-2.18-.04-2.7-9.17-3.02 9.07-2.18-.04-4.33-13.2 3.17.06 2.44 7.57zM113.98 17.8l2.89.45-2.02 12.96-2.89-.45 2.02-12.96zM125.04 22.84l-2.85 10.19-2.82-.79 2.85-10.19-3.58-1 .68-2.44 9.98 2.79-.68 2.44-3.58-1zM133.03 34.41c1.31.59 2.62.56 3.92-.1l.91 2.53c-2.05.91-3.99.95-5.83.12-1.84-.83-3.09-2.1-3.76-3.8-.66-1.7-.6-3.44.21-5.21.8-1.77 2.08-2.98 3.83-3.61 1.75-.64 3.5-.56 5.26.24 1.96.89 3.26 2.38 3.91 4.47l-2.51 1.13c-.37-1.43-1.18-2.43-2.43-3-1-.45-2.01-.51-3.02-.18-1.01.33-1.76 1.05-2.27 2.17-.5 1.11-.57 2.16-.2 3.13.36.97 1.03 1.68 1.98 2.11zM151.72 33.21l2.42 1.65-7.38 10.84-2.42-1.65 2.9-4.27-4.31-2.94-2.9 4.27-2.42-1.65 7.38-10.84 2.42 1.65-3.08 4.53 4.31 2.94 3.08-4.53z" class="st6"/><path d="M40.33 141.79c-.34-.1-.67-.05-.98.16-.31.21-.46.52-.45.93.01.41.22 1.21.66 2.4.43 1.2.59 2.25.47 3.15-.12.91-.66 1.69-1.61 2.34-.95.66-1.97.82-3.04.5-1.08-.32-2.01-1.07-2.8-2.25-1.14-1.71-1.54-3.67-1.2-5.9l2.69.25c-.23 1.85-.01 3.27.64 4.26.3.44.62.73.98.85s.69.07 1.01-.14c.32-.22.48-.53.49-.92.01-.4-.15-1.06-.49-1.98-.54-1.46-.77-2.64-.69-3.54.08-.91.63-1.7 1.64-2.4 1.01-.69 2.03-.86 3.07-.5s1.92 1.09 2.66 2.19c.48.72.84 1.52 1.08 2.41.24.89.31 1.75.22 2.59l-2.55-.03c.08-1.42-.22-2.62-.88-3.62-.27-.39-.57-.65-.92-.75zM44.42 155.14l6.77-3.77 2.15 2.11-3.52 6.98 6.97-3.58 2.23 2.19-12.15 6.19-1.53-1.5 4.19-8.49-8.22 4.53-1.53-1.5 5.72-12.52 2.23 2.19-3.31 7.17zM60 159l2.36 1.65-7.28 10.73-2.36-1.65L60 159zM68.14 166.96l-4.86 9.28-2.53-1.36 4.86-9.29-3.21-1.73 1.16-2.22 8.95 4.82-1.16 2.22-3.21-1.72zM76.01 178.8c1.33.45 2.6.29 3.8-.49l1.14 2.41c-1.9 1.11-3.79 1.34-5.67.7-1.87-.64-3.22-1.77-4.04-3.38-.82-1.61-.92-3.34-.32-5.17.61-1.83 1.73-3.15 3.37-3.95 1.64-.8 3.36-.9 5.14-.29 2 .68 3.41 2.02 4.25 4.02l-2.33 1.37c-.5-1.38-1.39-2.28-2.67-2.72-1.02-.35-2.01-.3-2.96.12-.95.43-1.61 1.22-1.99 2.37-.38 1.15-.34 2.19.11 3.12.48.93 1.19 1.56 2.17 1.89zM93.55 171.99l2.84.4-1.79 12.9-2.84-.41.7-5.07-5.06-.72-.7 5.07-2.84-.4 1.79-12.9 2.84.41-.75 5.39 5.06.72.75-5.39zM101.8 174.91c-.27.24-.39.55-.38.93.01.38.19.68.54.88.34.21 1.13.45 2.36.71 1.23.26 2.19.68 2.88 1.27s1.06 1.46 1.1 2.63c.04 1.17-.36 2.13-1.2 2.88-.84.76-1.96 1.16-3.37 1.21-2.03.07-3.89-.63-5.57-2.1l1.64-2.18c1.42 1.18 2.72 1.75 3.9 1.71.52-.02.93-.15 1.23-.39.29-.24.43-.56.42-.95-.01-.39-.18-.7-.51-.91-.33-.22-.96-.43-1.91-.63-1.51-.31-2.61-.74-3.32-1.29s-1.09-1.45-1.13-2.68c-.04-1.24.36-2.2 1.21-2.91.85-.7 1.93-1.07 3.24-1.12.86-.03 1.72.09 2.58.36.87.27 1.63.66 2.28 1.19l-1.38 2.17c-1.14-.82-2.31-1.21-3.49-1.16-.48.01-.85.14-1.12.38zM122.46 180.6c-.99 1.54-2.42 2.51-4.27 2.93-1.85.41-3.55.13-5.09-.84s-2.51-2.39-2.92-4.26c-.4-1.87-.11-3.57.88-5.11 1-1.54 2.42-2.52 4.27-2.93 1.85-.41 3.55-.13 5.09.84s2.51 2.39 2.92 4.26c.41 1.86.12 3.57-.88 5.11zm-1.96-4.47c-.25-1.13-.81-2.02-1.71-2.66-.89-.64-1.86-.84-2.91-.61-1.05.23-1.84.83-2.39 1.79-.54.96-.69 2.01-.45 3.14.25 1.13.81 2.02 1.7 2.65.89.64 1.86.84 2.9.6 1.05-.23 1.84-.83 2.39-1.78.57-.95.71-1.99.47-3.13zM131.56 165.05l.97 2.36-5.49 2.33 1.07 2.6 5.22-2.21.97 2.36-5.22 2.21 1.94 4.71-2.64 1.12-4.95-12.02 8.13-3.46zM138.98 163.56l5.35 9-2.45 1.5-5.35-9-3.11 1.9-1.28-2.15 8.68-5.31 1.28 2.15-3.12 1.91z" class="st7"/><path d="m149.83 161.78-3.33-7.07 2.2-2.06 6.67 3.95-3.13-7.26 2.28-2.13 5.41 12.66-1.57 1.47-8.12-4.73 4 8.58-1.57 1.47-12-6.49 2.28-2.14 6.88 3.75zM169.85 146.99l-2.95-.64-3.11 4.46 1.57 2.61-1.76 2.52-7.27-12.12 1.6-2.3 13.68 2.94-1.76 2.53zm-9.6-2.08 2.11 3.53 1.86-2.66-3.97-.87zM169.57 128.53c1.87.88 2.73 2.2 2.59 3.95l5.53-1.03-1.49 3.24-4.91.87-.84 1.82 3.71 1.75-1.21 2.64-11.64-5.49 2.05-4.48c.84-1.84 1.75-3 2.72-3.5.97-.48 2.14-.41 3.49.23zm-.07 3.83c-.14-.46-.52-.84-1.15-1.14-.63-.3-1.13-.33-1.52-.1-.39.23-.78.76-1.16 1.61l-.91 1.98 3.45 1.63.88-1.93c.41-.91.55-1.59.41-2.05zM168.79 115.62l2.46.68-1.68 6.26 2.55.71 1.51-5.63 2.36.65-1.51 5.63 2.57.71 1.73-6.46 2.44.68-2.48 9.26-12.39-3.42 2.44-9.07zM181.39 115.36c-.35.27-.76.36-1.2.3-.45-.07-.8-.28-1.07-.64-.26-.36-.36-.77-.29-1.22.07-.46.28-.82.63-1.08.35-.27.76-.36 1.2-.3.45.07.8.28 1.07.64.26.36.36.77.29 1.22-.06.45-.27.81-.63 1.08zM179.41 105.75c.61-.47.92-1.12.94-1.93.02-.82-.26-1.48-.84-1.97s-1.39-.75-2.42-.78l-7.09-.17.07-2.91 7.18.17c1.86.05 3.28.6 4.25 1.67.97 1.07 1.44 2.41 1.4 4.04-.04 1.63-.57 2.95-1.6 3.98-1.03 1.03-2.47 1.52-4.32 1.47l-7.18-.17.07-2.91 7.09.17c1.03.03 1.84-.19 2.45-.66zM171.91 92.42c.27.24.58.34.95.28s.64-.27.81-.64c.17-.37.31-1.19.42-2.46.12-1.27.42-2.28.91-3.05.49-.77 1.31-1.23 2.45-1.41 1.14-.17 2.13.12 2.96.88.84.76 1.36 1.84 1.57 3.26.3 2.04-.17 3.99-1.42 5.85l-2.33-1.4c.99-1.57 1.4-2.95 1.23-4.12-.08-.53-.25-.93-.52-1.19-.27-.27-.59-.37-.98-.31-.38.06-.66.26-.84.62-.18.35-.31 1.02-.4 2-.13 1.55-.42 2.72-.88 3.5-.46.78-1.29 1.26-2.5 1.45-1.2.18-2.2-.11-2.98-.89-.78-.78-1.27-1.83-1.47-3.14-.13-.86-.11-1.74.05-2.65.16-.9.46-1.72.9-2.44l2.29 1.14c-.67 1.25-.92 2.46-.74 3.66.09.46.26.82.52 1.06z" class="st7"/></svg>