<svg xmlns="http://www.w3.org/2000/svg" xml:space="preserve" id="Layer_1" x="0" y="0" style="enable-background:new 0 0 200 80" version="1.1" viewBox="0 0 200 80"><style>.st0{fill-rule:evenodd;clip-rule:evenodd;fill:#e1251b}</style><path d="M14.5 28.15c-6.5 0-11.8 5.3-11.8 11.8s5.3 11.8 11.8 11.8 11.8-5.3 11.8-11.8-5.3-11.8-11.8-11.8zm0 22.5c-5.9 0-10.7-4.8-10.7-10.7s4.8-10.7 10.7-10.7 10.7 4.8 10.7 10.7-4.8 10.7-10.7 10.7z" class="st0"/><path d="M16.9 35.65c.3.1.4.4.4.7 0 .2 0 .3-.1.4l-2.4 4.2c-.1.1-.2.2-.3.2s-.3-.1-.3-.2l-2.4-4.2c-.1-.1-.1-.3-.1-.4 0-.3.2-.5.4-.7h.1c.8-.3 1.6-.4 2.4-.4s1.6.1 2.3.4m-7.1 1.3c.2-.1.4-.2.6 0 .1.1.2.2.2.3l1.9 3.4c.1.1.1.2 0 .3s-.2.2-.3.2H8.3c-.1 0-.2 0-.3-.1-.2-.1-.3-.3-.3-.6v-.1c.1-.6.3-1.3.7-1.8.4-.5.9-1.1 1.4-1.6 0 .1 0 .1 0 0zm9.4 0c-.2-.1-.4-.2-.6 0-.1.1-.2.2-.2.3l-1.9 3.4c-.1.1-.1.2 0 .3s.2.2.3.2h3.9c.1 0 .2 0 .3-.1.2-.1.3-.3.3-.6v-.1c-.1-.6-.3-1.3-.7-1.8s-.9-1.1-1.4-1.6c0 .1 0 .1 0 0zm-4.1 5.3v3.6h-1.2v-3.6H8.5c-.3 0-.7-.1-1-.2-.6-.3-.9-1-.9-1.6v-.2c.1-.8.4-1.5.8-2.2.4-.7.9-1.3 1.5-1.8.4-.3 1-.4 1.5-.3.1-.5.5-.9.9-1.1.1 0 .2-.1.2-.1.9-.3 1.8-.5 2.8-.5s1.9.2 2.8.5c.5.2 1 .7 1.1 1.2.5-.1 1 0 1.4.3.6.5 1.2 1.2 1.6 1.9.4.7.7 1.5.8 2.2v.2c0 .6-.3 1.3-.9 1.6-.3.2-.6.3-1 .2h-3.8c.1-.1-.7-.1-1.2-.1zM40.9 28.15l5.7 11.8 5.8-11.8h8.7v23.6h-8.7v-11.8l-5.8 11.8-5.7-11.8v11.8h-8.7v-23.6h8.7M63.9 51.75l6.8-23.5H86l6.8 23.5H84l-1.1-3.9h-9.3l-1.1 3.9h-8.6m14.4-20-3.5 12.3h7.1l-3.6-12.3zM111.8 28.25c3.8 0 6.9 3.1 6.9 6.9s-3.1 6.9-6.9 6.9h-7.6v9.8h-8.7v-23.6h16.3m-5.6 2.7c2 0 3.9 1 3.9 3.2s-1.7 3.9-3.9 3.9h-1.9v-7h1.9v-.1zM121.6 28.15h23.2v3.9h-14.5v6h14.5v3.9h-14.5v9.8h-8.7v-23.6M182.9 47.85h14.4v3.9h-23.1v-23.6h23.1v3.9h-14.4v6h14.4v3.9h-14.4v5.9M170.9 45.85v5.9h-8.6v-5.9c0-2.1-1.7-3.9-3.9-3.9h-1.9v9.7h-8.8v-23.4H165c3.3 0 5.9 2.6 5.9 5.9 0 3.2-2.6 5.9-5.9 5.9 3.2 0 5.8 2.5 5.9 5.7v.1m0-.2v.2-.2zm-12.4-14.7c1.9 0 3.9 1 3.9 3.2s-1.7 3.9-3.9 3.9h-1.9v-7h1.9v-.1z" class="st0"/></svg>