<svg xmlns="http://www.w3.org/2000/svg" xml:space="preserve" id="Layer_1" x="0" y="0" style="enable-background:new 0 0 200 80" version="1.1" viewBox="0 0 200 80"><style>.st0{display:none}.st1{fill-rule:evenodd;clip-rule:evenodd;fill:#e1251b}.st1,.st2,.st4{display:inline}.st2{fill:#273896;stroke:#273896;stroke-width:.0938;stroke-miterlimit:10}.st4{fill:#231f20}.st16,.st6,.st7{display:inline;fill:#005ea5}.st16,.st7{fill:#009bdd}.st16{fill-rule:evenodd;clip-rule:evenodd;fill:#004679}.st17{fill:#1f1d4b}.st18{fill:#c7ca11}</style><path d="M103.724 48.571c0 1.256 1.187 1.884 2.372 1.884 3.49 0 4.572-2.407 5.305-5.304h-1.64c-2.269 0-6.037.383-6.037 3.42zM151.122 38.694c-3.698 0-5.549 4.083-5.549 7.329 0 2.373.977 4.223 3.665 4.223 3.63 0 5.444-4.188 5.444-7.258-.001-2.339-.803-4.294-3.56-4.294z" class="st17"/><path d="M8.989 30.165v27.717h67.969l4.147-20.06c.175-.872.314-1.57.384-2.339h4.432l-.523 2.373h.07c1.362-1.92 3.036-2.792 5.409-2.792 4.467 0 6.596 3.036 6.596 7.294 0 5.619-3.107 11.516-9.353 11.516-2.059 0-4.187-.698-4.955-3.21h-.07l-1.468 7.218h37.135l.532-1.705c1.849.768 3.63 1.396 5.653 1.396 4.955 0 5.688-3.455 6.805-7.538h-.07c-1.186 2.164-3.455 3.42-6.038 3.42-4.362 0-6.246-3.664-6.246-7.607 0-5.375 3.28-10.784 9.108-10.784 2.371 0 4.362 1.152 5.479 3.036l.522-2.618h4.502c-.14.489-.35 1.362-.593 2.513l-2.863 13.506c-.508 2.582-1.315 4.738-2.587 6.38h58.044V30.165H8.989zm105.134 23.291h-3.944l.489-2.757h-.07c-1.605 2.024-3.21 3.175-5.792 3.175-3.245 0-5.549-1.815-5.549-5.13 0-5.932 6.63-6.386 11.027-6.386h1.64c.14-.489.14-1.012.14-1.535 0-1.815-1.955-2.338-3.595-2.338-2.059 0-4.048.523-5.897 1.395l.663-3.734c1.989-.698 4.012-1.082 6.107-1.082 3.594 0 6.979 1.326 6.979 5.549 0 2.409-1.78 9.458-2.198 12.843zm34.73.419c-5.094 0-8.165-3.14-8.165-8.201 0-6.002 4.607-10.609 10.643-10.609 4.851 0 8.237 2.932 8.237 7.887 0 6.317-4.362 10.923-10.715 10.923zm26.145-14.552c-1.222-.454-2.513-.837-3.838-.837-1.396 0-3.142.384-3.142 1.815 0 2.268 6.073 3.106 6.073 7.503 0 4.677-4.082 6.072-8.097 6.072-1.884 0-3.768-.279-5.479-1.082l1.012-3.734c1.327.733 2.653 1.395 4.467 1.395 1.571 0 3.21-.523 3.21-1.989 0-2.897-6.071-3.175-6.071-7.677 0-4.223 4.082-5.723 7.782-5.723 1.709 0 3.455.314 5.094.733l-1.011 3.524z" class="st17"/><path d="M124.282 45.814c0 2.164.874 4.013 2.967 4.013 3.733 0 5.269-3.942 5.269-7.362 0-2.095-1.222-3.77-3.385-3.77-3.385-.001-4.851 4.431-4.851 7.119zM87.422 50.246c3.909 0 5.164-4.886 5.164-7.712 0-2.198-1.117-3.839-3.28-3.839-3.175 0-4.955 4.188-4.955 7.329-.001 2.302.802 4.222 3.071 4.222z" class="st17"/><path d="M191.011 22.117H8.989v8.048h64.533l-1.635 7.447c-1.465-1.675-3.245-2.547-5.549-2.547-6.107 0-9.038 5.967-9.038 11.342 0 3.908 1.92 7.467 6.177 7.467 2.723 0 4.467-1.117 5.863-3.07h.07l-.454 2.652h4.362c.105-.907.384-2.443.663-3.979l4.221-19.312h112.809v-8.048zM65.048 50.246c-2.303 0-2.862-2.443-2.862-4.258 0-2.687 1.57-7.294 4.92-7.294 2.373 0 3.385 2.164 3.385 4.258.001 3.315-2.024 7.294-5.443 7.294z" class="st18"/><path d="M36.459 35.065c-2.164 0-4.467 1.85-5.305 3.804h-.07l.628-3.385h-4.467c-.14.838-.279 1.64-.419 2.408l-3.21 15.564h4.676l1.675-8.062c.593-2.896 2.199-5.862 5.514-5.862.593 0 1.257.105 1.78.279l.978-4.571c-.559-.14-1.186-.175-1.78-.175zM47.804 35.065c-5.898 0-10.225 5.374-10.225 10.958 0 5.34 3.49 7.852 8.654 7.852 1.92 0 3.909-.453 5.723-1.012l.593-3.699c-1.745.802-3.594 1.291-5.514 1.291-3.21 0-4.99-1.221-4.99-4.536h12.667c.28-1.326.454-2.653.454-4.013.001-4.572-2.93-6.841-7.362-6.841zm2.792 7.643h-7.922c.907-2.477 2.163-4.222 5.06-4.222 1.954 0 2.965 1.082 2.965 3.001.001.418-.033.802-.103 1.221z" class="st18"/></svg>