<svg xmlns="http://www.w3.org/2000/svg" xml:space="preserve" id="Layer_1" x="0" y="0" style="enable-background:new 0 0 200 80" version="1.1" viewBox="0 0 200 80"><style>.st0{display:none}.st1{fill-rule:evenodd;clip-rule:evenodd;fill:#e1251b}.st1,.st2,.st4{display:inline}.st2{fill:#273896;stroke:#273896;stroke-width:.0938;stroke-miterlimit:10}.st4{fill:#231f20}.st16,.st6,.st7{display:inline;fill:#005ea5}.st16,.st7{fill:#009bdd}.st16{fill-rule:evenodd;clip-rule:evenodd;fill:#004679}.st17{fill:#f39336}</style><path d="M24.765 34.091a8.825 8.825 0 0 0-1.928-1.149 5.302 5.302 0 0 0-1.887-.369 2.998 2.998 0 0 0-1.846.533 1.685 1.685 0 0 0-.739 1.436c-.002.362.13.713.369.985.273.273.593.496.944.656a6.22 6.22 0 0 0 1.313.492l1.477.451a9.307 9.307 0 0 1 4.103 2.585 6.276 6.276 0 0 1 1.354 4.103 7.765 7.765 0 0 1-.615 3.159 6 6 0 0 1-1.723 2.421 7.832 7.832 0 0 1-2.749 1.6 11.724 11.724 0 0 1-3.734.533c-2.851-.012-5.63-.9-7.96-2.544l2.544-4.759a9.03 9.03 0 0 0 2.626 1.723 5.732 5.732 0 0 0 2.544.574 2.955 2.955 0 0 0 2.134-.656c.448-.29.758-.749.862-1.272a1.886 1.886 0 0 0-.821-1.6 3.623 3.623 0 0 0-1.067-.574l-1.641-.615-2.257-.78a6.795 6.795 0 0 1-1.969-1.19 4.673 4.673 0 0 1-1.354-1.805 6.143 6.143 0 0 1-.533-2.79 8.21 8.21 0 0 1 .533-2.954 6.894 6.894 0 0 1 4.103-3.857 8.948 8.948 0 0 1 3.241-.574 13.58 13.58 0 0 1 3.529.492 14.27 14.27 0 0 1 3.529 1.354l-2.382 4.391zM43.516 47.057h-8.452L33.71 51.16h-6.277l8.616-22.976h6.442l8.657 22.689h-6.277l-1.355-3.816zm-1.601-4.514-2.626-7.549-2.667 7.549h5.293zM52.009 50.996V28.183h5.908L68.79 42.051V28.183h5.867v22.689H68.79L57.917 37.005v13.868l-5.908.123zM102.449 50.874h-7.344l-5.621-8.739v8.739H83.74V28.185h9.026a8.869 8.869 0 0 1 3.282.492 6.238 6.238 0 0 1 2.339 1.518 6.154 6.154 0 0 1 1.395 2.216c.322.865.475 1.785.451 2.708a6.686 6.686 0 0 1-1.231 4.103 6.197 6.197 0 0 1-3.693 2.175l7.14 9.477zM89.484 38.319h1.108c.94.054 1.874-.19 2.667-.697a2.79 2.79 0 0 0 0-4.103 4.48 4.48 0 0 0-2.667-.739h-1.108v5.539zM101.751 39.55a11.817 11.817 0 0 1 .944-4.718 11.206 11.206 0 0 1 2.585-3.816 12.318 12.318 0 0 1 4.103-2.544 14.69 14.69 0 0 1 10.134 0 11.772 11.772 0 0 1 6.606 6.36 12.682 12.682 0 0 1 0 9.396 11.779 11.779 0 0 1-6.606 6.36 14.69 14.69 0 0 1-10.134 0 12.302 12.302 0 0 1-4.103-2.544 11.196 11.196 0 0 1-2.585-3.816 11.789 11.789 0 0 1-.944-4.678zm6.155 0a6.04 6.04 0 0 0 .533 2.462 5.7 5.7 0 0 0 1.395 2.01 6.115 6.115 0 0 0 2.01 1.313 6.938 6.938 0 0 0 4.924 0 6.542 6.542 0 0 0 2.01-1.313 6.434 6.434 0 0 0 1.436-2.01 5.99 5.99 0 0 0 .492-2.462 6.2 6.2 0 0 0-.492-2.503 6.423 6.423 0 0 0-1.436-2.01 7.395 7.395 0 0 0-2.01-1.313 6.938 6.938 0 0 0-4.924 0 6.805 6.805 0 0 0-2.01 1.313 5.705 5.705 0 0 0-1.477 1.846 6.192 6.192 0 0 0-.451 2.667zM127.887 39.55c.001-1.624.336-3.23.985-4.718a11.206 11.206 0 0 1 2.585-3.816 12.02 12.02 0 0 1 4.103-2.544 13.314 13.314 0 0 1 5.047-.903 13.668 13.668 0 0 1 5.088.903 12.302 12.302 0 0 1 4.103 2.544 11.196 11.196 0 0 1 2.585 3.816 12.306 12.306 0 0 1 0 9.067 10.054 10.054 0 0 1-2.216 3.57l3.857 4.103-5.416.862-2.051-2.134c-.913.4-1.861.716-2.831.944a13.115 13.115 0 0 1-3.159.328 13.294 13.294 0 0 1-5.047-.903 12.02 12.02 0 0 1-4.103-2.544 11.196 11.196 0 0 1-2.585-3.816 11.718 11.718 0 0 1-.945-4.759zm6.154 0a5.99 5.99 0 0 0 .492 2.462 7.03 7.03 0 0 0 1.395 2.01 6.294 6.294 0 0 0 2.051 1.313 6.681 6.681 0 0 0 2.421.451 7.017 7.017 0 0 0 1.6 0l-3.405-3.57 5.58-.697 1.559 1.682a5.783 5.783 0 0 0 1.108-3.487 6.203 6.203 0 0 0-.533-2.503 6.304 6.304 0 0 0-1.395-2.01 6.4 6.4 0 0 0-4.513-1.764 6.681 6.681 0 0 0-2.421.451 6.233 6.233 0 0 0-3.446 3.323 6.19 6.19 0 0 0-.493 2.339zM160.341 28.185v12.309c-.04.67-.04 1.341 0 2.01.038.651.191 1.29.451 1.887.23.574.65 1.052 1.19 1.354a4.103 4.103 0 0 0 2.257.533c.802.051 1.6-.135 2.298-.533a3.204 3.204 0 0 0 1.19-1.354c.26-.598.413-1.237.451-1.887V28.185h5.867v13.17a10.669 10.669 0 0 1-2.257 7.837 10.052 10.052 0 0 1-7.467 2.421 10.01 10.01 0 0 1-7.426-2.421 10.508 10.508 0 0 1-2.462-7.714V28.185h5.908zM188.857 33.19h-7.016v3.693h6.647v5.006h-6.647v4.103h7.016v5.006h-12.924V28.185h12.924v5.005z" class="st17"/></svg>