<svg xmlns="http://www.w3.org/2000/svg" xml:space="preserve" id="Layer_1" x="0" y="0" style="enable-background:new 0 0 200 80" version="1.1" viewBox="0 0 200 80"><style>.st0{display:none}.st1{fill-rule:evenodd;clip-rule:evenodd;fill:#e1251b}.st1,.st2,.st4{display:inline}.st2{fill:#273896;stroke:#273896;stroke-width:.0938;stroke-miterlimit:10}.st4{fill:#231f20}.st16,.st6,.st7{display:inline;fill:#005ea5}.st16,.st7{fill:#009bdd}.st16{fill-rule:evenodd;clip-rule:evenodd;fill:#004679}.st18{fill:#5a6772}</style><g id="Group_660" transform="translate(-284.276 -214.998)"><path id="Path_655" d="M346.427 231.632c3.704 0 7.408.006 11.114-.005a2.561 2.561 0 0 1 2.246.981 2.594 2.594 0 0 1-1.722 4.151 8.088 8.088 0 0 1-1.067.031c-6.625 0-13.249-.018-19.873.008-7.17-.105-13.067 5.621-13.173 12.791a12.987 12.987 0 0 0 2.386 7.694 13.25 13.25 0 0 0 8.354 5.297 6.49 6.49 0 0 0 1.275.1c3.775.016 7.55.026 11.325.03a2.387 2.387 0 0 0 2.399-1.61 2.492 2.492 0 0 0-1.855-3.432 6.453 6.453 0 0 0-1.271-.111c-3.168-.009-6.338-.011-9.51-.005a7.48 7.48 0 0 1-6.668-3.526 7.776 7.776 0 0 1 6.285-12.027c3.773-.09 7.553-.112 11.324.005 10.03.36 17.868 8.783 17.508 18.813a18.172 18.172 0 0 1-10.679 15.908 18.445 18.445 0 0 1-7.665 1.628c-6.696.031-13.391.011-20.087.01a3.259 3.259 0 0 1-2.126-.55 2.528 2.528 0 0 1-.92-2.857 2.466 2.466 0 0 1 2.168-1.797 7.299 7.299 0 0 1 1.066-.03c6.592 0 13.178-.054 19.766.015 7.162.169 13.105-5.5 13.275-12.662a12.97 12.97 0 0 0-5.438-10.869 12.893 12.893 0 0 0-7.601-2.421c-3.312.011-6.625 0-9.936.008a4.363 4.363 0 0 0-1.262.143 2.497 2.497 0 0 0-1.705 2.453 2.458 2.458 0 0 0 1.763 2.409c.446.118.906.174 1.367.166 3.348.014 6.696-.03 10.041.019a7.775 7.775 0 0 1 7.589 7.959 7.778 7.778 0 0 1-7.735 7.592c-3.632.028-7.271.136-10.897-.022-7.685-.336-13.236-4.071-16.333-11.1a17.83 17.83 0 0 1 3.807-19.839 17.163 17.163 0 0 1 12.203-5.326c3.418-.058 6.838-.011 10.257-.011l.005-.011z" style="fill:#3f4095"/><path id="Path_656" d="M430.458 254.141c1.078.504 1.966.865 2.802 1.323a7.73 7.73 0 0 1 4.305 6.011c.546 4.642-1.065 8.278-5.908 10.303a18.083 18.083 0 0 1-6.885 1.264c-4.665.043-9.331.02-13.996.01-1.671 0-2.794-.737-3.235-2.105a3.826 3.826 0 0 1-.158-1.15c-.008-9.936.009-19.873-.022-29.809a3.177 3.177 0 0 1 3.269-3.329c4.522-.067 9.044-.094 13.566.013a15.065 15.065 0 0 1 6.116 1.282 8.589 8.589 0 0 1 4.702 4.712 8.749 8.749 0 0 1-3.533 10.811c-.287.179-.572.371-1.023.664zm-16.925 13.344c.214.045.431.076.648.094 3.598 0 7.196.047 10.793-.033a10.42 10.42 0 0 0 3.224-.639 4.409 4.409 0 0 0 3.19-4.222 4.337 4.337 0 0 0-2.749-4.503 10.843 10.843 0 0 0-4.582-.843c-3.134-.05-6.269-.02-9.404-.008a8.577 8.577 0 0 0-1.118.149l-.002 10.005zm.006-15.453c.486.039.903.099 1.32.101 1.886.011 3.773.02 5.659 0a53.057 53.057 0 0 0 3.408-.134 7.282 7.282 0 0 0 3.149-.913 4.41 4.41 0 0 0 2.299-4.267 4.217 4.217 0 0 0-2.77-3.939 8.213 8.213 0 0 0-3.326-.637c-2.954.005-5.909 0-8.863.005a8.588 8.588 0 0 0-.876.094v9.69z" class="st18"/><path id="Path_657" d="M390.326 273.056a22.041 22.041 0 0 1-12.835-4.278 2.745 2.745 0 0 1-1.317-1.856c-.153-1.213.057-2.289 1.213-2.952a2.938 2.938 0 0 1 3.408.14 18.979 18.979 0 0 0 4.216 2.489c2.703 1.061 5.466 1.601 8.336.775a7.35 7.35 0 0 0 1.928-.877 4.098 4.098 0 0 0 1.561-5.075 3.602 3.602 0 0 0-1.827-1.87 21.51 21.51 0 0 0-5.419-1.889 30.219 30.219 0 0 1-7.928-2.734c-3.53-1.971-4.655-5.038-4.346-8.908.447-5.595 5.043-8.282 8.874-9.018 2.985-.52 6.05-.357 8.962.479a16.129 16.129 0 0 1 5.558 2.638 2.79 2.79 0 0 1-.337 4.72 3.088 3.088 0 0 1-2.957-.103 38.679 38.679 0 0 0-3.917-1.92 10.268 10.268 0 0 0-6.386-.505 6.61 6.61 0 0 0-2.376 1.144 3.929 3.929 0 0 0 .511 6.426 23.622 23.622 0 0 0 5.293 1.925c1.951.53 3.909 1.065 5.814 1.728 1.071.387 2.09.901 3.038 1.533a7.879 7.879 0 0 1 3.715 5.948c.367 3.32-.383 6.294-2.814 8.709a10.282 10.282 0 0 1-4.084 2.447 18.257 18.257 0 0 1-5.884.884z" class="st18"/><path id="Path_658" d="M449.877 254.937c0 4.946-.008 9.892.006 14.838a2.903 2.903 0 0 1-1.367 2.711c-1.748 1.082-4.626.153-4.624-2.486v-7.045c0-7.544-.003-15.087-.008-22.631a3.467 3.467 0 0 1 .629-2.202 3.09 3.09 0 0 1 3.27-1.005 2.791 2.791 0 0 1 2.079 2.555c.026.354.015.711.015 1.067v14.198z" class="st18"/></g></svg>