<svg xmlns="http://www.w3.org/2000/svg" xml:space="preserve" id="Layer_1" x="0" y="0" style="enable-background:new 0 0 200 80" version="1.1" viewBox="0 0 200 80"><style>.st0{display:none}.st1{fill-rule:evenodd;clip-rule:evenodd;fill:#e1251b}.st1,.st2,.st4{display:inline}.st2{fill:#273896;stroke:#273896;stroke-width:.0938;stroke-miterlimit:10}.st4{fill:#231f20}.st16,.st6,.st7{display:inline;fill:#005ea5}.st16,.st7{fill:#009bdd}.st16{fill-rule:evenodd;clip-rule:evenodd;fill:#004679}.st17{fill:#ed1c24}.st18{fill:#231f20}</style><path d="M111.718 43.546V30.442l-7.45 13.104h7.45" class="st17"/><path d="m81.528 35.367-4.403 7.947h5.626l-.548 1.696c-1.409 4.148-5.86 7.322-9.404 7.322-6.652 0-11.415-5.124-11.415-11.962 0-6.351 3.966-11.724 11.175-11.724a20 20 0 0 1 .785.02v-.039h10.995l-5.626-10.152c-2.451-.001-3.928-.08-6.707-.08-12.148 0-21.732 10.13-21.732 22.094 0 11.965 9.584 22.1 21.732 22.1 11.375 0 19.247-8.153 21.349-17.692l-5.282-9.531h-6.545M137.169 31.293c0-1.833 1.096-2.479 2.44-2.479h7.78l-5.779-10.329h-3.523c-6.659 0-12.779 4.973-12.779 12.091 0 7.192 11.802 13.54 11.802 17.557 0 2.734-1.713 3.714-4.152 3.714h-7.659v.003h.439l4.818 8.637 1.05 1.895h5.565c6.356 0 12.554-5.787 12.554-12.728 0-10.015-12.556-14.762-12.556-18.361" class="st18"/><path d="M125.738 51.851h-4.621v10.006h-9.4V51.851H96.925l5.81 10.408s3.76 6.999 14.114 6.999c14.111 0 18.524-.071 18.524-.071l-3.766-6.803-1.05-1.895-4.819-8.638M105.79 23.668c2.623-4.792-.216-8.735-.216-8.735s-2.517-4.191-10.33-4.191H74.429l4.285 7.733 5.626 10.152 3.735 6.739 5.282 9.531.05.092c-.001 0 9.756-16.526 12.383-21.321" class="st17"/></svg>