<svg xmlns="http://www.w3.org/2000/svg" xml:space="preserve" id="Layer_1" x="0" y="0" style="enable-background:new 0 0 1950.7 730.6" version="1.1" viewBox="0 0 1950.7 730.6"><style>.st0{fill:#fff}</style><path d="M131.4 342.4h-14.5v-83.5c0-6.6.4-14.7 1.2-24.2h-.3c-1.4 5.6-2.6 9.6-3.7 12.1l-42.5 95.7h-7.1l-42.5-95c-1.2-2.8-2.5-7-3.7-12.8H18c.5 5 .7 13.1.7 24.4v83.4H4.5V217.9h19.3L62 304.7c3 6.7 4.9 11.6 5.7 14.9h.5c2.5-6.8 4.5-11.9 6-15.3l39-86.5h18.2v124.6zM163.8 230.9c-2.5 0-4.7-.9-6.5-2.6-1.8-1.7-2.7-3.9-2.7-6.6 0-2.7.9-4.9 2.7-6.6 1.8-1.8 4-2.6 6.5-2.6 2.6 0 4.8.9 6.6 2.6 1.8 1.8 2.7 4 2.7 6.6 0 2.5-.9 4.7-2.7 6.5-1.7 1.8-4 2.7-6.6 2.7zm7 111.5h-14.2v-88.9h14.2v88.9zM254.5 338.3c-6.8 4.1-14.9 6.2-24.3 6.2-12.7 0-22.9-4.1-30.7-12.4-7.8-8.2-11.7-18.9-11.7-32.1 0-14.6 4.2-26.4 12.6-35.3 8.4-8.9 19.6-13.3 33.6-13.3 7.8 0 14.7 1.4 20.7 4.3v14.6c-6.6-4.6-13.7-6.9-21.2-6.9-9.1 0-16.5 3.3-22.4 9.8-5.8 6.5-8.7 15.1-8.7 25.7 0 10.4 2.7 18.6 8.2 24.7 5.5 6 12.8 9 22 9 7.8 0 15-2.6 21.9-7.7v13.4zM316.7 267.9c-2.5-1.9-6.1-2.9-10.8-2.9-6.1 0-11.2 2.9-15.2 8.6-4.1 5.7-6.1 13.5-6.1 23.4v45.3h-14.2v-88.9h14.2v18.3h.3c2-6.3 5.1-11.1 9.3-14.6 4.2-3.5 8.8-5.3 14-5.3 3.7 0 6.5.4 8.5 1.2v14.9zM361.3 344.5c-13.1 0-23.6-4.2-31.5-12.5-7.8-8.3-11.8-19.3-11.8-33 0-14.9 4.1-26.6 12.2-35 8.2-8.4 19.2-12.6 33.1-12.6 13.3 0 23.6 4.1 31 12.2 7.4 8.2 11.2 19.5 11.2 34 0 14.2-4 25.5-12 34.1-7.9 8.5-18.7 12.8-32.2 12.8zm1.1-81.1c-9.1 0-16.4 3.1-21.7 9.3-5.3 6.2-8 14.8-8 25.7 0 10.5 2.7 18.8 8.1 24.9 5.4 6.1 12.6 9.1 21.6 9.1 9.2 0 16.3-3 21.2-8.9 4.9-6 7.4-14.4 7.4-25.4 0-11.1-2.5-19.7-7.4-25.7s-12-9-21.2-9zM417.3 339.2v-15.3c7.8 5.7 16.3 8.6 25.6 8.6 12.5 0 18.8-4.2 18.8-12.5 0-2.4-.5-4.4-1.6-6-1.1-1.6-2.5-3.1-4.3-4.4-1.8-1.3-4-2.4-6.4-3.4-2.5-1-5.1-2.1-7.9-3.2-3.9-1.6-7.4-3.1-10.4-4.7s-5.5-3.4-7.5-5.4-3.5-4.3-4.5-6.8-1.5-5.5-1.5-8.9c0-4.2 1-7.9 2.9-11.1 1.9-3.2 4.5-5.9 7.6-8.1 3.2-2.2 6.8-3.8 10.9-4.9 4.1-1.1 8.3-1.6 12.6-1.6 7.7 0 14.6 1.3 20.7 4v14.4c-6.5-4.3-14.1-6.4-22.6-6.4-2.7 0-5.1.3-7.2.9-2.1.6-4 1.5-5.5 2.6s-2.7 2.4-3.6 4c-.8 1.5-1.3 3.2-1.3 5.1 0 2.3.4 4.3 1.3 5.8.8 1.6 2.1 3 3.7 4.2 1.6 1.2 3.6 2.3 5.9 3.3 2.3 1 4.9 2.1 7.9 3.2 3.9 1.5 7.5 3.1 10.6 4.6 3.1 1.6 5.8 3.4 8 5.4 2.2 2 3.9 4.3 5.1 6.9 1.2 2.6 1.8 5.7 1.8 9.3 0 4.4-1 8.2-2.9 11.5-1.9 3.2-4.5 5.9-7.8 8.1-3.2 2.1-7 3.7-11.2 4.8-4.2 1-8.7 1.6-13.3 1.6-9.3-.3-17.2-2.1-23.9-5.6zM529.6 344.5c-13.1 0-23.6-4.2-31.5-12.5-7.8-8.3-11.8-19.3-11.8-33 0-14.9 4.1-26.6 12.2-35 8.2-8.4 19.2-12.6 33.1-12.6 13.3 0 23.6 4.1 31 12.2 7.4 8.2 11.2 19.5 11.2 34 0 14.2-4 25.5-12 34.1-8 8.5-18.7 12.8-32.2 12.8zm1-81.1c-9.1 0-16.4 3.1-21.7 9.3-5.3 6.2-8 14.8-8 25.7 0 10.5 2.7 18.8 8.1 24.9 5.4 6.1 12.6 9.1 21.6 9.1 9.2 0 16.3-3 21.2-8.9 4.9-6 7.4-14.4 7.4-25.4 0-11.1-2.5-19.7-7.4-25.7s-12-9-21.2-9zM631.6 223.3c-2.8-1.6-5.9-2.3-9.5-2.3-10 0-14.9 6.3-14.9 18.8v13.7H628v12.2h-20.8v76.8H593v-76.8h-15.2v-12.2H593v-14.4c0-9.3 2.7-16.7 8.1-22.1 5.4-5.4 12.1-8.1 20.1-8.1 4.3 0 7.8.5 10.3 1.6v12.8zM682.1 341.5c-3.4 1.9-7.8 2.8-13.3 2.8-15.6 0-23.4-8.7-23.4-26v-52.6h-15.3v-12.2h15.3v-21.7l14.2-4.6v26.3H682v12.2h-22.4v50.1c0 6 1 10.2 3 12.8 2 2.5 5.4 3.8 10.1 3.8 3.6 0 6.7-1 9.3-3v12.1zM161.3 470.3v47.1h-14.6V392.9h34.2c13.3 0 23.6 3.2 31 9.7 7.3 6.5 11 15.6 11 27.4s-4.1 21.5-12.2 29-19.1 11.3-33 11.3h-16.4zm0-64.2v51.1h15.3c10.1 0 17.8-2.3 23.1-6.9 5.3-4.6 7.9-11.1 7.9-19.5 0-16.4-9.7-24.7-29.2-24.7h-17.1zM300.6 517.4h-14.2v-13.9h-.4c-6.2 10.7-15.3 16-27.4 16-8.9 0-15.8-2.3-20.8-7s-7.5-10.9-7.5-18.7c0-16.6 9.8-26.3 29.3-29l26.7-3.7c0-15.1-6.1-22.7-18.3-22.7-10.7 0-20.4 3.6-29 10.9v-14.6c8.7-5.6 18.8-8.3 30.2-8.3 20.9 0 31.3 11.1 31.3 33.2v57.8zm-14.3-45-21.4 3c-6.6.9-11.6 2.6-14.9 4.9-3.4 2.3-5 6.5-5 12.5 0 4.3 1.5 7.9 4.6 10.6 3.1 2.8 7.2 4.1 12.4 4.1 7.1 0 12.9-2.5 17.5-7.4s6.9-11.2 6.9-18.8v-8.9zM372 442.9c-2.5-1.9-6.1-2.9-10.8-2.9-6.1 0-11.2 2.9-15.2 8.6-4.1 5.7-6.1 13.5-6.1 23.4v45.3h-14.2v-88.9h14.2v18.3h.3c2-6.3 5.1-11.1 9.3-14.6 4.2-3.5 8.8-5.3 14-5.3 3.7 0 6.5.4 8.5 1.2v14.9zM432 516.5c-3.4 1.9-7.8 2.8-13.3 2.8-15.6 0-23.4-8.7-23.4-26v-52.6H380v-12.2h15.3v-21.7l14.2-4.6v26.3H432v12.2h-22.4v50.1c0 6 1 10.2 3 12.8 2 2.5 5.4 3.8 10.1 3.8 3.6 0 6.7-1 9.3-3v12.1zM523.1 517.4h-14.2v-50.7c0-18.9-6.9-28.3-20.7-28.3-7.1 0-13 2.7-17.7 8-4.7 5.4-7 12.1-7 20.3v50.7h-14.2v-88.9h14.2v14.8h.3c6.7-11.2 16.4-16.8 29.2-16.8 9.7 0 17.2 3.1 22.3 9.4 5.2 6.3 7.7 15.4 7.7 27.2v54.3zM619.6 476.5h-62.8c.2 9.9 2.9 17.5 8 22.9 5.1 5.4 12.1 8.1 21 8.1 10 0 19.2-3.3 27.6-9.9V511c-7.8 5.7-18.1 8.5-31 8.5-12.6 0-22.4-4-29.6-12.1-7.2-8.1-10.8-19.4-10.8-34.1 0-13.8 3.9-25.1 11.8-33.8 7.8-8.7 17.6-13.1 29.2-13.1 11.6 0 20.6 3.8 27 11.3 6.4 7.5 9.6 18 9.6 31.3v7.5zM605 464.4c-.1-8.2-2-14.6-5.9-19.2-3.9-4.6-9.3-6.9-16.3-6.9-6.7 0-12.4 2.4-17.1 7.2-4.7 4.8-7.6 11.1-8.7 18.8h48zM685.7 442.9c-2.5-1.9-6.1-2.9-10.8-2.9-6.1 0-11.2 2.9-15.2 8.6-4.1 5.7-6.1 13.5-6.1 23.4v45.3h-14.2v-88.9h14.2v18.3h.3c2-6.3 5.1-11.1 9.3-14.6 4.2-3.5 8.8-5.3 14-5.3 3.7 0 6.5.4 8.5 1.2v14.9zM839.6 382.6v-6.3c.7.6 1.6 1.2 2.6 1.7s2.1.9 3.2 1.3c1.1.3 2.2.6 3.3.8 1.1.2 2.2.3 3.1.3 3.3 0 5.7-.6 7.3-1.8 1.6-1.2 2.4-3 2.4-5.2 0-1.2-.3-2.3-.8-3.2s-1.3-1.7-2.2-2.5c-1-.7-2.1-1.5-3.4-2.2-1.3-.7-2.7-1.4-4.2-2.2-1.6-.8-3.1-1.6-4.4-2.4-1.4-.8-2.6-1.7-3.6-2.7-1-1-1.8-2.1-2.4-3.4-.6-1.3-.9-2.7-.9-4.4 0-2.1.5-3.9 1.4-5.4.9-1.5 2.1-2.8 3.6-3.8s3.2-1.7 5.1-2.2c1.9-.5 3.8-.7 5.8-.7 4.5 0 7.7.5 9.8 1.6v6c-2.7-1.9-6.1-2.8-10.3-2.8-1.2 0-2.3.1-3.5.4-1.2.2-2.2.6-3.1 1.2-.9.5-1.6 1.3-2.2 2.1s-.9 1.9-.9 3.2c0 1.2.2 2.2.6 3 .4.8 1.1 1.6 1.9 2.3.8.7 1.9 1.4 3.1 2 1.2.7 2.6 1.4 4.2 2.2 1.6.8 3.2 1.6 4.6 2.5 1.5.9 2.7 1.9 3.8 2.9 1.1 1.1 2 2.3 2.6 3.6.6 1.3 1 2.8 1 4.5 0 2.2-.4 4.1-1.3 5.7-.9 1.6-2.1 2.8-3.5 3.8s-3.2 1.7-5.1 2.1c-1.9.4-4 .6-6.1.6-.7 0-1.6-.1-2.7-.2s-2.1-.3-3.2-.5-2.1-.5-3.1-.8c-1.1-.3-1.9-.7-2.5-1.1zM878.2 343.7c-.9 0-1.7-.3-2.4-1-.7-.6-1-1.4-1-2.4s.3-1.8 1-2.4c.7-.6 1.4-1 2.4-1s1.8.3 2.4 1 1 1.5 1 2.4c0 .9-.3 1.7-1 2.4-.6.7-1.4 1-2.4 1zm2.6 40.7h-5.2V352h5.2v32.4zM896.6 384.4h-5.2v-48h5.2v48zM932.6 352l-12.9 32.4h-5.1L902.3 352h5.7l8.2 23.6c.6 1.7 1 3.2 1.1 4.5h.1c.2-1.6.5-3.1 1-4.4L927 352h5.6zM964 369.5h-22.9c.1 3.6 1.1 6.4 2.9 8.4 1.9 2 4.4 2.9 7.7 2.9 3.7 0 7-1.2 10.1-3.6v4.9c-2.9 2.1-6.6 3.1-11.3 3.1-4.6 0-8.2-1.5-10.8-4.4-2.6-2.9-3.9-7.1-3.9-12.4 0-5 1.4-9.2 4.3-12.3 2.9-3.2 6.4-4.8 10.7-4.8s7.5 1.4 9.9 4.1c2.3 2.7 3.5 6.6 3.5 11.4v2.7zm-5.3-4.4c0-3-.7-5.3-2.2-7s-3.4-2.5-5.9-2.5c-2.5 0-4.5.9-6.2 2.6s-2.8 4-3.2 6.9h17.5zM988.8 357.2c-.9-.7-2.2-1-3.9-1-2.2 0-4.1 1-5.6 3.1s-2.2 4.9-2.2 8.6v16.5h-5.2V352h5.2v6.7h.1c.7-2.3 1.9-4.1 3.4-5.3s3.2-1.9 5.1-1.9c1.4 0 2.4.1 3.1.4v5.3zM1048.2 384.4h-5.9l-4.8-12.7h-19.3l-4.5 12.7h-5.9l17.4-45.4h5.5l17.5 45.4zm-12.4-17.5-7.1-19.4c-.2-.6-.5-1.6-.7-3h-.1c-.2 1.3-.5 2.3-.7 3l-7.1 19.4h15.7zM1059.6 379.7h-.1v19.6h-5.2V352h5.2v5.7h.1c2.6-4.3 6.3-6.5 11.2-6.5 4.2 0 7.4 1.5 9.8 4.4 2.3 2.9 3.5 6.8 3.5 11.7 0 5.4-1.3 9.8-4 13-2.6 3.3-6.3 4.9-10.8 4.9-4.2 0-7.4-1.8-9.7-5.5zm-.1-13v4.5c0 2.7.9 5 2.6 6.8s4 2.8 6.6 2.8c3.1 0 5.6-1.2 7.4-3.6 1.8-2.4 2.7-5.8 2.7-10 0-3.6-.8-6.4-2.5-8.5-1.7-2-3.9-3.1-6.8-3.1-3 0-5.5 1.1-7.3 3.2-1.8 2.1-2.7 4.7-2.7 7.9zM1097.8 379.7h-.1v19.6h-5.2V352h5.2v5.7h.1c2.6-4.3 6.3-6.5 11.2-6.5 4.2 0 7.4 1.5 9.8 4.4s3.5 6.8 3.5 11.7c0 5.4-1.3 9.8-4 13-2.6 3.3-6.3 4.9-10.8 4.9-4.2 0-7.4-1.8-9.7-5.5zm-.1-13v4.5c0 2.7.9 5 2.6 6.8 1.7 1.9 4 2.8 6.6 2.8 3.1 0 5.6-1.2 7.4-3.6 1.8-2.4 2.7-5.8 2.7-10 0-3.6-.8-6.4-2.5-8.5s-3.9-3.1-6.8-3.1c-3 0-5.4 1.1-7.3 3.2-1.8 2.1-2.7 4.7-2.7 7.9zM1135.9 384.4h-5.2v-48h5.2v48zM1149.2 343.7c-.9 0-1.7-.3-2.4-1-.7-.6-1-1.4-1-2.4s.3-1.8 1-2.4c.7-.6 1.4-1 2.4-1s1.8.3 2.4 1c.7.6 1 1.5 1 2.4 0 .9-.3 1.7-1 2.4s-1.5 1-2.4 1zm2.5 40.7h-5.2V352h5.2v32.4zM1184.4 382.9c-2.5 1.5-5.5 2.3-8.9 2.3-4.6 0-8.4-1.5-11.2-4.5-2.8-3-4.3-6.9-4.3-11.7 0-5.3 1.5-9.6 4.6-12.9s7.2-4.9 12.3-4.9c2.9 0 5.4.5 7.5 1.6v5.3c-2.4-1.7-5-2.5-7.7-2.5-3.3 0-6 1.2-8.2 3.6-2.1 2.4-3.2 5.5-3.2 9.4 0 3.8 1 6.8 3 9s4.7 3.3 8 3.3c2.8 0 5.5-.9 8-2.8v4.8zM1215.5 384.4h-5.2v-5.1h-.1c-2.3 3.9-5.6 5.8-10 5.8-3.2 0-5.8-.9-7.6-2.6-1.8-1.7-2.7-4-2.7-6.8 0-6.1 3.6-9.6 10.7-10.6l9.7-1.4c0-5.5-2.2-8.3-6.7-8.3-3.9 0-7.4 1.3-10.6 4v-5.3c3.2-2 6.9-3 11-3 7.6 0 11.4 4 11.4 12.1v21.2zm-5.2-16.4-7.8 1.1c-2.4.3-4.2.9-5.4 1.8-1.2.9-1.8 2.4-1.8 4.5 0 1.6.6 2.9 1.7 3.9s2.6 1.5 4.5 1.5c2.6 0 4.7-.9 6.4-2.7 1.7-1.8 2.5-4.1 2.5-6.9V368zM1240.4 384.1c-1.2.7-2.8 1-4.8 1-5.7 0-8.5-3.2-8.5-9.5v-19.2h-5.6V352h5.6v-7.9l5.2-1.7v9.6h8.2v4.4h-8.2v18.3c0 2.2.4 3.7 1.1 4.7s2 1.4 3.7 1.4c1.3 0 2.4-.4 3.4-1.1v4.4zM1250.1 343.7c-.9 0-1.7-.3-2.4-1-.7-.6-1-1.4-1-2.4s.3-1.8 1-2.4c.7-.6 1.4-1 2.4-1s1.8.3 2.4 1c.7.6 1 1.5 1 2.4 0 .9-.3 1.7-1 2.4-.6.7-1.4 1-2.4 1zm2.5 40.7h-5.2V352h5.2v32.4zM1276.8 385.2c-4.8 0-8.6-1.5-11.5-4.5s-4.3-7-4.3-12.1c0-5.4 1.5-9.7 4.5-12.8 3-3.1 7-4.6 12.1-4.6 4.8 0 8.6 1.5 11.3 4.5 2.7 3 4.1 7.1 4.1 12.4 0 5.2-1.5 9.3-4.4 12.4-3 3.1-6.9 4.7-11.8 4.7zm.4-29.6c-3.3 0-6 1.1-7.9 3.4-1.9 2.3-2.9 5.4-2.9 9.4 0 3.8 1 6.9 2.9 9.1 2 2.2 4.6 3.3 7.9 3.3 3.4 0 5.9-1.1 7.7-3.3 1.8-2.2 2.7-5.3 2.7-9.3 0-4.1-.9-7.2-2.7-9.4-1.8-2.1-4.4-3.2-7.7-3.2zM1328.2 384.4h-5.2v-18.5c0-6.9-2.5-10.3-7.5-10.3-2.6 0-4.7 1-6.4 2.9-1.7 2-2.6 4.4-2.6 7.4v18.5h-5.2V352h5.2v5.4h.1c2.5-4.1 6-6.1 10.6-6.1 3.5 0 6.3 1.1 8.1 3.4 1.9 2.3 2.8 5.6 2.8 9.9v19.8zM1356.6 384.4V339h12.5c16 0 24 7.4 24 22.1 0 7-2.2 12.6-6.7 16.9-4.4 4.3-10.4 6.4-17.9 6.4h-11.9zm5.4-40.6v35.8h6.8c6 0 10.6-1.6 13.9-4.8s5-7.7 5-13.6c0-11.6-6.2-17.5-18.6-17.5h-7.1zM1427.6 369.5h-22.9c.1 3.6 1.1 6.4 2.9 8.4 1.9 2 4.4 2.9 7.7 2.9 3.7 0 7-1.2 10.1-3.6v4.9c-2.9 2.1-6.6 3.1-11.3 3.1-4.6 0-8.2-1.5-10.8-4.4-2.6-2.9-3.9-7.1-3.9-12.4 0-5 1.4-9.2 4.3-12.3 2.9-3.2 6.4-4.8 10.7-4.8s7.5 1.4 9.9 4.1c2.3 2.7 3.5 6.6 3.5 11.4v2.7zm-5.3-4.4c0-3-.7-5.3-2.2-7s-3.4-2.5-5.9-2.5c-2.5 0-4.5.9-6.2 2.6s-2.8 4-3.2 6.9h17.5zM1461 352l-12.9 32.4h-5.1l-12.3-32.4h5.7l8.2 23.6c.6 1.7 1 3.2 1.1 4.5h.1c.2-1.6.5-3.1 1-4.4l8.6-23.7h5.6zM1492.4 369.5h-22.9c.1 3.6 1.1 6.4 2.9 8.4 1.9 2 4.4 2.9 7.7 2.9 3.7 0 7-1.2 10.1-3.6v4.9c-2.9 2.1-6.6 3.1-11.3 3.1-4.6 0-8.2-1.5-10.8-4.4-2.6-2.9-3.9-7.1-3.9-12.4 0-5 1.4-9.2 4.3-12.3 2.9-3.2 6.4-4.8 10.7-4.8s7.5 1.4 9.9 4.1c2.3 2.7 3.5 6.6 3.5 11.4v2.7zm-5.4-4.4c0-3-.7-5.3-2.2-7s-3.4-2.5-5.9-2.5c-2.5 0-4.5.9-6.2 2.6s-2.8 4-3.2 6.9h17.5zM1505.5 384.4h-5.2v-48h5.2v48zM1529.6 385.2c-4.8 0-8.6-1.5-11.5-4.5s-4.3-7-4.3-12.1c0-5.4 1.5-9.7 4.5-12.8 3-3.1 7-4.6 12.1-4.6 4.8 0 8.6 1.5 11.3 4.5 2.7 3 4.1 7.1 4.1 12.4 0 5.2-1.5 9.3-4.4 12.4-2.9 3.1-6.9 4.7-11.8 4.7zm.4-29.6c-3.3 0-6 1.1-7.9 3.4-1.9 2.3-2.9 5.4-2.9 9.4 0 3.8 1 6.9 2.9 9.1 2 2.2 4.6 3.3 7.9 3.3 3.4 0 5.9-1.1 7.7-3.3 1.8-2.2 2.7-5.3 2.7-9.3 0-4.1-.9-7.2-2.7-9.4-1.8-2.1-4.3-3.2-7.7-3.2zM1559.5 379.7h-.1v19.6h-5.2V352h5.2v5.7h.1c2.6-4.3 6.3-6.5 11.2-6.5 4.2 0 7.4 1.5 9.8 4.4s3.5 6.8 3.5 11.7c0 5.4-1.3 9.8-4 13-2.6 3.3-6.3 4.9-10.8 4.9-4.2 0-7.5-1.8-9.7-5.5zm-.2-13v4.5c0 2.7.9 5 2.6 6.8 1.7 1.9 4 2.8 6.6 2.8 3.1 0 5.6-1.2 7.4-3.6 1.8-2.4 2.7-5.8 2.7-10 0-3.6-.8-6.4-2.5-8.5s-3.9-3.1-6.8-3.1c-3 0-5.4 1.1-7.3 3.2-1.7 2.1-2.7 4.7-2.7 7.9zM1638.4 384.4h-5.2v-18.6c0-3.6-.6-6.2-1.7-7.8s-3-2.4-5.6-2.4c-2.2 0-4.1 1-5.7 3-1.6 2-2.3 4.5-2.3 7.3v18.5h-5.2v-19.3c0-6.4-2.5-9.6-7.4-9.6-2.3 0-4.2 1-5.6 2.9-1.5 1.9-2.2 4.4-2.2 7.5v18.5h-5.2V352h5.2v5.1h.1c2.3-3.9 5.7-5.9 10.1-5.9 2.2 0 4.2.6 5.8 1.9 1.6 1.2 2.8 2.9 3.4 4.9 2.4-4.5 6-6.7 10.8-6.7 7.1 0 10.7 4.4 10.7 13.2v19.9zM1674.4 369.5h-22.9c.1 3.6 1.1 6.4 2.9 8.4 1.9 2 4.4 2.9 7.7 2.9 3.7 0 7-1.2 10.1-3.6v4.9c-2.9 2.1-6.6 3.1-11.3 3.1-4.6 0-8.2-1.5-10.8-4.4-2.6-2.9-3.9-7.1-3.9-12.4 0-5 1.4-9.2 4.3-12.3 2.9-3.2 6.4-4.8 10.7-4.8s7.5 1.4 9.9 4.1c2.3 2.7 3.5 6.6 3.5 11.4v2.7zm-5.3-4.4c0-3-.7-5.3-2.2-7s-3.4-2.5-5.9-2.5c-2.5 0-4.5.9-6.2 2.6s-2.8 4-3.2 6.9h17.5zM1709.2 384.4h-5.2v-18.5c0-6.9-2.5-10.3-7.5-10.3-2.6 0-4.7 1-6.4 2.9-1.7 2-2.6 4.4-2.6 7.4v18.5h-5.2V352h5.2v5.4h.1c2.5-4.1 6-6.1 10.6-6.1 3.5 0 6.3 1.1 8.1 3.4 1.9 2.3 2.8 5.6 2.8 9.9v19.8zM1734.2 384.1c-1.2.7-2.8 1-4.8 1-5.7 0-8.5-3.2-8.5-9.5v-19.2h-5.6V352h5.6v-7.9l5.2-1.7v9.6h8.2v4.4h-8.2v18.3c0 2.2.4 3.7 1.1 4.7s2 1.4 3.7 1.4c1.3 0 2.4-.4 3.4-1.1v4.4zM751.7 187.4h5v352.1h-5z" class="st0"/></svg>