<svg xmlns="http://www.w3.org/2000/svg" width="292.086" height="167.173" data-name="Group 1372"><path fill="#e4e4e4" d="M55.252 150.494q-23.996-9.884-28.515-29.313T31.69 80.17q9.47-21.59 30.25-42.04A150.275 150.275 0 0 1 109.594 6.4l25.082 12.48q-19.341 9.866-29.403 18.18T92.007 51.738q-3.204 6.361-.764 11.118a17.082 17.082 0 0 0 8.104 7.503q15.915 7.824 20.69 24.633t-3.774 33.049q-8.548 16.241-26.556 22.82t-34.455-.366Z" data-name="Path 2420" opacity=".503"/><path fill="#e4e4e4" d="M176.797 150.494q-23.996-9.884-28.515-29.313t4.954-41.011q9.47-21.59 30.25-42.04A150.275 150.275 0 0 1 231.14 6.4l25.082 12.48q-19.341 9.866-29.403 18.18t-13.266 14.678q-3.204 6.361-.764 11.118a17.082 17.082 0 0 0 8.104 7.503q15.915 7.824 20.69 24.633t-3.774 33.049q-8.548 16.241-26.556 22.82t-34.455-.366Z" data-name="Path 2421" opacity=".503"/></svg>