<?xml version="1.0" standalone="no"?>
<!DOCTYPE svg PUBLIC "-//W3C//DTD SVG 20010904//EN"
 "http://www.w3.org/TR/2001/REC-SVG-20010904/DTD/svg10.dtd">
<svg version="1.0" xmlns="http://www.w3.org/2000/svg"
 width="700.000000pt" height="700.000000pt" viewBox="0 0 700.000000 700.000000"
 preserveAspectRatio="xMidYMid meet">
<metadata>
Created by potrace 1.14, written by Peter Selinger 2001-2017
</metadata>
<g transform="translate(0.000000,700.000000) scale(0.100000,-0.100000)"
fill="#000000" stroke="none">
<path d="M3269 6936 c-2 -2 -41 -7 -85 -10 -45 -4 -93 -9 -105 -11 -13 -2 -44
-6 -69 -9 -25 -3 -54 -8 -65 -10 -11 -2 -40 -7 -65 -11 -25 -4 -108 -22 -185
-40 -305 -73 -631 -201 -885 -348 -47 -27 -99 -58 -117 -68 -40 -23 -113 -70
-133 -86 -8 -7 -46 -35 -85 -62 -38 -28 -75 -54 -80 -58 -285 -226 -558 -517
-747 -798 -73 -107 -86 -129 -173 -285 -131 -235 -253 -552 -319 -830 -24
-100 -30 -125 -41 -188 -3 -15 -7 -36 -10 -47 -2 -11 -7 -42 -10 -70 -4 -27
-8 -61 -11 -75 -19 -119 -27 -583 -12 -740 66 -700 335 -1349 781 -1890 78
-94 306 -325 407 -412 243 -209 547 -402 830 -527 41 -18 84 -37 95 -42 145
-65 489 -169 645 -194 19 -3 42 -8 51 -11 9 -2 34 -7 55 -9 22 -2 48 -6 59 -9
12 -2 48 -7 80 -11 33 -4 71 -9 85 -12 63 -12 552 -11 680 3 1357 139 2494
1047 2925 2337 34 100 98 341 108 402 3 17 8 41 11 55 7 31 21 121 31 200 28
220 28 662 0 855 -2 17 -6 48 -9 70 -33 243 -117 553 -213 790 -179 439 -420
803 -758 1140 -167 168 -217 212 -382 336 -202 152 -439 289 -678 394 -22 10
-55 24 -74 32 -165 73 -543 180 -736 208 -22 4 -51 8 -65 10 -14 2 -52 7 -85
11 -33 3 -69 8 -80 11 -23 6 -560 14 -566 9z"/>
</g>
</svg>
