<svg xmlns="http://www.w3.org/2000/svg" xml:space="preserve" viewBox="0 0 1920 201"><path fill="#3D3D3D" d="M1937 201V52.94c-26.09-8.44-53.41-15.89-81.2-22.17-26.65-6.02-54.34-11.08-82.3-15.05a1161.072 1161.072 0 0 0-162.73-11.27c-29.41 0-59.11 1.08-88.3 3.22-27.99 2.05-55.83 5.09-82.75 9.04-25.99 3.81-51.32 8.5-75.29 13.92-23.34 5.28-45.51 11.3-65.9 17.87-59.08 19.05-106.3 36.48-147.96 51.86l-.04.01-.08.03-.03.01c-26.77 9.88-52.05 19.22-76.18 27.35-26.73 9.01-49.66 15.75-72.15 21.2a681.286 681.286 0 0 1-78.43 14.19 936.537 936.537 0 0 1-95.13 6.36c-12.04.24-24.1.37-35.84.37-170.3 0-293.12-25.5-463.1-60.79l-4.88-1.01c-4.97-1.03-11.16-2.32-17.17-3.56a415.755 415.755 0 0 0-43.11-6.59 419.547 419.547 0 0 0-41.42-2.04 436.77 436.77 0 0 0-54.58 3.47 463.919 463.919 0 0 0-49.89 9.13 498.02 498.02 0 0 0-82.52 27.72c-10.55 4.59-21 9.58-31.04 14.8-7.22 3.76-14.28 7.67-20.97 11.62V201H1937z"/></svg>