<svg xmlns="http://www.w3.org/2000/svg" width="1920" height="268" fill="none"><path fill="#F7F7F7" fill-rule="evenodd" d="M0 268h1920V.003c-9.61-.178-21.56 9.142-28.44 14.508-1.22.955-2.29 1.784-3.15 2.413-239.47 181.565-487.95 204.782-662.17 140.229-189.39-70.165-341.663-13.699-470.584 34.106-69.56 25.793-132.321 49.065-190.443 48.565-68.746-.594-129.13-15.1-185.761-28.704-51.68-12.414-100.236-24.078-149.171-23.736-76.892.537-137.971 23.81-189.182 43.322C26.66 236.208 13.004 241.411 0 245.721V268Z" clip-rule="evenodd"/></svg>